<mxfile host="Electron" agent="Mozilla/5.0 (Macintosh; Intel Mac OS X 10_15_7) AppleWebKit/537.36 (KHTML, like Gecko) draw.io/28.0.6 Chrome/138.0.7204.100 Electron/37.2.3 Safari/537.36" version="28.0.6" pages="3">
  <diagram id="cbqTw5mkHF2WBUVtQdVK" name="retrieval-module">
    <mxGraphModel dx="1234" dy="883" grid="1" gridSize="10" guides="1" tooltips="1" connect="1" arrows="1" fold="1" page="1" pageScale="1" pageWidth="1169" pageHeight="827" math="0" shadow="0">
      <root>
        <mxCell id="0" />
        <mxCell id="1" parent="0" />
        <mxCell id="L2yIB8QdBocITd01Pvkf-34" value="&lt;h1 style=&quot;margin-top: 0px;&quot;&gt;Retrieval&lt;br&gt;&lt;/h1&gt;" style="text;html=1;whiteSpace=wrap;overflow=hidden;rounded=0;fontSize=18;strokeWidth=3;" parent="1" vertex="1">
          <mxGeometry width="493.72" height="120" as="geometry" />
        </mxCell>
        <mxCell id="p3jbJ6K5ewjt9FPkehxN-33" style="edgeStyle=orthogonalEdgeStyle;rounded=0;orthogonalLoop=1;jettySize=auto;html=1;exitX=0.5;exitY=1;exitDx=0;exitDy=0;entryX=0.5;entryY=0;entryDx=0;entryDy=0;strokeWidth=3;curved=1;startArrow=classic;startFill=1;fontSize=18;" edge="1" parent="1" source="p3jbJ6K5ewjt9FPkehxN-7" target="p3jbJ6K5ewjt9FPkehxN-15">
          <mxGeometry relative="1" as="geometry" />
        </mxCell>
        <mxCell id="p3jbJ6K5ewjt9FPkehxN-7" value="" style="shape=image;verticalLabelPosition=bottom;labelBackgroundColor=default;verticalAlign=top;aspect=fixed;imageAspect=0;editableCssRules=.*;image=data:image/svg+xml,PHN2ZyB4bWxucz0iaHR0cDovL3d3dy53My5vcmcvMjAwMC9zdmciIHByZXNlcnZlQXNwZWN0UmF0aW89InhNaW5ZTWluIG1lZXQiIHZpZXdCb3g9IjAgMC41ODQwMjI1MjE5NzI2NTYyIDI1NiAyMTguNTg2OTE0MDYyNSIgaGVpZ2h0PSI2ODMuMDg0MTA2NDQ1MzEyNSIgd2lkdGg9IjgwMCI+PHBhdGggZmlsbD0iIzkxMjYyNiIgZD0iTTI0NS45NyAxNjguOTQzYy0xMy42NjIgNy4xMjEtODQuNDM0IDM2LjIyLTk5LjUwMSA0NC4wNzUtMTUuMDY3IDcuODU2LTIzLjQzNyA3Ljc4LTM1LjM0IDIuMDktMTEuOTAyLTUuNjktODcuMjE2LTM2LjExMi0xMDAuNzgzLTQyLjU5N0MzLjU2NiAxNjkuMjcxIDAgMTY2LjUzNSAwIDE2My45NTF2LTI1Ljg3NnM5OC4wNS0yMS4zNDUgMTEzLjg3OS0yNy4wMjRjMTUuODI4LTUuNjc5IDIxLjMyLTUuODg0IDM0Ljc5LS45NSAxMy40NzIgNC45MzYgOTQuMDE4IDE5LjQ2OCAxMDcuMzMxIDI0LjM0NGwtLjAwNiAyNS41MWMuMDAyIDIuNTU4LTMuMDcgNS4zNjQtMTAuMDI0IDguOTg4Ii8+PHBhdGggZmlsbD0iI0M2MzAyQiIgZD0iTTI0NS45NjUgMTQzLjIyYy0xMy42NjEgNy4xMTgtODQuNDMxIDM2LjIxOC05OS40OTggNDQuMDcyLTE1LjA2NiA3Ljg1Ny0yMy40MzYgNy43OC0zNS4zMzggMi4wOS0xMS45MDMtNS42ODYtODcuMjE0LTM2LjExMy0xMDAuNzgtNDIuNTk0LTEzLjU2Ni02LjQ4NS0xMy44NS0xMC45NDgtLjUyNC0xNi4xNjYgMTMuMzI2LTUuMjIgODguMjI0LTM0LjYwNSAxMDQuMDU1LTQwLjI4NCAxNS44MjgtNS42NzcgMjEuMzE5LTUuODg0IDM0Ljc4OS0uOTQ4IDEzLjQ3MSA0LjkzNCA4My44MTkgMzIuOTM1IDk3LjEzIDM3LjgxIDEzLjMxNiA0Ljg4MSAxMy44MjcgOC45LjE2NiAxNi4wMiIvPjxwYXRoIGZpbGw9IiM5MTI2MjYiIGQ9Ik0yNDUuOTcgMTI3LjA3NGMtMTMuNjYyIDcuMTIyLTg0LjQzNCAzNi4yMi05OS41MDEgNDQuMDc4LTE1LjA2NyA3Ljg1My0yMy40MzcgNy43NzctMzUuMzQgMi4wODctMTEuOTAzLTUuNjg3LTg3LjIxNi0zNi4xMTItMTAwLjc4My00Mi41OTdDMy41NjYgMTI3LjQwMiAwIDEyNC42NyAwIDEyMi4wODVWOTYuMjA2czk4LjA1LTIxLjM0NCAxMTMuODc5LTI3LjAyM2MxNS44MjgtNS42NzkgMjEuMzItNS44ODUgMzQuNzktLjk1QzE2Mi4xNDIgNzMuMTY4IDI0Mi42ODggODcuNjk3IDI1NiA5Mi41NzRsLS4wMDYgMjUuNTEzYy4wMDIgMi41NTctMy4wNyA1LjM2My0xMC4wMjQgOC45ODciLz48cGF0aCBmaWxsPSIjQzYzMDJCIiBkPSJNMjQ1Ljk2NSAxMDEuMzUxYy0xMy42NjEgNy4xMi04NC40MzEgMzYuMjE4LTk5LjQ5OCA0NC4wNzUtMTUuMDY2IDcuODU0LTIzLjQzNiA3Ljc3Ny0zNS4zMzggMi4wODctMTEuOTAzLTUuNjg2LTg3LjIxNC0zNi4xMTItMTAwLjc4LTQyLjU5NC0xMy41NjYtNi40ODMtMTMuODUtMTAuOTQ3LS41MjQtMTYuMTY3QzIzLjE1MSA4My41MzUgOTguMDUgNTQuMTQ4IDExMy44OCA0OC40N2MxNS44MjgtNS42NzggMjEuMzE5LTUuODg0IDM0Ljc4OS0uOTQ5IDEzLjQ3MSA0LjkzNCA4My44MTkgMzIuOTMzIDk3LjEzIDM3LjgxIDEzLjMxNiA0Ljg4IDEzLjgyNyA4LjkuMTY2IDE2LjAyIi8+PHBhdGggZmlsbD0iIzkxMjYyNiIgZD0iTTI0NS45NyA4My42NTNjLTEzLjY2MiA3LjEyLTg0LjQzNCAzNi4yMi05OS41MDEgNDQuMDc4LTE1LjA2NyA3Ljg1NC0yMy40MzcgNy43NzctMzUuMzQgMi4wODctMTEuOTAzLTUuNjg3LTg3LjIxNi0zNi4xMTMtMTAwLjc4My00Mi41OTVDMy41NjYgODMuOTggMCA4MS4yNDcgMCA3OC42NjV2LTI1Ljg4czk4LjA1LTIxLjM0MyAxMTMuODc5LTI3LjAyMWMxNS44MjgtNS42OCAyMS4zMi01Ljg4NCAzNC43OS0uOTVDMTYyLjE0MiAyOS43NDkgMjQyLjY4OCA0NC4yNzggMjU2IDQ5LjE1NWwtLjAwNiAyNS41MTJjLjAwMiAyLjU1NS0zLjA3IDUuMzYxLTEwLjAyNCA4Ljk4NiIvPjxwYXRoIGZpbGw9IiNDNjMwMkIiIGQ9Ik0yNDUuOTY1IDU3LjkzYy0xMy42NjEgNy4xMi04NC40MzEgMzYuMjItOTkuNDk4IDQ0LjA3NC0xNS4wNjYgNy44NTQtMjMuNDM2IDcuNzc3LTM1LjMzOCAyLjA5Qzk5LjIyNyA5OC40MDQgMjMuOTE1IDY3Ljk4IDEwLjM1IDYxLjQ5Ny0zLjIxNyA1NS4wMTUtMy41IDUwLjU1IDkuODI1IDQ1LjMzMSAyMy4xNTEgNDAuMTEzIDk4LjA1IDEwLjczIDExMy44OCA1LjA1YzE1LjgyOC01LjY3OSAyMS4zMTktNS44ODMgMzQuNzg5LS45NDggMTMuNDcxIDQuOTM1IDgzLjgxOSAzMi45MzQgOTcuMTMgMzcuODExIDEzLjMxNiA0Ljg3NiAxMy44MjcgOC44OTcuMTY2IDE2LjAxNyIvPjxwYXRoIGZpbGw9IiNGRkYiIGQ9Ik0xNTkuMjgzIDMyLjc1N2wtMjIuMDEgMi4yODUtNC45MjcgMTEuODU2LTcuOTU4LTEzLjIzLTI1LjQxNS0yLjI4NCAxOC45NjQtNi44MzktNS42OS0xMC40OTggMTcuNzU1IDYuOTQ0IDE2LjczOC01LjQ4LTQuNTI0IDEwLjg1NSAxNy4wNjcgNi4zOTFNMTMxLjAzMiA5MC4yNzVMODkuOTU1IDczLjIzOGw1OC44Ni05LjAzNS0xNy43ODMgMjYuMDcyTTc0LjA4MiAzOS4zNDdjMTcuMzc1IDAgMzEuNDYgNS40NiAzMS40NiAxMi4xOTQgMCA2LjczNi0xNC4wODUgMTIuMTk1LTMxLjQ2IDEyLjE5NXMtMzEuNDYtNS40Ni0zMS40Ni0xMi4xOTVjMC02LjczNCAxNC4wODUtMTIuMTk0IDMxLjQ2LTEyLjE5NCIvPjxwYXRoIGZpbGw9IiM2MjFCMUMiIGQ9Ik0xODUuMjk1IDM1Ljk5OGwzNC44MzYgMTMuNzY2LTM0LjgwNiAxMy43NTMtLjAzLTI3LjUyIi8+PHBhdGggZmlsbD0iIzlBMjkyOCIgZD0iTTE0Ni43NTUgNTEuMjQzbDM4LjU0LTE1LjI0NS4wMyAyNy41MTktMy43NzkgMS40NzgtMzQuNzkxLTEzLjc1MiIvPjwvc3ZnPg==;strokeWidth=3;fontSize=18;" vertex="1" parent="1">
          <mxGeometry x="354.18999999999994" y="110.0100000000001" width="84.12" height="71.82" as="geometry" />
        </mxCell>
        <mxCell id="p3jbJ6K5ewjt9FPkehxN-12" value="" style="verticalLabelPosition=bottom;verticalAlign=top;html=1;shadow=0;dashed=0;strokeWidth=3;shape=mxgraph.android.phone2;strokeColor=#c0c0c0;fontSize=18;" vertex="1" parent="1">
          <mxGeometry x="110" y="256.3299999999999" width="102.56" height="200" as="geometry" />
        </mxCell>
        <mxCell id="p3jbJ6K5ewjt9FPkehxN-38" style="edgeStyle=orthogonalEdgeStyle;rounded=0;orthogonalLoop=1;jettySize=auto;html=1;exitX=1;exitY=0.5;exitDx=0;exitDy=0;entryX=0;entryY=0.5;entryDx=0;entryDy=0;strokeWidth=3;curved=1;startArrow=classic;startFill=1;fontSize=18;" edge="1" parent="1" source="p3jbJ6K5ewjt9FPkehxN-15" target="p3jbJ6K5ewjt9FPkehxN-35">
          <mxGeometry relative="1" as="geometry" />
        </mxCell>
        <mxCell id="p3jbJ6K5ewjt9FPkehxN-15" value="&lt;div&gt;&lt;br&gt;&lt;/div&gt;&lt;div&gt;&lt;br&gt;&lt;/div&gt;&lt;div&gt;&lt;br&gt;&lt;/div&gt;&lt;div&gt;&lt;br&gt;&lt;/div&gt;web_api" style="rounded=1;whiteSpace=wrap;html=1;fontSize=18;strokeWidth=3;" vertex="1" parent="1">
          <mxGeometry x="306.25" y="296.3299999999999" width="180" height="120" as="geometry" />
        </mxCell>
        <mxCell id="p3jbJ6K5ewjt9FPkehxN-16" value="front-end" style="text;html=1;align=center;verticalAlign=middle;resizable=0;points=[];autosize=1;strokeColor=none;fillColor=none;fontSize=18;strokeWidth=3;" vertex="1" parent="1">
          <mxGeometry x="111.27999999999997" y="336.3299999999999" width="100" height="40" as="geometry" />
        </mxCell>
        <mxCell id="p3jbJ6K5ewjt9FPkehxN-17" value="" style="shape=image;verticalLabelPosition=bottom;labelBackgroundColor=default;verticalAlign=top;aspect=fixed;imageAspect=0;editableCssRules=.*;image=data:image/svg+xml,PHN2ZyB4bWxucz0iaHR0cDovL3d3dy53My5vcmcvMjAwMC9zdmciIHZpZXdCb3g9IjAgLTAuMTMxNTAyOTg1OTU0Mjg0NjcgMTI4LjAxNDMxMjc0NDE0MDYyIDEyOC4xNDYxNjM5NDA0Mjk3IiB3aWR0aD0iMTI4LjAxNDMxMjc0NDE0MDYyIiBoZWlnaHQ9IjEyOC4xNDYxNjM5NDA0Mjk3Ij48cGF0aCBmaWxsPSIjMDQ5Njg4IiBkPSJNNTYuODEzIDEyNy41ODZjLTEuOTAzLS4yMjctMy44OTktLjUyLTQuNDM0LS42NTJhNDguMDc4IDQ4LjA3OCAwIDAwLTIuMzc1LS41IDM2LjA0MiAzNi4wNDIgMCAwMS0yLjcwMy0uNjMzYy00LjE0NS0xLjE4OC00LjQ0Mi0xLjI4NS03LjU2Ny0yLjU2My0yLjg3NS0xLjE3Mi04LjE3Mi0zLjkxLTkuOTg0LTUuMTU2LS40OTYtLjM0NC0uOTYtLjYyMS0xLjAzMS0uNjIxLS4wNyAwLTEuMjMtLjgxNi0yLjU3OC0xLjgxMy04LjU3LTYuMzQzLTE1LjAwNC0xNC4wNDMtMTkuNjUzLTIzLjUyNy0uOC0xLjYyOS0xLjQ1My0zLjA3NC0xLjQ1My0zLjIxIDAtLjEzNC0uMTQ0LS41MDUtLjMyLS44MTctLjM2My0uNjQ5LS44OC0yLjA0Ny0xLjI5Ny0zLjQ5MmEyMC4wNDcgMjAuMDQ3IDAgMDAtLjYyNS0xLjgxM2MtLjE5NS0uNDYtLjM1Mi0xLjAyLS4zNTItMS4yNDYgMC0uMjI3LS4xOTUtLjk2NS0uNDMzLTEuNjQ1LS4yMzgtLjY3NS0uNDMtMS40NzItLjQzLTEuNzcgMC0uMjk2LS4xODctMS4zMi0uNDE4LTIuMjc2Qy41OTggNzMuNDkyIDAgNjcuMzc5IDAgNjMuOTUzYzAtMy40MjIuNTk4LTkuNTM1IDEuMTYtMTEuODk0LjIzLS45NTcuNDE4LTIgLjQxOC0yLjMyIDAtLjMyMS4xNDUtLjk1LjMyLTEuNC4xOC0uNDQ4LjQxLTEuMjUzLjUxNi0xLjc4OC4xMS0uNTM1LjM2LTEuNDU3LjU2My0yLjA1NWwuNTktMS43MjZjLjQzMy0xLjI5My44MzUtMi4zODcgMS4wMjctMi44MTMuMTEtLjIzOC41MzktMS4yMS45NTctMi4xNi42NzYtMS41MzUgMi4xMjUtNC40MyAyLjk3Mi01Ljk0NS4zMDktLjU1NS40MjYtLjczOSAyLjA5OC0zLjM1MiAyLjY0OS00LjE0OCA3LjE3Ni05LjMwOSAxMS4zOS0xMi45ODggMS40ODUtMS4yOTcgNi40NDYtNS4wNjMgNi42NjktNS4wNjMuMDYyIDAgLjUzLS4yODEgMS4wNDMtLjYyNSAxLjM0Ny0uOTAyIDIuNjY4LTEuNjY4IDQuMzktMi41MzFhNTMuMDYgNTMuMDYgMCAwMDEuODM2LS45NTNjLjI4NS0uMTY0LjgyLS40MSAzLjU2Ny0xLjY0LjYwNS0uMjcgMS4yNTctLjUxNiAzLjEzNi0xLjE3My40MTQtLjE0NCAxLjI0Ni0uNDQ5IDEuODQtLjY3Mi41OTgtLjIyMiAxLjMwMS0uNDA2IDEuNTYzLS40MDYuMjU4IDAgLjkzNy0uMTggMS41MDgtLjQwMi41Ny0uMjIzIDEuNjA1LS40NzcgMi4zMDQtLjU2My42OTYtLjA4MiAxLjYyMS0uMjc3IDIuMDU1LS40My40My0uMTQ4IDEuNjEtLjM0IDIuNjIxLS40MjVhNzIuNTcyIDcyLjU3MiAwIDAwMy45NDEtLjQ2NWMyLjY4OC0uMzk0IDguNTMyLS4zOTQgMTEuMTkyIDBhNzUuMDIgNzUuMDIgMCAwMDMuNzgxLjQ0NWMuOTUzLjA3OSAyLjE2OC4yNzggMi43MDMuNDQyLjUzNS4xNiAxLjQ2MS4zNiAyLjA1NS40MzMuNTk0LjA3OSAxLjU5NC4zMjUgMi4yMjIuNTUxLjYzLjIzIDEuMzQ0LjQxNCAxLjU5LjQxNHMuNzU0LjEzNyAxLjEyNS4zMDljLjM3NS4xNjggMS4xNjguNDQ5IDEuNzY2LjYyNS41OTQuMTggMS42MTMuNTM1IDIuMjcuNzk3LjY1Mi4yNjEgMS41MjcuNjA1IDEuOTQ1Ljc2MS43Ny4yOSA2LjQ2IDMuMTM3IDcuMjM0IDMuNjIyIDYuMjgxIDMuOTE3IDkuNTEyIDYuNDc2IDEzLjg1NiAxMC45NjQgNS4yMzggNS40MTQgOC43MTUgMTAuNTcgMTIuMjU0IDE4LjE2LjI1LjUzNi42MzIgMS4zMjkuODUxIDEuNzU4LjIxNS40MzQuMzk1Ljk0Mi4zOTUgMS4xMyAwIC4xOS4xOC43Ni40MDIgMS4yNjkuNjAyIDEuMzgzIDEuMTE3IDIuOTU3IDEuMzYgNC4xNi4xMi41OS4zNDMgMS4zMi40OTUgMS42MjEuMTUzLjMuMzMyIDEuMDYzLjQwMyAxLjY4OC4wNy42MjQuMjc3IDEuNjQ4LjQ1MyAyLjI2OSAxLjAyIDMuNTMxIDEuNTI3IDEzLjkzNC45MSAxOC41MzUtLjE4MyAxLjM2Ny0uMzkgMy4wMi0uNDYgMy42NzItLjExOCAxLjExNy0uNzA4IDQuMDA0LTEuMjEyIDUuOTQ1bC0uNTIgMi4wNTVjLS45OCAzLjk1Ny0zLjQwMiA5LjU5NC02LjM1OSAxNC44MDktMS4xNzIgMi4wNy01LjEwMSA3LjY2OC01Ljg0MyA4LjMyNC0uMDY3LjA1OC0uMzk5LjQ1LS43MzUuODYzLS4zMzYuNDE4LTEuNDE0IDEuNTg2LTIuMzkgMi41OTQtNC4zMDEgNC40NDEtNy43NyA3LjE4Ny0xMy44NiAxMC45NjktLjcyMi40NDktNi44NDcgMy40NDEtNy45OTIgMy45MDYtLjU5NC4yMzgtMS41ODYuNjQtMi4yMDMuODktLjYxMy4yNDctMS4yOTcuNDU0LTEuNTEyLjQ1OC0uMjE1LjAwMy0uNzgxLjE5NS0xLjI1OC40MjUtLjQ3Ni4yMy0xLjA4Mi40MjItMS4zNTEuNDI2LS4yNjYuMDA0LTEuMDQzLjE5Mi0xLjcyNy40MTgtLjY4My4yMy0xLjYzMy40NzctMi4xMS41NS0uNDc2LjA3NS0xLjQ5NS4yNzgtMi4yNjkuNDUtLjc3My4xNzItMy4xMS41MDgtNS4xODcuNzQ2YTU5LjA2IDU5LjA2IDAgMDEtMTMuOTQ1LS4wMzF6bTQuNzAzLTEyLjVjLjMtLjIzNC42MDktLjcuNjkxLTEuMDI3LjE4LS43MjMgMjkuMjM0LTU4Ljk3IDI5Ljc4MS01OS43LjQ2MS0uNjE3LjUwNC0xLjYwNS4wODItMS45NTMtLjIyMi0uMTg3LTMuMDA0LS4yNDYtMTAuNDMtLjIzNC01LjU3LjAxMi0xMC4yNTMuMDE2LTEwLjQwNi4wMTItLjIyNi0uMDA4LS4yNzMtMy43My0uMjUtMTkuNjcyLjAxNi0xMC44MTctLjAzNS0xOS43NjYtLjExMy0xOS44OS0uMDc4LS4xMjYtLjM4My0uMjI3LS42OC0uMjI3LS40MTggMC0uNjEzLjE4LS44Ny44MDgtLjQ4NSAxLjE2OC0xLjgyNSAzLjgyLTguMzQ4IDE2LjQ4NWEzNTU0LjU2OSAzNTU0LjU2OSAwIDAwLTQuMDU1IDcuODljLTEuMTU2IDIuMjYyLTIuOTggNS44MTMtNC4wNDcgNy44OWE4NzUxLjI0OCA4NzUxLjI0OCAwIDAwLTguNTk4IDE2Ljc1OWMtNC45MzMgOS42MzYtNS41MyAxMC43ODUtNS43NDIgMTEuMDM5LS40MS40OTYtLjYzMyAxLjY0LS40MDIgMi4wNy4yMS4zOTQuNjI5LjQxIDExLjA0My4zOTQgNS45NTMtLjAwNyAxMC44NjMuMDI0IDEwLjkxNC4wNy4xMzcuMTQxLjA4NiAzNy4zMS0uMDU1IDM4LjE5Ni0uMDkzLjU4Mi0uMDMxLjg5LjIzNSAxLjE1Ni40Ni40NjEuNTg2LjQ1NyAxLjI1LS4wNjZ6bTAgMCIvPjwvc3ZnPg==;strokeWidth=3;fontSize=18;" vertex="1" parent="1">
          <mxGeometry x="361.25" y="311.3299999999999" width="70" height="70" as="geometry" />
        </mxCell>
        <mxCell id="p3jbJ6K5ewjt9FPkehxN-18" style="edgeStyle=orthogonalEdgeStyle;rounded=0;orthogonalLoop=1;jettySize=auto;html=1;exitX=1.018;exitY=0.5;exitDx=0;exitDy=0;strokeWidth=3;entryX=0;entryY=0.5;entryDx=0;entryDy=0;exitPerimeter=0;curved=1;fontSize=18;" edge="1" parent="1" source="p3jbJ6K5ewjt9FPkehxN-12" target="p3jbJ6K5ewjt9FPkehxN-15">
          <mxGeometry relative="1" as="geometry">
            <mxPoint x="260" y="346.3299999999999" as="sourcePoint" />
          </mxGeometry>
        </mxCell>
        <mxCell id="p3jbJ6K5ewjt9FPkehxN-42" style="edgeStyle=orthogonalEdgeStyle;rounded=0;orthogonalLoop=1;jettySize=auto;html=1;exitX=0.5;exitY=1;exitDx=0;exitDy=0;entryX=0.5;entryY=0;entryDx=0;entryDy=0;strokeWidth=3;curved=1;fontSize=18;" edge="1" parent="1" source="p3jbJ6K5ewjt9FPkehxN-19" target="p3jbJ6K5ewjt9FPkehxN-35">
          <mxGeometry relative="1" as="geometry" />
        </mxCell>
        <mxCell id="p3jbJ6K5ewjt9FPkehxN-19" value="embedding&lt;div&gt;extractor&lt;/div&gt;" style="rounded=1;whiteSpace=wrap;html=1;fontSize=18;strokeWidth=3;" vertex="1" parent="1">
          <mxGeometry x="605.64" y="116.99999999999989" width="155" height="80" as="geometry" />
        </mxCell>
        <mxCell id="p3jbJ6K5ewjt9FPkehxN-37" style="edgeStyle=orthogonalEdgeStyle;rounded=0;orthogonalLoop=1;jettySize=auto;html=1;exitX=0.5;exitY=0;exitDx=0;exitDy=0;exitPerimeter=0;entryX=0.5;entryY=1;entryDx=0;entryDy=0;strokeWidth=3;curved=1;startArrow=classic;startFill=1;fontSize=18;" edge="1" parent="1" source="p3jbJ6K5ewjt9FPkehxN-20" target="p3jbJ6K5ewjt9FPkehxN-35">
          <mxGeometry relative="1" as="geometry" />
        </mxCell>
        <mxCell id="p3jbJ6K5ewjt9FPkehxN-20" value="&lt;div&gt;&lt;span style=&quot;background-color: transparent; color: light-dark(rgb(0, 0, 0), rgb(255, 255, 255));&quot;&gt;&lt;br&gt;&lt;/span&gt;&lt;/div&gt;&lt;div&gt;&lt;span style=&quot;background-color: transparent; color: light-dark(rgb(0, 0, 0), rgb(255, 255, 255));&quot;&gt;&lt;br&gt;&lt;/span&gt;&lt;/div&gt;&lt;div&gt;&lt;span style=&quot;background-color: transparent; color: light-dark(rgb(0, 0, 0), rgb(255, 255, 255));&quot;&gt;&lt;br&gt;&lt;/span&gt;&lt;/div&gt;&lt;div&gt;&lt;span style=&quot;background-color: transparent; color: light-dark(rgb(0, 0, 0), rgb(255, 255, 255));&quot;&gt;&lt;br&gt;&lt;/span&gt;&lt;/div&gt;&lt;div&gt;Object storage&lt;/div&gt;" style="shape=cylinder3;whiteSpace=wrap;html=1;boundedLbl=1;backgroundOutline=1;size=15;fontSize=18;strokeWidth=3;" vertex="1" parent="1">
          <mxGeometry x="1005.6100000000001" y="514" width="138.75" height="160" as="geometry" />
        </mxCell>
        <mxCell id="p3jbJ6K5ewjt9FPkehxN-21" value="" style="shape=image;verticalLabelPosition=bottom;labelBackgroundColor=default;verticalAlign=top;aspect=fixed;imageAspect=0;image=data:image/png,iVBORw0KGgoAAAANSUhEUgAAAgAAAAIACAYAAAD0eNT6AABAIUlEQVR42uzdeZDc533f+c/TPQeOwQAgbhIgeN83KVKiLuvwyrQOS2A5cda12ViViuPU2rveSly72Qi8vOWtytbWblJbe1S5nKRStX9sCZRlO461sq1IcXRRBynqoMRTPEAAxDWY7v4dz/P97h+/7kGjOQAGM93TPxDvV9XUYA7MgN2c+X6e73NNCAAAXHImeAgAACAAAAAAAgAAACAAAAAAAgAAACAAAAAAAgAAACAAAAAAAgAAACAAAAAAAgAAACAAAAAAAgAAACAAAAAAAgAAACAAAAAAAgAAACAAAABAAAAAAAQAAABAAAAAAAQAAABAAAAAAAQAAABAAAAAAAQAAABAAAAAAAQAAABAAAAAAAQAAABAAAAAAAQAAABAAAAAAAQAAABAAAAAgAAAAAAIAAAAgAAAAAAIAAAAgAAAAAAIAAAAgAAAAAAIAAAAgAAAAAAIAAAAgAAAAAAIAAAAgAAAAAAIAAAAgAAAAAAIAAAAgAAAAAABAAAAEAAAAAAB4GLxxMMTQdKUpLsajcavhRDukXR9CGEHTzWWwyWT++su/4FcP3T3p9z9y5JOfe7zMfEIASAAjLv475uYlvSRoPD7W3dsvfu+++/Tjl07dNnWLVq3cYOUjGcby0gA3jg1d2rv4UOH9x45fPgTr//8df3khz85HkL4l4/va/6LEMLxz30+8j8XAALAmEb9VwSFx7bt3P7Zhz71kPbceK2Ul71f4BIDNazAhtkN2rBxVtfeeJ0UGsrmW5u/8qW/3v/tb37nPw9Bv/X4vuZ/2H8glTxSAAgAq1j8zezGTZs3/eGDv/C+B2+/4zZNz6yXskJSqD4pBJ5lrLAL0PeipDXr1uqXPvWQbr79luu+/jdf//xzzz73e4/va/7R/gOp4MECQABYheLv7ldv2rzpDz/y0EcfvPX+e6Us7472XW5Rbia59X5zA8sTghQaCt0XqSk1gvbeeJ02b908G6R//uNnn2s88fDE/826AAAEgBEzs9m169b+9+//8AcevPWB+6R2JrnJYqaifUz58VdVdo4r5fPysiWFBs82llP9FSbXanLtJk2smdXEus2amtmp5uRaBZdmt23VQ7/yyxuyTvZ7z//0pWclfY3HDAABYHSj/4aZPXDZli1//+bbb5XyQhYz5SdeV+vQs4rt41JjQiEEKQSFiTU801hB2ixVzB9WceqQJFNoTGrtluu0bvuNmggbNLtxk26949arXvjZq7/7+D7/9v4DKeNBA0AAGM3of+PMzMzvfPCjv6A1GzeqPH5QrYPPqPPWS2pMTClMTPPMYrhdgBC6y0qaklztwz9WfuLn2rD7Xk1vv1Y3336bXnrxpQeefuqHH5P0xzxmAAgAI+Du2zfMbvj4dbfcqHjsNZ18+RsqW2+pMUnhxyoFguakrOzo5Cvf0IZyXut336Xrb7zh8u9+84cfIQAAIACMwBP7Jiabk82PX33dNfLU0smXv6HYPqoGo36stkZT7lGn3nhWk9NrtGXrNm3Zuv6mRz/dnnn0Cz7PAwSAADBEZrZz3fT6377r3tvUevm7KlpvUfwxvl5AaMotav7gjzUxfZV27b5yz09++OO7xWJAAASAIY7+H55oKuihnbt2XLX1srU6+L3n1GCBH8YdAhpNlZ2TmgiHtHXb5t0p6RYCAAACwHBH/5vXrV//3370lz+sk698T6ExyTOIWnAFTTdybZjMZ0KjcbPE6cAACADDGv0HSR/ddcWuG7dfvl1vfusvFQKXGaIubYAgK1pa00ya3bRh76Ofnlvz6Bec7YAACAArHmGZz05NT/3Tj3zsw+q8+dPqjH/O9kF9EoBSippZP62tWzft/fncyZskfZ/HBQABYKWj/6APXL77itt3XrlTh7/3danJ6B/1YibNrJvU5o3TV71kupkAAIAAsNLRv/tUs9n87z7ysQ8pO/S8Uj6vRnOKZw/1+v9U0top18x03ByTbuQRAUAAWOnoX7p31+WXP3j53l068vSfKDRZ/Id6Cl5owxpp7fo11z3+mXJy/5NcEwyAALD8X6oh/N57P/Ae5UdfVcznGP2jrv+nKsVSmzZu0M6dW686+OpreyU9z+MCgACwPDdv27H9E9def7WO/+xLjP5Ra2aujbNrtGXT2pt//pLuJAAAIAAsl+t373vg3qZnRxU7J9j7j5oHAGn9OmnLxsnLQqNxl2Sf51EBQAC4QE88PLFr0+ZNv3br7Tdr7pWvKjRY+Y+aCw15bGvz7KQu23bZ7Y/+ytFNj/6xn+CBAUAAuKDRlP2D2++6fWZSbRXzRxWaTbnzpKHOAUAq8lybN23Vzh3bbj9+5K3bxbHAAAgAFzT637Bm7drfvO+B+3Ti9W9LIcip/qg7l5K5Ltu6VpdtbF2ZF7qfAACAAHBhfu2m227atW7aNHfyzWpoRf3HRdIG8HJeO7atn9i2ffODj3765L969At2lMcFAAFgCYoi/tfvee+DOvnas9WxvyHwbOEiqf8NdeaOac/lN+qa667+0FNf/+6Dkv6EBwYAAeA8Ht/X/NBV11x10+bZaR169dVq4E/7HxeRmKI2TLmuumrn5p/+eP0vPfaZ9pcfedI7PDIACADn+uVZpt998IPva84ffk5uURKjf1xsXYCmslNvae/u67V7756//aNnfvKkpC/zwGA59n9Kt6WoB1LSu9y1OzTUsKjEr0Ys/Mpp6GCzoZ9MTOqrj39RT12UAeDxfc1rt2y97AO7r9im4899pzvwZ/SPi++nsTN3RFu3X6+77r1ry5uvv/7ZRz89/71Hv+CsBcB5PfaZxvpY2i+WUe9pBN2/+8ordlyxe/f2y/dcvmV246xCCHJzxkbo/cLR/Mk5vfXWW/OvvPjyG4/8ys+/1Wg0HnvkSXv+ogoA7vYbd7/rvpni5KuKZcHziouWp6TOyUO6+aZ79KNnrvyV7377h38j6X/nkcE5RvoPxlK/sWbNmnuuuePanXv27Nl2+e5dk+s3zGjdunVas26tNMlhaBis/0EqShV5NnP3g/ff8OPvPXPDX33pr+999NP+jx79gn/loggATzw8MdVuxV+/9Y5bm61X/pKRPy7un8nmhNrHXtXsjuv04Ac/sO7QwTcf+WcfP/qD3/8zfZVHBwOF/yOx1G9ee/0199921+1X7r5yd1i/fr3Wrl2rxpppyU0yr9ZCFQyMsHgImFqzRlPr1+v+9z+oDRs23PynT/7pv37008WnH/2Cf6/2AcDM/tb9771nV6M8ppi1WfeHi1xDZd7RycMva89179GH/rMPbfvzL/75P9//ydavP/4n3BEA6dFPh+tj6f/TTbfc+O477r3z8iv3XqmZmRmFqcnqXGl3qYxSaEih2X2t7uCowQOIPi7JpGiaaDZ12313K8/zK7/07770R499Jn74kSftWK0DQJHbP3z3+x6cah/5vswSzycu/lDeaKp15CWtvWyPbnn3Ayry/F1f/vdf/qP9n+r8xuNfJARc0qP+T+ofb9+5/bfuvOeua+64+w6t37BeodGsin5M3YIfJE9SdlgqDkv5W5K1q9/1zP9jofa71FwnTW6UpndKa3cpqKG73vOAThw/fudT3/jO3318X/l/7D+Q8loGgMc+07h/z1V7b5lZ6+HEa8cY/eOd0wUoOpp782faMrNVd77vweDu7/2rv/jLP3rkU53PPvZF/YzH6JIb9d9T5P6/3HHv7fd+5GMfnZnZMKOJqanql7irKvyxJeVvdIv+Ucmi5L0X40HE28W56v+X1ovS1GZp452aWLdd9z5wn37w/Wf/YVEU/0ZSPQNAWdpv3feed83mR1+SxYJ9/3jnRIBGU+0jL2l6/RZt3HuX7nrfg6HZaLz3//v3X/6LR36l/duP/bH+jEfpkhn1//qVV+/9/bvvu+uqG26+Uetm1ldFv1f4W69KrZ9J8UQ18vcoWeo7CC1U0wDAop2AJClJ+WHpyH+QLnuXNu26Whs3bbqhNd/aK505DVCLAPDYZxpbZjZs+OjeKy9vzr3wVzKKP95RgqSgk68/o8n1m7Ru27W6493vChs2zl79xQNf/Lf/w8fn/vX0dPPR/QcStwa+g33uk/on1954zT/5+Kc+sW3ztsvUaDSk3mC+83Np/qdSPClZqdMLoCn4uNDfNb0wkEvHvq6wZka7rtgVDh18874nHtYPPvf5GGsVAFKyX73trts3lXOvKRYdLv3BO/DnMigWuY6//B1NTK3T1OwuXXvTDfrN/+o3Nz39vad/62t//R//9iOfav+LicmJf/m5z8d5HrB3WPH/hP63G2+54bOf/MwnZ2Y3b+y+tyEVR+QnvyeVJ6vR/sLkPhP8GEIY8Khw7JuanZlUo9G8IsbYlFSvABCjfu3WO25bn731lCxFnje8Q38eG8pOHdOh576q7Td8QNMbd2j97AY98IEHp264+cadP/je049+8z9967959NPpjxuNxv+z/0D6ax60i98/+4T+7W133fK3fumTD03Obt7YHfUn+cnvS/MvSl4uPoIDVqwhFSc0qUlJvmHwUp2xB4BHPx1uu3zPFTdMqxXms/nu6J8fArxzQ0B+6pgOP/dVbb/hfZqe3aGmgrZu26oPfvRDU+9+/4Pbf/rjn372h99/9r/4H3/15bmU0vOS2BJzMT7VIXiRx2vueddduz768V9szszOVgP8/KD8+HelOC/OOsFqdAJidlLyM3cA1CIApOh/546779qcHXtZqSw4+heXRidg/pjeeOYvtOXad2vDjmsVGg01Gg2tXbtWd9x9R/P2u25vFnmx5tjRY9vMWPV9kRV+NZoNfeVLf62pNdPhww99RFXxb8hP/Uia+5FkOQMdrNb/kCrzttz9lMKZxXWsAeCJhydClqWPX7ln25r8jZdkKXHtLy4RDcVY6s0ff0Xt469py9X3anLNhoUCEkLQmrVrdPnuy/mBuMj42jX62p9+SWvWrtWHf+nDmt28WTKTn/iONP98d6U2TytWTxldLmVBNQoAKaU7r7nh6m1p/s1q9C9n8I9Lrhsw9+YLOnX4ZW264mZt3nOrmpPrFEIgDF+Mpqf03FPf14njx/WBD79fG7dskcpSfvybUvtV8QsO41CUSXKd1Ol9JzUIANE/dv0N183mJ15Tijntf1y6o0ZLOvrzZ3Ts1R9qZuseze64Tus276pOhsPFkeWaTZ06dER/9aW/1APvfbe27NwhxUx+9G+k7E1G/RjT/5hSUbpcetuik7EFgCcenmjkuT20a/vMjE4UsuSMeHCJa8jdNXf4Fc0deklqNDW1trr6FcNMW9UvxbPtNu5/vw/8PV/4nIFuZZAmJpr66jdf0HU33Knb7rxT8iR/6+sUf4xdGV3untUmAMSYbrnququuDp1DsrI486cLuLQDe3X4i7vKFmcDLZX54rX+jILuvnDirnVP4OtdsmfdjyU7/Wfr+7ibqmlKaeFjPc1m0KtvnNDMlr164H0Panr9Gvnh/yhlb/DEYOy/UMrSJK9RByBF/8T1N1x7Wdl6TV6WfTdcAcDoBv8LoWCg+C8U+74C7/0vkpK/vRsQgtTJog4fK3X/h+/Sxh07pMNf7875i9E/xp4AelMAn/t8rEcAMNc9m2aaM43MFNn7D2Alhf0so//+j7n7GcVdA8U/dW/fTXbm6L+6ldfldnoF1cLOzCA1g/TawTnded99uvbGG6STP5PPv1it9ucYX9RAWZrc1Rp8//gWAQbtsuyolEqO/gUwmgAwMG/fP6rvjfbNfKHQm0uWXNYt8sm7f89OTxtUN5V3v2pDmmvlmlgzq9vuuUdr1pv8tael1JLCJE8M6tAAUBlNLq9PAAiNMN05flBT63o/qIQAAMMp/osFgN5IX30hIPnpAJCSZPIzRv4L3QD1OgGn1wK4pOBBh99q6ZZ7bte2HVulI09J5QkpTPDEoB66a1rkKusTABS8LAuZTy26eOecP/BnfQMAIeDtAaDX/l8o4r3RvHl30d/pDkD/28m6r7vfpNcV6MmyQlPrNurGW2/TdPOwvP366WEXMP7Bv7xM8m5TqzYBYOEf535BUwA+0NJzD32LekgDwCU3wPG3l1tb+P3SK/beFwb65vu7q/1jr9An73YF+qYGFtYFhKqL0J0OCKGhQ4dP6bZ77tP27euk49+VrEPrH7VKAGVh1THAiwyXx7kGYKH4X2gAMElurmhSTFbN5fW27vCUA5fW6P8cHYHTK/h9YNV/3yi/b2RvfQEg2ekOQa97kPz0NsCUoqI3deXV12jt9DH5sSOqyQWrwIIierUAMNQpAGh5AaD3Q1smV5mqxF5EKXZ/cAFc2sW/9wEfmP9fmL/vDwCqCvxCq9/8zNa/m8xC93O7X6fbDWjNzevOu2/T1XtnpRM/kayUGoz+UacOQOguAFSmuk0BuJ8+mGPJAcCqYl9G18mO6+U3c7Vap6oFPAQAgCDgpwcLgx2BM3YB6PR2wNhd3d9b7LdYp6CaPqimAUJoatNa13XXX6sN61vyQ4flLPxD3eq/uscAu+aDQt06AJKbyX3pC2bMqwBQlKYjx0s99dqs7nvPPk4RBnDmwEL964x62wCrEbzJqu1+Vr0vJatem8nMqrfNu1MAqfpzqtKChQllJ17X3ity7b18Ruq8KbcoNaZYlIza6a4BmK9fB0B+xvGa5/uh7nUAyuTKS6ndyXXd9Q/odx79VzzLAJYsSkpRKsuklKLKslRZloplVFEWKotCMUbFFFUWpcpYKsYoN1eYXK+ffe0PtXviB9q0Mcnn3mTbH2qriIsfAzz2ANC/Kve8ib77+TFWLY2sdHVKKcsySVKn0+GZBi650b4v+j7rHtVnZgvrjKqRfTrjJcaq+Pdel2WpoiiUUlp4f+8lpSQzqcjbOvnG07rrNtfkZCYr21JzmicD9Qy71RqATq06AEFB7lX7/7wBwE7PzRVRynJTOzd1clfejMrLpLm5OZ5pgOK/UPj7A4B1W/v9IaC/uBfdEX9/GOh/3fs7pkkdf+XbunyT65orL5PmXpOajP5RU6F3E6DatesA9Fbkni8A9Ip/GavWf2lSVkhZ4conoo4fP6W5kyd5sgECwNuCwGAA6C/o/SP/XhhY7O3q802lNzT35nO6+8ZSm7Y05UePs+8ftVaUJjefU93WAJiWGABMKs2VJ2mu7fr+ix29eTjTwaNSa/oF/fmf/5na81ybClzKxb/3/hDCGVuM+19SSguve92AGOMZfx7sEPSCQ5lcTevo2um3dOWuWQU/KfPAoX+odQugKF0mtWrXAZC6yXwJUwApuspSOtkq9cqpTfrE3/tt5THJmjO6YtcOxbiZ5xq4xINAfwegf+5/cA1AfyegN8Lvjfx7b58x/x+joibVef3b2nOFtGf3ZdLcT6VGkycBda7/KqNJ8nqtAVCo/jlL6gB0L+qI0ZUVUdu2bdev/+Y/5ckFsGgoGCz8vYLfX/T7F/3leb7o67Isled51f4vo06GH+na3R2tmQmyQx2puYYHHLUWk0umtmo3BeBLnwJIpu7Rv5KlWP2Hddtz/XN2vRYfVwwDl2YHoH/+/1yL/3oFvhcCeoW/V/R7CwPzPJd5Q+2jL2pH87iu3rNJ6hxm7h8XRwegTDKpZncBSFVvf0k/5NUPdu+YzoWTvswWfnDNTJ1OZ2ELDwEAuLSKf//7lrL6v1f4F+sE9EJALygU1lDrjR/p9mtb2nnlVfK3XqT9j4tCXppcOhVCjToAp6/jPP8RvgufZ6eP5Ox1AIqi0Ouvv66vfvWryrKM4g9c4qFg8I6RlNLC68FAMDjfPzj3Xx0GZApe6vp1B3XNldvVDC2ZJanB9j/UvQMQFKPLzbPFPjy+/4O7F3H0rtw8X1hwefX53bckLaT0gwcP6siRI/rlX/5lnnDgEu8ADC4APNvCv960Ya/t39/6743+y7JUkZpqH3xa1+9o6obrLpdOPselP7holKVJrpZqdxRw9xxuW9IagN4tXKc/vyxLZVmmLMu0fft23X///TzbALq/N+xt2/v65/V7hb/3O6TT6SjP84W3qyBQqN3pqEwN3XT1Rq2dbcgOzskbUzzAuAg6AN3rgKX5z30+1igA9K7mtL67u8/yqam//d+9o7sXAHprAGKsFgYWRcGTDlyiXYD+uf/efv/+ANA/0h8MAIMvRVEoj9Kpgz/RTntFN15/g9R+Q87Gf1xUHQCXVx0A1SYAmEvRXCm50nk6AMlUfV739q5qQaDO+IEenO8DcGkV/8EDf/rn+wf3+vdCQS8E9AYSvT/HGJUXpbJ2W832y7rpho3adsVlsoPPVhf/sMwIF8UPyRm3AdYnACSvinoRTx8EdLafqdg9BjimbmgwV1GmhR/Y/tO86AAAl/bo/2wdgN6cf/+Wv96f+9+38P7S1T76gi73n+m22z6oRvGWUopc/IOLKgHEZFJ1GVCNAoBJeSlNNM+/CyCm6hKgMkpFqtYD5Hl2Rhuvf14PwKU3+u8PAIMLAAcv+Om1+IuiWJj7z/Nc7Xa7CgJF1PzcUa0vntP9916vrbs2yQ4+zeI/XDRCkBS9t/LPahUASgsqomui1MIUwNl271VhoXsRUOkqk6ndbqvT6SjLsoUQ0Gq11G63eeaBS3D03//n3nbgwbP9B0f7RVEszPn3QkCW5cqyjrI3vqXrNr2qu97z9xTaz8vKOanB6B8Xj1ia3L3QWRrs4wsA0dUpuvP2vtCtWPw/wqU8d3UKqYhBZUqaPzW/UPB7P7ynTp1Sq9XiWQfeoUU/hPC2ADB4/v/gXv/eGoD+m/76D/xZWPjX6aiIUVke1Tn0Y+1p/EgffehTmmrmSidfqOb+gYumAxCqmwBd85JSrQJAHqVW4UrSwul+fpbFtSlVHYBOIXVKU2GmEydP6NSpU5qfr4JAp9PRyZMnCQDAJTT6X8r1v4OH/fQCQP/pf3meK8tzFUVSeewn2pF9Tb/48Q9ozw3XyI4+I5XHGf3j4usARJO7stp1AIootTNXSlUH4FyH9yWrAkNWVC+5mY4fP6YTJ06o1WotdAKOHTvGFABwCRT+wfefLQD02v9nOwK4Nx2Qdff8+9FndEV4Wp/85Ad1073vUmgdlM1x8A8uwg6ApDKZ3H3RQ4DGGgA6hXQqk/JYbek7/cP89s81rw4zyEqpnUu5Jx09elTHjx9Xu93W/Py82u22jh49qk6nwzMPvMMKfwjhnGf/9xf/xaYBBi8OO30HQFQRTUX7uDa1vqU795ruf8/HdM0tt6pRtGRzP5NimwCAizIBFKfPAKhXAGgXrvlMmmj6ovcB9P+sm0tlOj1t0LGow4ePaO5EVfDn5uZ06tQpHTlyhAAAXCIj//MFgP5tgFUQOB0GyphUlFHeOax188/oiuYhffjD9+v+996vyclJBYuy1ovy1ouc+Y+LVncKYF6hZgFgoiGdaPtCAPBu0X/bj7pXUwS9rYDzmdQ205G3jurU3Anlea4Tc/Nqzbd16MhR5RnbAIF3WARYpPD3XttCEFj0HoC+LkAjPyK3qFDOabJ8SxvtkPZsCbr/g/fqtjs+pTXr1qnZbEoK8tar8uPPSKFRDaWAi7ADkBcul7ekUJ8A8Ae/OrHluTdtw5pJ14Zpac2U1AxL/RXQlOuEmj/6A02ruiRoV3BpRmo8+xWt44QuAAO/OVzSjh3b1Ww2tGnzJu3YsU1XX3e/du3epUYIajQaC8nC26/Kjn5DVde0wUOIizYBpKoD0A7jXAT4xMMTQdIuSZ8xs7+7YdPmO/bdvXd61+U7tXXbNm3fuV3T01ND+VEnqwNY/Pdh6L4KCpJCo3HmcMmTrPWS7Pj3JE/8NsFFr0hjXAPwxMMTDUmXmdk/2rR50+/cdOtNm++4+87G9p3bFRoNBfeFH0oAGJt4Sun40/L2z6XQpPjjndAAUJ4nufvcqgeAx/dNTLv7398wu2H/rXfcuv09739QM5s2Vpv6BxI5AKye3r5jl4qTsrmfyjqvdUf9TS76wTvmf/NYdQBW7xyA7qj/6pT0v950242feOiTD2l26xapLLvFP2jhLmB53w8jAIzw92Fxsvp9k+bl+Ql5dlheHu/+TgqM+vGO6wCU0eTS/Kp0AB7f12ymlB7csWvn/3nfu++75Y67btfU+vXVLT5SN2G7vDgpz4/I8xNSnJOXc5KVPGEAVuc3o9TtQLLID+9cZely92zkAeDxfc1GSvaxq6+76v/64Ed/YfdVV18lNRtSjJJMXszJ26/JWq9I5dzpH8TQTd6hybMFAMBQcu7CXQAnRxoAnnh4IsSYHrzyqj3/88c+/rHdO6++WiryquUfT8nmnpedekGyojpUg2IPAMBoOwBxFXYBFEW8bsfO7X/wgQ998Oadu3dLZSHFjuzU87K5n0gpr47S5DhNAABWRazuAugojGgR4GOfaa5LSf/4mhuued/VN15ftfTbR5SOf1eevVldoUnhBwBg9QSpLE1ytcIoOgBP7Gs2YvK/c8vtN/2D937og2pOT8pPvCQ79l15eVJqTPEkAAAwBmV0mTS///Nx+B2AskzXbN+57bPv/9AHNLtjh/zQD6ribxnFHwCAMXYAuosAW2f7lGUHgMf3NSct6VNXX3ftg5dfuUd+7GdKJ56RUoeWPwAAYxajS+7toQeAskzX795z+X95/4PvlnRK8ej3pfKk1JjmUQcAYJzSwkmA5VADwBP7JkIR7d1X7L3yjq27t8he/xspOyI114hzNAEAGJ8QJIsmyV1h8QWAyw4AKaUdW7Zu/sQNN10vtX6udOolKUxxpC8AADWQl0nu6lS9gCEGgDL6zdu27/jo3r1b5G89VRX+BudoAwAw/g5AUKwOAWqHc7TlLzgAPL6v2UgWbt2ydfOGqamWytabUpN5fwAA6iLG7iFAGuIUgJlt3XzZ1vddecWsdOKnHOsLAECdOgCq7uBzO/tNgMsLAMl3z26cfe8V29fJ51+uzvYHAAC1SQBFNJnU0jDXACTTzjWTcffshlLxqNEBAACgdh0Ak8lbQ+sAPL6v2TBvXLVxfZDiEbkY/QMAULcEEKNJrraGtQjQzNev37Duxm3bZqVsrtpsCAAA6lP/u7sAzLwzzHMAZiYnwuXr1wbJA0f+AABQQ9U9AD4XFIa0BiAEyWNQzCRNilP/AACoYQCICxcBDacDEKRoMbbKIuue+Z94lAEAqJOg3kFAQz0HIJp5FmOqBv80AAAAqBfvHQQ07ADg3i5Lq/YZAACAmnUAgorSJfchHgQUVCbzVpkY+gMAUFdlNJnrlIa3BiAkM2UxOh0AAABq2QGQyuhDvwsgunsnJhMJAACAeuquAWiHYZ0DsP9A9Mf3Ndt0AAAAqK/uFEBr/4E4zMuA1GYNAAAANRWC8tLl7nPn+rQLvwzIvR0juwAAAKirdHob4PACgLvy1O0A0AcAAKBuXLGq09lQA4CkmMyl6NXJwKQAAABqoTqx32VVcU5DDQAhqDBzxZgUFOT0AQAAqEsEUFEmmcl0ji2Ay+8AJMUYNdFsiHkAAABq1AEoo+Tu7aF3ACSV7p7HaBMTU00ebQAAaiSW3QWAYcgdgFCtAejE5OvZCQAAQI06AJKKtHAV8JA7AEGlmdoxOvUfAICaJYBYnQHQ1ijWAJhxFgAAALXsAFSnAM4HDX0KIERz78TkCgpiFSAAADUJACEoVhcBjWAKoOoA5DHRAQAAoG5itQYg09CnAIJiMrXKWL3J+B8AgLq0AKQiuqxaBDj0XQCFmbdiSgp0AAAAqJWyTNVFQGH4UwDJzPMy8SADAFCrBsDCQUCjmQIozbwdS1OgBQAAQL06ANHk5u2gMPxFgO7KUvJqAQCLAAAAqEcHwINSMrnUOV+FXs4agDKat8poPNIAANQqAUhFYTLzOUlxuB2AoOjm7RidbYAAANRMdw3AKM4BCDG58mR0AAAAqFsHoExJNoqjgB85ENPj+ya6HQBaAAAA1EmK3rsNcLhrACTJzDtsAwQAoH4dgN5dAI8ciKMIAGqX3cuA2AQAAEB9EkBZusx9/nyfubwA4N5JkdIPAEDdOgCx2qafjSQAuLxM5gz/AQCoEU+u5C65ypEEgKBQmrmq0wAlJwgAADDewX+QYnUKoBR03q16E8v8PkUy9xg9VAsBSAAAAIw5AqgoXGZe6DxnACy/AxAUzaxIyaYnJhrUfwAA6tABSCZJ7ZEFAEnRTFnsBgAAADB+MZnclQWNbgqgNFMnRm1srFnCdwEAACPVCFIsXWZ+3mOAlx0AQlBM5p2YuA8AAIC6KJPLTS2F0U0BFGbWLpNJCnL2AwIAMF4hqChN5t7SeW4CXH4HQKG3BoAHHACAmojJZO6d0a0BCIrJlaXEfUAAANSkAaCYXC51NMJFgIWZtWKkAwAAQF0UpcnMT2l0UwCKZp7FaNUaQJYAAAAw3g6AqpMAZaM8ByD0tgG62AYAAEA9xOgy984odwFEM8+TOWsAAACoQwcgBJXRZa5WUBjROQBSmczbMTrjfwAAatMBMHm1DXCEiwCTt8pkzAAAAFCHDoCkIppsxGsAornylKrVf6wBBABgvDxUawC6HYBRTQGEaO6dmIyDAAAAqEkHIJrJXJ2RBYD9B6I/9plmp0ysAQAAoB4JIKgsXe7q7D8Qz9ucX+4aACXzTuIyIAAAatMBKGOSuc8t5fOXHQBOnwMAAADqkABSktzUGWkAcK9OAnRzVgECADBmZq4ymlyejzQAKCiaVWkjBMkJAQAAjGfwH6QUvVeL01L+zrIDQFAokrmqK4GDaAMAADC2CKAymsxcQSEu5W9MrOC7Fck8xejNZjPQAQAAYIwdgKK7A0BBIw4AQdHNi2S+ttEMjP8BABgTlxSTVRcBLeEY4BUFgCCVqToMaO3UZINHHwCAcXUAJJXJ5b60Y4BX1gGQSkvqxCTOAgAAYJwBoHsMsJm3w+gXAapI7u2UjPoPAMCYVTcBqiWNfg1AacmzmFwhsAsAAIDxdQBC1QFwbymsxhSAeZ6iVbWf+g8AwHh4tQjQXblWZxGg2mXiQkAAAMbbAZDK0mXmLUnlaDsAIRSWrB1L45EHAGDMytJk7qfCyNcAVN2GPJnTAQAAYNwdgORyU1urMgVg3onmcnEQEAAA4+IKiinJXJlGfg5AUHT3PCVnGyAAAGPuAMTo8tXYBRCkPCVvxWgcBAQAwJjF1DsIKKzKGoDqHAAedwAAxtoBKKPJqoOARj4FUJp5ZkYHAACAsQaAbgdgVe4CeORASo/vC1kZXYGDgAAAGB8PvTUA2f4DcbS7ACQpmbdTdE4CAgBgzC2AMprMNL/Uv7KiAGDJ2zEZ9R8AgDFqhO5lQNVJgKsQAOR5NMlp/wMAMDbu3TUA8nxVAoBcRTKXmbMEAACAMYnmSu5yqVidAFDdCKiUquOA6QQAALC6QuiO/qulf2mpf29lASAoT8lVJlO1CYEEAADAKkcAlWWSuSct8SKgFQeAoBDNPJppotmkAwAAwDg6AMkkN3WCwup0AEJQmcyyFG1motnkWQAAYNXH/9XRvGbWWeo9ACsOAJIKM3Vi8plpiRkAAADGIJYmq04BXJ0pAEllqgIApwEDADAmZZTcvBVWbQ1AUJGSZTFZ9zRAWgAAAKymRjUf3+sArNoUQDTzPFlV+Cn/AACsLpeUksnMs1ULAEEqzT1LidIPAMA4hCClJLlrFRcBhpDF5O0YnfsAAAAYk6I6B+BUkMrVCQDVSYB5NOPRBwBgTB2AMrqsughotQ4CUjSrpgDoAAAAMJYIoGQuc63eGgAFlWbqLgIkAQAAMI4OQIxJ7r56awCCVCSzToxWlX/WAgIAsLpcitFltroHAeUpqZ0Sjz8AAGPpAKgKANVBQGGVAkBQmZJ3YjLRAAAAYAwNgFDdBZBW8yCgRw6k8omHQ5GSswQAAICxdACCYnK5e7b/QFy1KQAl8ywZdwEAADCmBKBY7QLoXMhfW3kASN4qy95dAAAAYJXrv8rSZOZzqxoAzLwwYwYAAICxdQCiy93zVQ0ALmVV64ElgAAArDYzVzKXVwcBrV4AUHUcsHpdAGIAAACrNPgPkpnk7goXsANgKAEgSHlKrljaQksAAACsSgRQWSR1d+OVF/I3J4bwvYtk7sk8NEKQkwAAAFi1DkCMkrkKXcApgMPqAJRmXiTz6TARxFIAAABWh0uKZtU9AKs9BSCFPJl3YvLpyQmeDAAAVq0DoOoUQDPvhFXvAAQV1j0MiL2AAACsbgIok2Su9uqvAZCKlDwrI6cBAgCw6h2A6hCgti7gIqDhdACkIplnZsYzAQDAagaAUN0DYO7tVZ8CUFA09+6FQJwEAADAakrJZKa2Vj0ASHmK6qTEEgAAAFa3BSCl7k2AGsdBQNGsHaNVAYAGAAAAq1P/XSpKU0o+r7DqUwChNFdhRuUHAGBVA0CQYqruAQhjOAioSMmy0kxOAwAAgFXjCkpmsvEcBKTCkndScoXAKgAAAFatAyApxuogII1hF0CRzLOUGPsDALDaCaDaBqj2qq8BqM4BUFZ1AHguAABYzQ5AGV1m3g4aw0mAZp4nDgICAGDVE0BKJnd1Vv0kwEeeTPb4vpAn4xwAAABWt/4HRZPMPNt/IF7QXPxQ7u9LyTsxkgAAAFjtDkB1F4C1LvSvDicAmHVicgUP7AMEAGC16r/3rgPWeAKAmQozifoPAMDqcUkpSS7lYwkAqhYCyqy6EpgQAADAiEf/QerVXl3gDoChBYAQlKdkSuYiAQAAsCoRQGUymZt0gYcADbMDkEVzVRcCBTkJAACAkXcAYnSZycIYOwClmZKZN5tNFgIAALAaUnUKYH6hpwAOswNQJrM8JV/XbPKEAAAw8g6AqkOAzCzT2KYAQigsqZOS1gWuBAQAYFXEJJmprbFNAUh51QEwKTRIAAAArEIHIJZJZt4KYUwBQFUAyGL3PgDKPwAAo+XdBXhmnl3oPQDD6wBU/4a82ovIPkAAAFalA5Bc5t7WGLcBFsm8SMaVwAAArJZkLnfPwrgCQJCylLwdEyN/AABWpQPQOwcgjXERoIKKlDynAwAAwCoFAHUvAnJvaXyLAENp5nmiAwAAwKolgGSu5J4HKY0lAAQpS+5Z6l4GBAAARp8AulcBdzTmKYAsRaviAI0AAABG3QBQKl1m3tEYFwEWKVmWUnUNEPUfAIDRcklltGob4BjvAshTUhZNLAIEAGCVOgC9o4CDwnimAB55MpVPPBxK654ECAAARp8AkpncPd9/II6tA6BknqXEIkAAAFan/ofqOuBqDcAFG14ASN6KyUUCAABgFQJA6K4BMD811gBg5qWxDRAAgFWTzGWufKwBwF1ZdSYxTwgAAKPm7rKq7o43AEgqzVy9w4DIAQAAjEYIUjLJqt13cTlfY2KI/5hOSq4Uu6WfBAAAwMiUpSmZS1Ix7g5AHs0VzdUIQU4CAABgNB0ABZXVDoBSyzgGeLgBIKg089zMpxsTHAcMAMAIE4BSdRNgJ4QxB4AgFbG6Enh6gqcGAIBR1n8lk9yUS2NeAyApN/Msmc+yFRAAgNEmgBhNybw99gAQQshS8iwlkwJXAgEAMMoOQKwOAWqFGiwCLJJ5kYzDAAEAGHUCSOZK7rnGvg2wOgeg4EIgAABGXf+DUjK5eUfLuAlwuB2AoCwl66Tk3TuBmQIAAGBUkrnMlEnj7wBkMXknJpdcHAkMAMAIldUiwBqsAQihMFNhRuUHAGDkHYDkMveOxn0OgKSyWgTo1QwAAAAYieocAJeZ55LSWANAkLJkniXWAAIAMOIEEBSTy13tUIOjgHMzzy0xBQAAwMg7ANVdAB1p/EcB5yl5lswUmAMAAGCkCSAmUzKrxRqAorcGgB2AAACMsP57dRmQu7Iw7nMAHnky2eP7wsIuALYBAgAwGi5XMslM2f4DcVkVd6gX9yXzTozcBQAAwEg7AKF3DoC1lvs1hhoAYrLMzLkLAACAESeAlExm6tQiALipSOZyTgIEAGBk3KtdAO6e1yIASCqSSRwGCADA6FgyparYFsv9GkMNACEoS8mVkikEugAAAAxbCFJMLjMphFAud83dsDsAeUqm6jRAbgQEAGDoAUBBKUnm7lrmIUDDDwBBeTJPyazZDEFOCwAAgKHyhQ6A57UJAKF7GJCZrW1ONGkAAAAw9A6AlMxk5lkIdekAKFQXAiWtnZzgSQIAYBQJICaXuTJJsR4dgKDckhecBQAAwOg6ADG5knlLUm22AebRPI/mcrELAACAYfPuPQBmnofarAEIyi1ZnpIpiOOAAQAYfgugOgXQk3cUQl3WAKhISYVzEhAAAKOp/5LMpOTKVZs1AFKW3LPkXp1UQAcAAIChi8nk5q1Ql5MAFUKWkmUpusR9AAAAjCgAuKJ5R/XZBqgyJpXVSYAAAGBUAaB7EVB9pgCsOghIYhEgAABDF+SyahdAJ9TqKODkebQqDVD+AQAYLg9SNCmZMtXoKOAsmeeWnAYAAACj6AB4UIwmc+8o1GURoJQn88yckwABABhNAqi2AZqpXZtdAI88mconHg6lmUmBFgAAAMPnSmZy92L/gZTq0gFQMs+TMQMAAMCoJHOZeWclX2P4ASB5lpIrOKsAAQAYhRhdyXy+VgHAzHPjBCAAAEYiSEpmMlO9OgDuyi25nOE/AABD514tAtQKtgCOJAAoqIzmSkYIAABgqCU2SIWZUnXpXr0CQJBaMZpSqrYCMhsAAMDwWOkyc4UVnAEwqg5AUe1P9OpCQAAAMKQSG3o7AFLtOgCqDgMqk2uyyUYAAACGpjoG2GXumVSzDkBQyKutgDY50WzImQMAAGBoUjJZUh7C8m8CHE0HIKiTzAruAwAAYMgl1iVLrmTermEHQFlK3AcAAMAIBtmK5kruHSnUbBFgbw1AdxsgWwEBABie7iFAeajdNsCgPJnnZi5aAAAADDkAJJeZZwr12wVQmKkwYw0AAADD1t1qn6t+BwGFdkyexeqUIuo/AABDrLIxmZKpFaS8Xh2AoMLMS0+94T8RAACA4XCl5HKv5xRAbuaF+cK/FQAADGWMvTAFUEg1OwcgSFlvEWCobgPgGQMAYCjj/+5JgKZOUP3uAshj8qLaBkj5BwBgmKPslFypnkcBKzPz3MwUiAAAAAyxxrosmcyso7rdBhhCyMy8SFa9zVUAAAAMiS9MAeRBoV6LAPcfiPbYvmbZOwYAAAAMrQWg5JK75/sPpBWV2VHsAlBKypKZQmAKAACA4dV/V4quZGqt9GuNJABUJwF236D+AwAwtAhQ3QXgnXoGALfCzOVG/QcAYFjcJTOX+8oWAI4sAEjVXQBsBAQAYFhj/95NgC6ppgEghNCJqTquMIidAAAADCMBWHKZu0KobwegnZIrcSEQAABDE82VkmrcAaimAMxMjUaDJwwAgCHU1ioAVPcA1LYDkCX3wmVrQvc8QAAAsJIEELoLAD0PK7wJcHQdgKDMkheWtEYhsAgAAICV8moNgLsyKdS2A9CJybOUfNYnqf8AAAxDd4F9W1Je0w5AyFPyInlvGyAJAACAlRVXKVVrAPJQ6zUA5oVZtQ0QAACsuP7LzGWuTKHWBwEpmlXtf6YAAABYGV+4CdALSbGWASAEtaN5ZuaiBQAAwHBaAJYkM7WDlNW1A5CZeWHu3U2AtAAAAFhh/e8dBVzfKYAg5Qs3AlL/AQBYOZfMJHPlUk3PAVBQFs2LZFwHBADAkOp/7yTArM67APLeFAAtAAAAhjC2Dr1dAJ6pxncBZJa8cHMFFgECADCU6mrmclOmUNeTAEPIoqlIbAMEAGA4vHsSYJ2nAIJUuHnhVH4AAIZWXM0kN3X2H4j1PAdg/4Hoj32myRoAAACG2AJwd5l7MYyvNqpFgEqm3FL3HCDqPwAAK2sAuFQmVzK1ax0AzLw0ZxsgAADDGf+fsQugvgHAXXmyql1BBAAAYKV11eXVAXvlML7eyAKAgvJUnVkMAABWVFKrHQCxumMnr3cAkNqpmqvodQQAAMAyE0CyalAdVPMAEKROMndzDw0OAwIAYEWsugjIpFDvXQAKIUvVWQDTXAkMAMCKBtUy7y4AHMJNgKPuABRmimaabjZ48gAAWElRtWoKoAiq+yJAqZOSF5Z8vZqBNQAAACyTu9RdWN9R7dcABLWTe27y6gojAgAAAMtsAAQlT0rVGQC13wWQm3lpxjkAAACslJnLzPMQ6j8FkCdT2bsNkCkAAACWx1VtA3RXLtV/EWBmpqLasxjoAgAAsKIOgGTm9Q8ACmqnZLm5SWoQAAAAWP6gWpZMKakdpE69A0B3CsCM0g8AwEq4S8kllxeq+xqAIOXWDQC9fzwAAFie7jkAuep+DkAIoZPMCpMpcCkwAAArqKnVUcDJPA8Ktd8GmCVT4cYuAAAAVuKMg4BqfxtgUCf1TQEAAIDlS9U5AJ2L4TbA6iAghv4AAKyspgbJXDJXobqvAdh/IMbHH54o3aUQWAMAAMBKuLvcVOx/Mg6loI5yDYBS8jyZswYAAIAVVX8pJldy7wzrS440AFjywlkDAADAymuqLdwGeBEEAKkwp/kPAMCKa2pVT4thfb2RBoCgkCX3at6CGAAAwLIkr24DDBdLAJDUScllyRXoBAAAcOGD6SBZcpm5NKQtgKMPAEEdS1XbInAhIAAAy9Kd/9ewDgEaeQAIUieZR3dNhMATCADAciSXkqkMF00HoLoRMJpVAYCtgAAAXPBguuoA+PAuAhp9AAjK3Lw0tzVN0QIAAGA5CcDM5eaFLp5dAGrFpNxcG1gCAADA8iSTkqkdgtoXRwdAys09UfkBAFj2YFruLnMf2j0Ao+8AhOpK4GTV6J81AAAAXBivFgDKTLkuonMA8mReOpUfAIBls9MdgIsmALQsqaiuBGYRIAAAFywEWZLM1A4hXBx3AaybCp3kKq3bAKAPAADAhUtebQPcMH2RdAC+9lMrPnVvI7p1qz8JAACAC+OSm2v9lPJ/881Uy4OABnv87q4smkqWAAAAsHzWPQnQXbEOASAs4TM6Zl5UiwBJAQAAXHCx7R4EZO4dhZB162l4e59gtAEgXMDH3U1ZTCqTuVxB7AYAAODCVNsAXTEpcz/rXQDhQsPAUgNAWNb7uucAuLMHAACAlYUAFdLCFMC5Cn5YShBYSgAI53g7nON9VkbFMiq5V/94GgAAAFx48XeTylJFmVR062zjLAXeB+qxLycAnK3wD75u9L3d/7Ewn6ts5x7NXGapussYAAAsmVmQuatdeHzqJXNJkwMFvvfaFxn9nzUETCyj+Pe/9Bf/Rt/nNyQ1v/68FffsDaW7y5LLEk8kAAAXFABCtQ3wzZOeDdRuP8dLOF8IWOoUwGDBb/S9PdgB6H9bB0+4NUQAAADgQrmkiSA1g+v5Q96b/5/sfsgGir51X7SUEDBxntF/OMuov/8lSGoOfHzh8/OkMiUpJVdiCgAAgCULkmJyuUlZ6an7rilJaaDoe1/tHXzfoiFgYonFvznw52ZfAGj2fbwxEABmgnQsK8yK2GjwVAIAcGEBoDApLz0phFOSr+0GAOuGgNRX8AfX4qVzhYDzrQEYDAGNvtcTfcW/OdAV6AWCy/KoF47P+9GZtb5tqlmdZgQAAM6v2ZA6hXSi7W+kpNckzS4SAJKq7YH9g/jUrcemJSwCXGzhX1iksDdVzT/0AsBE358HP2/NC0f82ecP+WvbNvq2ienudgaeUwAAzjv8Dya1c+m5g/7sGyf8p5I29o3ue4W/V/z7jwke3BWgwS7A2dYALDbn31/8J/tCwGRfEOjvCExImnjxkJ96+hX77g07dNuay8Jko0EXAACApYz+i1I6fkqtp160b7x6zOclbegW+l7x7592Hyz+/S8LhX+xDsBiQWBwwd/kwMtUXxCY6Ptzo+/jsz94zb523Y5wx4Y14V2za6svTggAAGBxjVBdAXyyJf/OS/bln71p35C0rVvAe8W/HBiwn634+0AH4IwAsNghP/0r+gdH9r0AML1IN6A/DExJWnvwhOzfPW1/NTmhyx64Jlw7My01umcYkQMAADizCEeT5jLpmy/4N//0afuTQ3NKkma6RT91XzcWKf69BYGNgddLOgdg8IS/s4WAqb4iPzUQAqb6AsIaSTMvv+XHn3zKvjLXbti9V4VrdsyqOTlRpZxG4K4AAMClLVXn/auI0qFT6nznZf/Wl35gB9444UckXdYt+k2d2frvPwMg9dXp/uIf9PZzAML5dgH0b+vrXwtwtqmAXgiY7r5vWtLa7uuZnx/1U//vt9M3fvRGY+7OPWH3tdu1adO6ML1h7ZnHCAIAcCkxl07l8hNtP/X8mzr4g9f96R+8Zv+plemEpC2SCp25y26w5d+bFugFgNRXu9NAbT/nNsBBgwsBF9sRMNHXGZjQ2xcLTkhaP5/JvvmC/eQnb+jInssa22bW+rq1U1pHEwAAcInoH7V7qG77LbJSJ1u53nrlqD13sq03u7V2tlv831bA+0b8g/V5cFHgYh2AJV8G1P8FG+d4GTwroDHwjVMvIJzsqHXydWsv8o8lCAAA3qmFX33Fv7eFr5CU9b2UktZ3398b1dvAS9LiJ/MuuZ5OLKHghiV8bLFv2D8nkbr/Ib3When09sEmAQAAcIkFgN6guP/I3obOPMp38AD9xiKj+mXXzQm9/aCApbYuzrXNoFf4e8kl6/ucotsFGGxXUPwBAJdaF6A3SC67L3m3Tvbe7n188PIfO0sNvqAAcL5CP/gNB1sQvZf+RQeDXycOdAEmtPhcBQEAAHApdQH662mp0/v748BLGggEpjPvAeh/8bN8vyUFgMG/PFjwo85cbdg4y+f2f07/CsZzLVRwwgAA4B1Y9MMi9XWwEzA4uE6L1N7yHCFhMAwsqwPQzwZG+b1/QGOR4t9f+Pu3LAz+uXGeQk8AAAC8kwLA2d7fP3If7LJrkRBQLvISBz7PBmp4f+BYNAD4wF/ov1u4/9zhxkCB7n28/2KgsMhIf7H5/kDhBwBcgkHAF3m92Dz/4DTB4JqBcqALkBbpArzte0/0fSAsMuofDABhkeKvRYr/2bYmMNIHAOD8nYFzrb3rnwoYXDAYFwkO570OePCbDx4x2CvW5cDnmc68CXBCZ54eGM4SAFwcAAgAuLTZWepj//RAfzHvH+UvtmiwvwNwtt16Zw0A/cXfBop3Gvi8/vmG3mh/MAD0j/IZ7QMAsLSuwGKdgKS3z/eXevv8fzrH6P9tRwH3TwP4OdJJ/z+mf1Fgb5FfeY4AIIIAAADnLf5nCwCmc+8W6P+cc54TMHGW0X//26YzpwMWSyOLHQu82BY/AACw9DDgSwgCi60TOFvxP+sugMXCQK/Vf7YQ0F/0pbfvEiAEAACwvE7A4HqAwS2DrsW3EbrOvuvgrAFgcCog6O2LEfqLf39AWMq8PyEAAIDzF38N1F8NBIHBAfnZjudf1Pl2ASwWAlxv3yXQf5FB0vkX/RECAAA4d/EffP9gJ6A/GJyv8C/5KODFQsBiH+9fI9D/DyEAAAAwugCw2PuXXPzPFwAGQ8DZvuj5Tvaj6AMAsPIwcL5LfpZU+JcaAPq/QDjL+/wcn0cQAABg5V2ACy3y570eeGIZ/6hwId9gOf8oAAAwlIAwlACw2BcPFHgAAGodCoYWAM71TWnvAwBQw4I/7ADA6B8AgIvQBA8BAAAEAAAAQAAAAAAEAAAAQAAAAAAEAAAAQAAAAAAEAAAAQAAAAAAEAAAAQAAAAAAEAAAAQAAAAAAEAAAAQAAAAAAEAAAAQAAAAAAEAAAACAAAAIAAAAAACAAAAIAAAAAACAAAAIAAAAAACAAAAIAAAAAACAAAAIAAAAAACAAAAIAAAAAACAAAAIAAAAAACAAAAIAAAAAACAAAABAAAAAAAQAAABAAAAAAAQAAABAAAAAAAQAAABAAAAAAAQAAABAAAAAAAQAAABAAAAAAAQAAABAAAAAAAQAAABAAAAAAAQDA/99uHcgAAAAADPK3vsdXFAEIAAAIAAAgAACAAAAALwHBqfPt8gtCjAAAAABJRU5ErkJggg==;strokeWidth=3;fontSize=18;" vertex="1" parent="1">
          <mxGeometry x="1044.4900000000002" y="564" width="60.5" height="60.5" as="geometry" />
        </mxCell>
        <mxCell id="p3jbJ6K5ewjt9FPkehxN-23" value="&lt;div&gt;&lt;br&gt;&lt;/div&gt;&lt;div&gt;&lt;br&gt;&lt;/div&gt;&lt;div&gt;&lt;br&gt;&lt;/div&gt;&lt;div&gt;&lt;br&gt;&lt;/div&gt;Attribute DB" style="shape=cylinder3;whiteSpace=wrap;html=1;boundedLbl=1;backgroundOutline=1;size=15;fontSize=18;strokeWidth=3;" vertex="1" parent="1">
          <mxGeometry x="723.14" y="510.01" width="135" height="164" as="geometry" />
        </mxCell>
        <mxCell id="p3jbJ6K5ewjt9FPkehxN-41" style="edgeStyle=orthogonalEdgeStyle;rounded=0;orthogonalLoop=1;jettySize=auto;html=1;exitX=0.5;exitY=1;exitDx=0;exitDy=0;entryX=0.5;entryY=0;entryDx=0;entryDy=0;strokeWidth=3;curved=1;fontSize=18;" edge="1" parent="1" source="p3jbJ6K5ewjt9FPkehxN-24" target="p3jbJ6K5ewjt9FPkehxN-35">
          <mxGeometry relative="1" as="geometry" />
        </mxCell>
        <mxCell id="p3jbJ6K5ewjt9FPkehxN-24" value="LLM" style="rounded=1;whiteSpace=wrap;html=1;fontSize=18;strokeWidth=3;" vertex="1" parent="1">
          <mxGeometry x="821.68" y="116.99999999999989" width="155" height="80" as="geometry" />
        </mxCell>
        <mxCell id="p3jbJ6K5ewjt9FPkehxN-28" value="" style="shape=image;verticalLabelPosition=bottom;labelBackgroundColor=default;verticalAlign=top;aspect=fixed;imageAspect=0;editableCssRules=.*;image=data:image/svg+xml,PHN2ZyB4bWxucz0iaHR0cDovL3d3dy53My5vcmcvMjAwMC9zdmciIHByZXNlcnZlQXNwZWN0UmF0aW89InhNaW5ZTWluIG1lZXQiIHZpZXdCb3g9IjAuMjk3MjU0NTYyMzc3OTI5NyAwLjM2NDQ3MDMwMzA1ODYyNDI3IDI1NS4zODY2MTE5Mzg0NzY1NiAyNjMuMjk4NTIyOTQ5MjE4NzUiIGhlaWdodD0iNzk3Ljg3NDMxMTk2NzMyOTUiIHdpZHRoPSI3NzMuODk4ODI0MDU1OTg5NSI+PHBhdGggZD0iTTI1NS4wMDggMTU4LjA4NmMtMS41MzUtNC42NDktNS41NTYtNy44ODctMTAuNzU2LTguNjY0LTIuNDUyLS4zNjYtNS4yNi0uMjEtOC41ODMuNDc1LTUuNzkyIDEuMTk1LTEwLjA4OSAxLjY1LTEzLjIyNSAxLjczOCAxMS44MzctMTkuOTg1IDIxLjQ2Mi00Mi43NzUgMjcuMDAzLTY0LjIyOCA4Ljk2LTM0LjY4OSA0LjE3Mi01MC40OTItMS40MjMtNTcuNjRDMjMzLjIxNyAxMC44NDcgMjExLjYxNC42ODMgMTg1LjU1Mi4zNzJjLTEzLjkwMy0uMTctMjYuMTA4IDIuNTc1LTMyLjQ3NSA0LjU0OS01LjkyOC0xLjA0Ni0xMi4zMDItMS42My0xOC45OS0xLjczOC0xMi41MzctLjItMjMuNjE0IDIuNTMzLTMzLjA3OSA4LjE1LTUuMjQtMS43NzItMTMuNjUtNC4yNy0yMy4zNjItNS44NjQtMjIuODQyLTMuNzUtNDEuMjUyLS44MjgtNTQuNzE4IDguNjg1QzYuNjIyIDI1LjY3Mi0uOTM3IDQ1LjY4NC40NjEgNzMuNjM0Yy40NDQgOC44NzQgNS40MDggMzUuODc0IDEzLjIyNCA2MS40OCA0LjQ5MiAxNC43MTggOS4yODIgMjYuOTQgMTQuMjM3IDM2LjMzIDcuMDI3IDEzLjMxNSAxNC41NDYgMjEuMTU2IDIyLjk4NyAyMy45NzIgNC43MzEgMS41NzYgMTMuMzI3IDIuNjggMjIuMzY4LTQuODUgMS4xNDYgMS4zODggMi42NzUgMi43NjcgNC43MDQgNC4wNDggMi41NzcgMS42MjUgNS43MjggMi45NTMgOC44NzUgMy43NCAxMS4zNDEgMi44MzUgMjEuOTY0IDIuMTI2IDMxLjAyNy0xLjg0OC4wNTYgMS42MTIuMDk5IDMuMTUyLjEzNSA0LjQ4Mi4wNiAyLjE1Ny4xMiA0LjI3Mi4xOTkgNi4yNS41MzcgMTMuMzc0IDEuNDQ3IDIzLjc3MyA0LjE0MyAzMS4wNDkuMTQ4LjQuMzQ3IDEuMDEuNTU3IDEuNjU3IDEuMzQ1IDQuMTE4IDMuNTk0IDExLjAxMiA5LjMxNiAxNi40MTEgNS45MjUgNS41OTMgMTMuMDkyIDcuMzA4IDE5LjY1NiA3LjMwOCAzLjI5MiAwIDYuNDMzLS40MzIgOS4xODgtMS4wMjIgOS44Mi0yLjEwNSAyMC45NzMtNS4zMTEgMjkuMDQxLTE2Ljc5OSA3LjYyOC0xMC44NiAxMS4zMzYtMjcuMjE3IDEyLjAwNy01Mi45OS4wODctLjcyOS4xNjctMS40MjUuMjQ0LTIuMDg4bC4xNi0xLjM2MiAxLjc5Ny4xNTguNDYzLjAzMWMxMC4wMDIuNDU2IDIyLjIzMi0xLjY2NSAyOS43NDMtNS4xNTQgNS45MzUtMi43NTQgMjQuOTU0LTEyLjc5NSAyMC40NzYtMjYuMzUxIi8+PHBhdGggZmlsbD0iIzMzNjc5MSIgZD0iTTIzNy45MDYgMTYwLjcyMmMtMjkuNzQgNi4xMzUtMzEuNzg1LTMuOTM0LTMxLjc4NS0zLjkzNCAzMS40LTQ2LjU5MyA0NC41MjctMTA1LjczNiAzMy4yLTEyMC4yMTEtMzAuOTA0LTM5LjQ4NS04NC4zOTktMjAuODExLTg1LjI5Mi0yMC4zMjdsLS4yODcuMDUyYy01Ljg3Ni0xLjIyLTEyLjQ1MS0xLjk0Ni0xOS44NDItMi4wNjctMTMuNDU2LS4yMi0yMy42NjQgMy41MjgtMzEuNDEgOS40MDIgMCAwLTk1LjQzLTM5LjMxNC05MC45OTEgNDkuNDQ0Ljk0NCAxOC44ODIgMjcuMDY0IDE0Mi44NzMgNTguMjE4IDEwNS40MjIgMTEuMzg3LTEzLjY5NSAyMi4zOS0yNS4yNzQgMjIuMzktMjUuMjc0IDUuNDY0IDMuNjMgMTIuMDA2IDUuNDgyIDE4Ljg2NCA0LjgxN2wuNTMzLS40NTJjLS4xNjYgMS43LS4wOSAzLjM2My4yMTMgNS4zMzItOC4wMjYgOC45NjctNS42NjcgMTAuNTQxLTIxLjcxMSAxMy44NDQtMTYuMjM1IDMuMzQ2LTYuNjk4IDkuMzAyLS40NzEgMTAuODYgNy41NDkgMS44ODcgMjUuMDEzIDQuNTYxIDM2LjgxMy0xMS45NThsLS40NyAxLjg4NWMzLjE0NCAyLjUxOSA1LjM1MiAxNi4zODMgNC45ODIgMjguOTUyLS4zNyAxMi41NjgtLjYxNyAyMS4xOTcgMS44NiAyNy45MzcgMi40NzkgNi43NCA0Ljk0OCAyMS45MDUgMjYuMDQgMTcuMzg2IDE3LjYyMy0zLjc3NyAyNi43NTYtMTMuNTY0IDI4LjAyNy0yOS44OS45MDEtMTEuNjA2IDIuOTQyLTkuODkgMy4wNy0yMC4yNjdsMS42MzctNC45MTJjMS44ODctMTUuNzMzLjMtMjAuODA5IDExLjE1Ny0xOC40NDhsMi42NC4yMzJjNy45OS4zNjMgMTguNDUtMS4yODYgMjQuNTg5LTQuMTM5IDEzLjIxOC02LjEzNCAyMS4wNTgtMTYuMzc3IDguMDI0LTEzLjY4NmguMDAyIi8+PHBhdGggZmlsbD0iI0ZGRiIgZD0iTTEwOC4wNzYgODEuNTI1Yy0yLjY4LS4zNzMtNS4xMDctLjAyOC02LjMzNS45MDItLjY5LjUyMy0uOTA0IDEuMTI5LS45NjIgMS41NDYtLjE1NCAxLjEwNS42MiAyLjMyNyAxLjA5NiAyLjk1NyAxLjM0NiAxLjc4NCAzLjMxMiAzLjAxIDUuMjU4IDMuMjguMjgyLjA0LjU2My4wNTguODQyLjA1OCAzLjI0NSAwIDYuMTk2LTIuNTI3IDYuNDU2LTQuMzkyLjMyNS0yLjMzNi0zLjA2Ni0zLjg5My02LjM1NS00LjM1TTE5Ni44NiA4MS41OTljLS4yNTYtMS44MzEtMy41MTQtMi4zNTMtNi42MDYtMS45MjMtMy4wODguNDMtNi4wODIgMS44MjQtNS44MzIgMy42NTkuMiAxLjQyNyAyLjc3NyAzLjg2MyA1LjgyNyAzLjg2My4yNTggMCAuNTE4LS4wMTcuNzgtLjA1NCAyLjAzNi0uMjgyIDMuNTMtMS41NzUgNC4yNC0yLjMyIDEuMDgtMS4xMzYgMS43MDYtMi40MDIgMS41OTEtMy4yMjUiLz48cGF0aCBmaWxsPSIjRkZGIiBkPSJNMjQ3LjgwMiAxNjAuMDI1Yy0xLjEzNC0zLjQyOS00Ljc4NC00LjUzMi0xMC44NDgtMy4yOC0xOC4wMDUgMy43MTYtMjQuNDUzIDEuMTQyLTI2LjU3LS40MTcgMTMuOTk1LTIxLjMyIDI1LjUwOC00Ny4wOTIgMzEuNzE5LTcxLjEzNyAyLjk0Mi0xMS4zOSA0LjU2Ny0yMS45NjggNC43LTMwLjU5LjE0Ny05LjQ2My0xLjQ2NS0xNi40MTctNC43ODktMjAuNjY1LTEzLjQwMi0xNy4xMjUtMzMuMDcyLTI2LjMxMS01Ni44ODItMjYuNTYzLTE2LjM2OS0uMTg0LTMwLjE5OSA0LjAwNS0zMi44OCA1LjE4My01LjY0Ni0xLjQwNC0xMS44MDEtMi4yNjYtMTguNTAyLTIuMzc2LTEyLjI4OC0uMTk5LTIyLjkxIDIuNzQzLTMxLjcwNCA4Ljc0LTMuODItMS40MjItMTMuNjkyLTQuODExLTI1Ljc2NS02Ljc1Ni0yMC44NzItMy4zNi0zNy40NTgtLjgxNC00OS4yOTQgNy41NzEtMTQuMTIzIDEwLjAwNi0yMC42NDMgMjcuODkyLTE5LjM4IDUzLjE2LjQyNSA4LjUwMSA1LjI2OSAzNC42NTMgMTIuOTEzIDU5LjY5OCAxMC4wNjIgMzIuOTY0IDIxIDUxLjYyNSAzMi41MDggNTUuNDY0IDEuMzQ3LjQ0OSAyLjkuNzYzIDQuNjEzLjc2MyA0LjE5OCAwIDkuMzQ1LTEuODkyIDE0LjctOC4zM2E1MjkuODMyIDUyOS44MzIgMCAwIDEgMjAuMjYxLTIyLjkyNmM0LjUyNCAyLjQyOCA5LjQ5NCAzLjc4NCAxNC41NzcgMy45Mi4wMS4xMzMuMDIzLjI2Ni4wMzUuMzk4YTExNy42NiAxMTcuNjYgMCAwIDAtMi41NyAzLjE3NWMtMy41MjIgNC40NzEtNC4yNTUgNS40MDItMTUuNTkyIDcuNzM2LTMuMjI1LjY2Ni0xMS43OSAyLjQzMS0xMS45MTYgOC40MzUtLjEzNiA2LjU2IDEwLjEyNSA5LjMxNSAxMS4yOTQgOS42MDcgNC4wNzQgMS4wMiA3Ljk5OSAxLjUyMyAxMS43NDIgMS41MjMgOS4xMDMgMCAxNy4xMTQtMi45OTIgMjMuNTE2LTguNzgxLS4xOTcgMjMuMzg2Ljc3OCA0Ni40MyAzLjU4NiA1My40NTEgMi4zIDUuNzQ4IDcuOTE4IDE5Ljc5NSAyNS42NjQgMTkuNzk0IDIuNjA0IDAgNS40Ny0uMzAzIDguNjIzLS45NzkgMTguNTIxLTMuOTcgMjYuNTY0LTEyLjE1NiAyOS42NzUtMzAuMjAzIDEuNjY1LTkuNjQ1IDQuNTIyLTMyLjY3NiA1Ljg2Ni00NS4wMyAyLjgzNi44ODUgNi40ODcgMS4yOSAxMC40MzQgMS4yODkgOC4yMzIgMCAxNy43MzEtMS43NDkgMjMuNjg4LTQuNTE0IDYuNjkyLTMuMTA4IDE4Ljc2OC0xMC43MzQgMTYuNTc4LTE3LjM2em0tNDQuMTA2LTgzLjQ4Yy0uMDYxIDMuNjQ3LS41NjMgNi45NTgtMS4wOTUgMTAuNDE0LS41NzMgMy43MTctMS4xNjUgNy41Ni0xLjMxNCAxMi4yMjUtLjE0NyA0LjU0LjQyIDkuMjYuOTY4IDEzLjgyNSAxLjEwOCA5LjIyIDIuMjQ1IDE4LjcxMi0yLjE1NiAyOC4wNzhhMzYuNTA4IDM2LjUwOCAwIDAgMS0xLjk1LTQuMDA5Yy0uNTQ3LTEuMzI2LTEuNzM1LTMuNDU2LTMuMzgtNi40MDQtNi4zOTktMTEuNDc2LTIxLjM4NC0zOC4zNS0xMy43MTMtNDkuMzE2IDIuMjg1LTMuMjY0IDguMDg0LTYuNjIgMjIuNjQtNC44MTN6bS0xNy42NDQtNjEuNzg3YzIxLjMzNC40NzEgMzguMjEgOC40NTIgNTAuMTU4IDIzLjcyIDkuMTY0IDExLjcxMS0uOTI3IDY0Ljk5OC0zMC4xNCAxMTAuOTY5YTE3MS4zMyAxNzEuMzMgMCAwIDAtLjg4Ni0xLjExN2wtLjM3LS40NjJjNy41NDktMTIuNDY3IDYuMDczLTI0LjgwMiA0Ljc1OS0zNS43MzgtLjU0LTQuNDg4LTEuMDUtOC43MjctLjkyLTEyLjcwOS4xMzQtNC4yMi42OTItNy44NCAxLjIzMi0xMS4zNC42NjMtNC4zMTMgMS4zMzgtOC43NzYgMS4xNTItMTQuMDM3LjEzOS0uNTUyLjE5NS0xLjIwNC4xMjItMS45NzgtLjQ3NS01LjA0NS02LjIzNS0yMC4xNDQtMTcuOTc1LTMzLjgxLTYuNDIyLTcuNDc1LTE1Ljc4Ny0xNS44NC0yOC41NzQtMjEuNDgyIDUuNS0xLjE0IDEzLjAyMS0yLjIwMyAyMS40NDItMi4wMTZ6TTY2LjY3NCAxNzUuNzc4Yy01LjkgNy4wOTQtOS45NzQgNS43MzQtMTEuMzE0IDUuMjg4LTguNzMtMi45MTItMTguODYtMjEuMzY0LTI3Ljc5MS01MC42MjQtNy43MjgtMjUuMzE4LTEyLjI0NC01MC43NzctMTIuNjAyLTU3LjkxNi0xLjEyOC0yMi41NzggNC4zNDUtMzguMzEzIDE2LjI2OC00Ni43NjkgMTkuNDA0LTEzLjc2IDUxLjMwNi01LjUyNCA2NC4xMjUtMS4zNDctLjE4NC4xODItLjM3Ni4zNTItLjU1OC41MzctMjEuMDM2IDIxLjI0NC0yMC41MzcgNTcuNTQtMjAuNDg1IDU5Ljc1OS0uMDAyLjg1Ni4wNyAyLjA2OC4xNjggMy43MzUuMzYyIDYuMTA1IDEuMDM2IDE3LjQ2Ny0uNzY0IDMwLjMzNC0xLjY3MiAxMS45NTcgMi4wMTQgMjMuNjYgMTAuMTExIDMyLjEwOWEzNi4yNzUgMzYuMjc1IDAgMCAwIDIuNjE3IDIuNDY4Yy0zLjYwNCAzLjg2LTExLjQzNyAxMi4zOTYtMTkuNzc1IDIyLjQyNnptMjIuNDc5LTI5Ljk5M2MtNi41MjYtNi44MS05LjQ5LTE2LjI4Mi04LjEzMy0yNS45OSAxLjktMTMuNTkyIDEuMTk5LTI1LjQzLjgyMi0zMS43OS0uMDUzLS44OS0uMS0xLjY3LS4xMjctMi4yODUgMy4wNzMtMi43MjUgMTcuMzE0LTEwLjM1NSAyNy40Ny04LjAyOCA0LjYzNCAxLjA2MSA3LjQ1OCA0LjIxNyA4LjYzMiA5LjY0NSA2LjA3NiAyOC4xMDMuODA0IDM5LjgxNi0zLjQzMiA0OS4yMjktLjg3MyAxLjkzOS0xLjY5OCAzLjc3Mi0yLjQwMiA1LjY2OGwtLjU0NiAxLjQ2NmMtMS4zODIgMy43MDYtMi42NjggNy4xNTItMy40NjUgMTAuNDI0LTYuOTM4LS4wMi0xMy42ODctMi45ODQtMTguODE5LTguMzR6bTEuMDY1IDM3LjljLTIuMDI2LS41MDYtMy44NDgtMS4zODUtNC45MTctMi4xMTQuODkzLS40MiAyLjQ4Mi0uOTkyIDUuMjM4LTEuNTYgMTMuMzM3LTIuNzQ1IDE1LjM5Ny00LjY4MyAxOS44OTUtMTAuMzk0IDEuMDMxLTEuMzEgMi4yLTIuNzk0IDMuODE5LTQuNjAybC4wMDItLjAwMmMyLjQxMS0yLjcgMy41MTQtMi4yNDIgNS41MTQtMS40MTIgMS42MjEuNjcgMy4yIDIuNzAyIDMuODQgNC45MzguMzAzIDEuMDU2LjY0MyAzLjA2LS40NyA0LjYyLTkuMzk2IDEzLjE1Ni0yMy4wODggMTIuOTg3LTMyLjkyMSAxMC41MjZ6bTY5Ljc5OSA2NC45NTJjLTE2LjMxNiAzLjQ5Ni0yMi4wOTMtNC44MjktMjUuOS0xNC4zNDYtMi40NTctNi4xNDQtMy42NjUtMzMuODUtMi44MDgtNjQuNDQ3LjAxMS0uNDA3LS4wNDctLjgtLjE1OS0xLjE3YTE1LjQ0NCAxNS40NDQgMCAwIDAtLjQ1Ni0yLjE2MmMtMS4yNzQtNC40NTItNC4zNzktOC4xNzYtOC4xMDQtOS43Mi0xLjQ4LS42MTMtNC4xOTYtMS43MzgtNy40Ni0uOTAzLjY5Ni0yLjg2OCAxLjkwMy02LjEwNyAzLjIxMi05LjYxNGwuNTQ5LTEuNDc1Yy42MTgtMS42NjMgMS4zOTQtMy4zODYgMi4yMTQtNS4yMSA0LjQzMy05Ljg0OCAxMC41MDQtMjMuMzM3IDMuOTE1LTUzLjgxLTIuNDY4LTExLjQxNC0xMC43MS0xNi45ODgtMjMuMjA0LTE1LjY5My03LjQ5Ljc3NS0xNC4zNDMgMy43OTctMTcuNzYxIDUuNTMtLjczNS4zNzItMS40MDcuNzMyLTIuMDM1IDEuMDgyLjk1NC0xMS41IDQuNTU4LTMyLjk5MiAxOC4wNC00Ni41OSA4LjQ4OS04LjU2IDE5Ljc5NC0xMi43ODggMzMuNTY4LTEyLjU2IDI3LjE0LjQ0NCA0NC41NDQgMTQuMzcyIDU0LjM2NiAyNS45NzkgOC40NjQgMTAuMDAxIDEzLjA0NyAyMC4wNzYgMTQuODc2IDI1LjUxLTEzLjc1NS0xLjM5OS0yMy4xMSAxLjMxNi0yNy44NTIgOC4wOTYtMTAuMzE3IDE0Ljc0OCA1LjY0NCA0My4zNzIgMTMuMzE1IDU3LjEyOSAxLjQwNyAyLjUyMSAyLjYyMSA0LjcgMy4wMDMgNS42MjYgMi40OTggNi4wNTQgNS43MzIgMTAuMDk2IDguMDkzIDEzLjA0Ni43MjQuOTA0IDEuNDI2IDEuNzgxIDEuOTYgMi41NDctNC4xNjYgMS4yMDEtMTEuNjQ5IDMuOTc2LTEwLjk2NyAxNy44NDctLjU1IDYuOTYtNC40NjEgMzkuNTQ2LTYuNDQ4IDUxLjA1OS0yLjYyMyAxNS4yMS04LjIyIDIwLjg3NS0yMy45NTcgMjQuMjV6bTY4LjEwNC03Ny45MzZjLTQuMjYgMS45NzctMTEuMzg5IDMuNDYtMTguMTYxIDMuNzc5LTcuNDguMzUtMTEuMjg4LS44MzgtMTIuMTg0LTEuNTY5LS40Mi04LjY0NCAyLjc5Ny05LjU0NyA2LjIwMi0xMC41MDMuNTM1LS4xNSAxLjA1Ny0uMjk3IDEuNTYxLS40NzMuMzEzLjI1NS42NTYuNTA4IDEuMDMyLjc1NiA2LjAxMiAzLjk2OCAxNi43MzUgNC4zOTYgMzEuODc0IDEuMjcxbC4xNjYtLjAzM2MtMi4wNDIgMS45MDktNS41MzYgNC40NzEtMTAuNDkgNi43NzJ6Ii8+PC9zdmc+;strokeWidth=3;fontSize=18;" vertex="1" parent="1">
          <mxGeometry x="759.61" y="560.01" width="62.07" height="64" as="geometry" />
        </mxCell>
        <mxCell id="p3jbJ6K5ewjt9FPkehxN-30" value="&lt;div&gt;&lt;br&gt;&lt;/div&gt;&lt;div&gt;&lt;br&gt;&lt;/div&gt;&lt;div&gt;&lt;br&gt;&lt;/div&gt;&lt;div&gt;&lt;br&gt;&lt;/div&gt;&lt;div&gt;&lt;span style=&quot;background-color: transparent; color: light-dark(rgb(0, 0, 0), rgb(255, 255, 255));&quot;&gt;Embedding DB&lt;/span&gt;&lt;/div&gt;" style="shape=cylinder3;whiteSpace=wrap;html=1;boundedLbl=1;backgroundOutline=1;size=15;fontSize=18;strokeWidth=3;" vertex="1" parent="1">
          <mxGeometry x="440.61" y="510" width="135" height="164" as="geometry" />
        </mxCell>
        <mxCell id="p3jbJ6K5ewjt9FPkehxN-31" value="" style="shape=image;verticalLabelPosition=bottom;labelBackgroundColor=default;verticalAlign=top;aspect=fixed;imageAspect=0;editableCssRules=.*;image=data:image/svg+xml,PHN2ZyB4bWxucz0iaHR0cDovL3d3dy53My5vcmcvMjAwMC9zdmciIHZpZXdCb3g9IjQ3LjI4ODcwMDEwMzc1OTc2NiA0NS44Njg5MDAyOTkwNzIyNjYgMjI4NC45MDg0NDcyNjU2MjUgMjMxNS4zMjgxMjUiIGRhdGEtbmFtZT0iTGF5ZXIgMSIgaWQ9IkxheWVyXzEiIHdpZHRoPSIyMjg0LjkwODQ0NzI2NTYyNSIgaGVpZ2h0PSIyMzE1LjMyODEyNSI+PGRlZnM+PHN0eWxlPi5jbHMtMXtmaWxsOiMzM2I1ZjE7fS5jbHMtMntmaWxsOiNmZWZlZmU7fTwvc3R5bGU+PC9kZWZzPjx0aXRsZT5taWx2dXMtaG9yaXpvbnRhbC1jb2xvcjwvdGl0bGU+PHBhdGggZD0iTTExMTMuNjk1LDQ1Ljg3YzIwNi44ODI5MywzLjI4MiwzODguMDE0LDcxLjk0Myw1MzkuMTIxOTQsMjE0LjgzNywxMjEuMDY0OTUsMTE0LjQ4NCwxOTUuNjgzLDI1NC41ODUsMjI1LjM3Niw0MTguNDk5QTY4MS44MzI5Myw2ODEuODMyOTMsMCwwLDEsMTg4OS4yNiw4MTQuNDVjLTMuNjg4LDE4NC4zMTMtNjQuMzYsMzQ3LjQzLTE4NS40OTgsNDg2LjgxNS0xMTcuNDE0MDYsMTM1LjEwMS0yNjQuODM4LDIyMC44NTUtNDQwLjU3NTkyLDI1My4xNDItMjM3LjAxMiw0My41NDUtNDUyLjA0NC05LjM2MjA2LTY0Mi4zNzgtMTU4LjQzNy0zOS41MzgtMzAuOTY3LTczLjg0NS02Ny42NDctMTA5LjU5Ny0xMDIuNzEycS0xMTUuNDUxOTQtMTEzLjIzMi0yMzAuNjMxLTIyNi43NDQtMTA0LjQ4Mi0xMDIuNjc2LTIwOS4wMS0yMDUuMzA0Yy0zMi4zNTctMzEuODkzLTMyLjM4LTc2LjE0NC0uMDQtMTA4LjAzNHExMDcuMzUyLTEwNS44NiwyMTUuMDc0LTIxMS4zNDRjNjcuNDI1LTY2LjE5NiwxMzQuNTE1LTEzMi43NDEsMjAyLjQ2Mi0xOTguMzk4LDQ1LjExLTQzLjU4OSw4Ny43OTktODkuNzcxLDEzNy4yNzktMTI4Ljc1N3ExNDcuODgzOTUtMTE2LjUyLDMzMi40MDEtMTUzLjM0NGE3ODQuMzg2Nyw3ODQuMzg2NywwLDAsMSwxNTQuOTQ5LTE1LjQ2NFptNTk3Ljk5Niw3NjEuOTEzYy0uNzk1LTMzLjA5Mi0zLjUxLTY1LjU1Ny05LjY0LTk3LjY5NS0zMC4xNjEtMTU4LjEtMTEzLjIyNC0yODEuNTgzLTI0Ny41NTYtMzY4LjkyMy0xMjkuNTYwMDYtODQuMjM3LTI3MS45NTMtMTEwLjQxNi00MjMuODE5LTgxLjY2My0xMDkuMjY2LDIwLjY4OC0yMDQuNTMyLDY5Ljc4My0yODQuOTcsMTQ2LjYxMi01My4xODgsNTAuODAyLTEwNS4zMjMsMTAyLjcwOC0xNTcuODQzLDE1NC4yMDhxLTEwNS42MSwxMDMuNTYtMjExLjAzNywyMDcuMzA1Yy0yNC4yNzcsMjMuOTM3LTI0LjE3Myw1NS4yMTYtLjA4Miw3OS4wNDUsMzQuNDksMzQuMTE0LDY5LjIyNCw2Ny45ODEsMTAzLjgxNywxMDEuOTkxcTEyNi41MDgsMTI0LjM3NDk1LDI1My4wMTQsMjQ4Ljc1MSwxODMuNDMyLDE3OS42NzExNCw0NDAuMDkyLDE2Ny45MzRjOTAuNTAzMDUtNC4xNzg5NSwxNzUuODQtMjguMzE2LDI1My42MDgtNzQuNjI2LDE4Mi44MDQtMTA4Ljg1OSwyNzYuMTc3LTI3MS4xMjIwNywyODQuNDE2LTQ4Mi45MzlaTTQzOS41ODcsMjA5Ny4xNTVjLTI4LjEyOCw1Ni4zNDMtNTMuNzEsMTEwLjc4LTc3LjYxLDE2NS45ODgtMy43MjIsOC41OTUtNy44MiwxMi42MTAxLTE3Ljk3NiwxMi4wMjgwNy0xOC42NTItMS4wNzAwNy0zNy40Mi0uNjYwODktNTYuMTE3LS4xMjIwNy03LjA2Ni4yMDI4OC0xMC40NTQtMS44NzQtMTMuMzE3LTguNTMzOTNxLTM0LjcwNy04MC43NTYxMi03NC40NTgtMTU5LjE3NmMtMS4xMDYtMi4xODk5NC0yLjQyNi00LjI3LTQuODI2LTguNDYtLjkyMywxMi42ODk5NC0xLjg3MSwyMy4xNTgtMi40MTYsMzMuNjQ3LTIuNzk0LDUzLjc3NzEtNS40MzIsMTA3LjU2My04LjI0LDE2MS4zNDAwOS0uODksMTcuMDc0OTUtMi4zNDMsMzQuMTIzLTMuMDg3LDUxLjIwMjg4LS4yMjMsNS4xMjMwNS0xLjQwNyw3LjI5NTktNi45OSw3LjI1NzA4cS00Ni4xNDctLjMyNTkyLTkyLjI5Ny4wMDFjLTYuMDM1LjA0Mzk0LTcuNDMtMi4xMTg5LTcuMDk2LTcuODQwMDksNC40OS03Ni44NDAwOSw4LjcxLTE1My42OTQwOSwxMy4xNDgtMjMwLjUzNTg5LDIuNzc1LTQ4LjA2MDA2LDUuMTMtOTYuMTU4OTMsOC45NzEtMTQ0LjEzNiwyLjI0NC0yOC4wMjQ5MSwxOC41OTMtNDMuNTUwMDUsNDYuNDM0LTQ2LjU5NjkzLDIzLjA1My0yLjUyMiw0NS41MTQtLjA0Miw2Ni42MjksMTAuNjk4YTMzLjkyMTE2LDMzLjkyMTE2LDAsMCwxLDE2LjIwNCwxNi4yOWMyOS4yNjEsNjAuNDI3LDU2LjgzNSwxMjEuNjc4LDg4LjExNSwxODEuMTIxMDksMS4zMTYsMi41MDIsMi43MTcsNC45NTgsNC43MjgsOC42MTUsNi40NjYtMTMuMDgwMDgsMTIuMzkzLTI1LjI1MSwxOC40NzYtMzcuMzQ0LDIyLjA2NC00My44NTY5Myw0NC4yNDktODcuNjc2LDY0LjEzMi0xMzIuNTYwMDYsMTguMTE1LTQwLjg5MzA3LDQ0LjcxNi01MS4zNjgsODkuMzg5LTQ2LjQyOTkzLDEzLjMyOCwxLjQ3NDEyLDI1LjY5LDYuNTQzOTQsMzcuOTQ2LDExLjg0OTEyLDUuMDYsMi4xODk5NCw3LjA4NSw1LjM0Miw3LjM2LDEwLjc3NTg4cTIuODEsNTUuNTIyLDYuMDQzLDExMS4wMjM5Miw2LjIyNSwxMDcuNjc5OTUsMTIuNjE2LDIxNS4zNTAxYzEuNDEsMjQuMDMzLDIuNjg4LDQ4LjA3NCw0LjMsNzIuMDkzLjM4Niw1Ljc0NjA5LTEuMjEyLDcuNzEtNy4yNDUsNy42NTQwNS0zMC4xMy0uMjgzOTMtNjAuMjYzLS4yNC05MC4zOTMtLjAzNTg5LTUuOTQuMDQtOC4zMDYtMS42Mjk4OC04LjYzLTguMDAxOTVxLTQuNjY2LTkyLjA1ODExLTkuOTAzLTE4NC4wODc4OWMtMS4xMTYtMjAuMTU4LTIuNDc4LTQwLjMwMi0zLjg5LTYzLjA3M1pNMjA4OC43MDI4OCw4MDcuMjk2Yy4xMTAxMS04My4xNjUtOC4xMzMwNi0xNjUuNTE3LTI2LjQ4MjkxLTI0Ni43NDZhNzUuOTg3LDc1Ljk4NywwLDAsMS0xLjMwMi03LjQ4N2MtLjkzMzExLTcuNjE0LDEuNjg5OTQtMTMuNjUzLDguMjUyOTMtMTcuNzg3LDYuODMyLTQuMzA0LDEzLjc5LTQuNTAyLDIwLjQ3LjEzOWE1OS4xNTIsNTkuMTUyLDAsMCwxLDcuNjk1MDcsNy4wMjhxMTA0LjU4NTgxLDEwNC41NDIsMjA5LjEzNzk0LDIwOS4xMmMzNC4zNTQsMzQuMzYsMzQuMjksNzguMTA4LS4xNDYsMTEyLjU0NXEtMTA0LjIyNjE5LDEwNC4yMzAwNS0yMDguNDU2LDIwOC40NTdjLTEuNzkzLDEuNzkzLTMuNTQsMy42MzctNS40MDIxLDUuMzU1LTYuODY2OTUsNi4zMzUtMTQuNjg4LDcuNjI4MDYtMjIuNjcwOSwyLjg1LTcuNDI3LTQuNDQ0OTUtMTAuNzE0MTEtMTEuMTItOC43NDYxLTIwLjE3MSw3LjMyNzg5LTMzLjcwMiwxMy42MTAxMS02Ny41ODUsMTguMTE0LTEwMS44MDYsNS4zMzQtNDAuNTM1LDguODcwMTItODEuMTg1LDkuNTEyOTQtMTIyLjA3LjE1NDA1LTkuODA2LjAyMy0xOS42MTguMDIzLTI5LjQyN1pNMjAwMS45MjQ4LDIzNjAuNTA0ODhhMzU5LjA3NDgsMzU5LjA3NDgsMCwwLDEtMTE5LjQwNy0xOS4zNTRjLTEyLjk2LTQuMzc1LTI0LjkxNy0xMC44NDItMzYuNzA0LTE3Ljc1LTUuMTc2LTMuMDM0OTEtNS4zMDUtNS41OTItMi41NDUtMTAuNDYxOTJxMTQuOTg0MDctMjYuNDQ3LDI5LjE4LTUzLjMzNzg5YzIuNDMwMDYtNC41NzEsNC4wOTU5NS01LjEwMTA3LDkuMDg2MDYtMi41ODUsNDUuOTA3LDIzLjE0MjA5LDk0LjU2NCwzMS4zNTYsMTQ1LjU5NzksMjUuMzgzMDZhNDYuNTU0LDQ2LjU1NCwwLDAsMCwxMS4wMDM5MS0yLjgxMDA2YzcuMzE0LTIuNzgzOTMsMTIuNDI5OTMtNy40OSwxMi40NjQxMS0xNi4wOTEwNi4wMzM5NC04LjY2MjExLTQuMDQtMTQuMzkxMTItMTIuMDcwMDctMTcuNDEzMDktMTUuODkyMDktNS45ODEtMzIuNjQ5OS03LjQ1MTktNDkuMzEzLTkuMjMxOTMtMjQuMjgtMi41OTMtNDguMzk4LTYuMDgzLTcxLjY4NTA2LTEzLjYyOTg5LTQxLjAxNS0xMy4yOTItNjUuNTQ4LTQxLjk0MzExLTY3LjQ0Ni03OC4xMzk4OS0yLjY4OTk0LTUxLjI3ODA3LDE2LjI0LTg1LjE5NTA3LDU4LjA2Mi0xMDQuNDQzMTEsMjQuODk3LTExLjQ1OSw1MS4yMzM4OS0xNi4yODcxMSw3OC4zNzQtMTYuNzk4MSw0MC45OTgtLjc3Miw4MS43ODEuNjU1LDEyMC40NywxNi43MjUxYTg1LjYyNjE4LDg1LjYyNjE4LDAsMCwxLDExLjA2Njg5LDUuNDI5OTNjMTQuNDY0MTEsOC42Mzc5NCwyNC40ODE5MywyMC4wNDIsMjMuMjczLDM4LjI5LTEuMTc2LDE3Ljc0OS0xMS40Mzk5NCwyOS41NjgxMS0yNS4xMjg5MSwzOS4zMzc4OS00LjEwMywyLjkyOC02LjkwMDg4LjQ5MjkyLTEwLjI1MTk1LTEuMzQyLTQxLjU0Mi0yMi43NDYwOS04Ni4wNTY4OC0yOC4zMzY5Mi0xMzIuNDM5OTQtMjIuNDc2MDhhMjguNDU0MSwyOC40NTQxLDAsMCwwLTE2Ljg3MDEyLDguMDUyYy05LjgzNyw5LjgxMy03LjQwMjk1LDIzLjA3NTkyLDUuNDk1MTIsMjguMjk0OTIsMTQuNTUyLDUuODg3OTQsMzAuMTQ0LDcuMDA2MSw0NS40NTUwOCw5LjMzMTA1LDI3LjIwNDEsNC4xMzIwOCw1NC42OTgsNi42NTgsODEuMTM0LDE0Ljk3NTEsMzUuNTkyLDExLjE5Nyw2MS41MDgwNiwzMi4zNjY5NCw2Ni45NzgsNzEuMDE4MDcsNS43MTUwOSw0MC4zNzIwNy00Ljg1NzkxLDc1LjYyNC0zOS42NjIxMSwxMDAuNDU2LTI5LjI1MiwyMC44NzExLTYyLjk1MTkxLDI3LjEwNi05Ny45NDcsMjguNTQtNS4zODIwOC4yMi0xMC43OC4wMy0xNi4xNjk5My4wM1ptLTIzNC4yOC0yMTguNDQ1MDdjLS43OTgsMjUuNjkzMTIuMzIyLDU3LjM3MjA3LS43MzQsODkuMDgwMDgtMS45MzIsNTcuOTgzODktMzcuNjAzLDEwNi4zNDItMTAyLjAzOCwxMjIuNDAzMDgtNDcuMDA0LDExLjcxNy05My44MTAwNiwxMC43NzItMTM4LjgzNS04LjM1NjkzLTQ3LjgwMy0yMC4zMDgxMS03NC4xOTEtNTcuMzMwMDgtNzcuNDI3LTEwOS4xNjk5My0zLjI3OTA1LTUyLjU0MS0xLjE3OC0xMDUuMjIxOTItMS4wNDgtMTU3LjgzNS4wNzQtMjkuOTI4LDE1LjY2LTQ0LjMxMDA2LDQ1LjY1OC00NS4zMTAwNiwxNS45OC0uNTMzOTMsMzEuNTIyLDEuMTAxMDgsNDYuODgsNS45Mzk5NSw2Ljc5MiwyLjEzOTg5LDkuMzQsNC45MDk5MSw5LjI4NSwxMi4zNDY5Mi0uMzY1LDUwLjQxOC0uMjExMDYsMTAwLjg0MDA5LS4xNiwxNTEuMjZhMTA4LjQ2MjIsMTA4LjQ2MjIsMCwwLDAsLjc0LDE2LjEzMjA4YzYuNzg1LDQ0LjY0NSw1Ny45Nyw2NS41NzAwNyw5NC43MTUsMzguNjI1LDE2LjA0LTExLjc2Mjk0LDIwLjcxLTI5LjI3MSwyMC45MjYtNDcuODMwMDguNDk2LTQyLjgwMzk1LjE4MS04NS42MTY5NC4xOTktMTI4LjQyNy4wMTI5NC0zMi40NzksMTUuMDIzLTQ3LjM1NSw0Ny43NDQtNDguMTA0YTEzNy44MjQyNywxMzcuODI0MjcsMCwwLDEsNDUuODQ5LDYuMzc0YzYuMDQzLDEuOTM5OTQsOC41MTgsNC41MjgwNyw4LjQyMDA1LDExLjI2MzkxLS40MTEsMjguNTMzOTQtLjE3NCw1Ny4wNzc4OS0uMTc0LDkxLjYwNzkxWm0tNTYzLjM4Nzk0LDk0LjQ2MTkyYzE0Ljc1Mi0zNi4zMzAwOCwyOC41ODItNzAuNjQ3LDQyLjYyMTk0LTEwNC44Nzk4OCw5LjQ4My0yMy4xMjAxMiwxNy42Ny00Ni44LDI4LjgyOS02OS4yMDE5MSwxMC4xODgtMjAuNDU1MDgsMjYuODc2LTI5Ljc2NDg5LDQ5LjkxLTI5Ljc3MmExMTcuOTQ2MzksMTE3Ljk0NjM5LDAsMCwxLDUxLjMxMDA2LDExLjY0N2M3LjczLDMuNjQzMDcsOS42OTk5NSw3LjkyOTkzLDYuNTk1OTQsMTYuMjAyODgtMTIuOTA5LDM0LjQwOC0yNy42Niw2OC4wMy00Mi43NjYsMTAxLjQ4OS0yNy43NDUsNjEuNDUyODgtNTYuNTYyLDEyMi4zOTYtODgsMTgyLjA3NjktMy4yMzYsNi4xNDQtNi44MzQsOC40NTUwOC0xMy44Nyw4LjMyNS0yNS4zNS0uNDY3LTUwLjcxNTk0LS4yOC03Ni4wNzQtLjEwMy01LjIxNy4wMzU4OS04LjY4NC0xLjEwMi0xMS40MzctNi4xODMxLTQzLTc5LjM2Ni04My43NDUtMTU5LjgtMTE2LjYxMS0yNDQuMDAxLTMuOTI2LTEwLjA1ODEtNi43OTMtMjAuNDY0MTEtNS4zOTUtMzEuNDM5OTQsMi42NjYtMjAuOTIzMSwxNi4wMTI5NC0zNS4wODY5MSwzNi44NzQtMzcuMTYzMDksMTcuNjQ5LTEuNzU3MDgsMzUuMzg5LTEuNjUyMDksNTIuNDksNS4wNjQ5NSw1LjUxLDIuMTY1LDguNTM4OTQsNS4wMTI5NCwxMC41MywxMC43MjE5MnEzMS43NTY5MSw5MS4wMTU4Nyw3MS4wMzUsMTc5LjA2OTA5Yy44OCwxLjk4NjA5LDEuODk0LDMuOTEyMTEsMy45NTcsOC4xNDdabS0yNDAuOTU4LTExMC40MzhjMCw3MS45NTgtLjEzMzA2LDE0My45MTcuMTg2LDIxNS44NzMwNS4wMzYsOC4wNDkwNy0yLjI5Mzk0LDEwLjAyMzkyLTEwLjA4OSw5Ljg4OTg5LTI3LjU2OTk0LS40NjgtNTUuMTU2LS4zNjYtODIuNzMxLS4wNDgxLTYuNTQ4LjA3NTkzLTguNjQtMS43NTgtOC42MzEtOC40ODcwNnEuMjctMjA0LjQ2MTc5LjIxNS00MDguOTI1MDVjLjAzNC0yNy41MzQsMTQuMTktNDEuMDQzLDQ0LjMyNi00My43MTQsMTguMDI5LTEuNTk4LDM1LjIxOCwyLjM4Miw1Mi4yNzksNy42MTY5NCw1Ljg0NywxLjc5NSw0LjQsNi4xNzYsNC40MDQsMTAuMDE3OTRxLjA4OTkxLDgxLjc4NTE2LjA0LDE2My41NzAwN2wuMDAxLDU0LjIwNjA2Wm0tMjAwLjQ5NSw3MC44NzRjMCw0OC4xNzgtLjI0OCw5Ni4zNTc5MS4yMiwxNDQuNTMyLjA5LDkuMDkzLTIuODUsMTEuMDcwMDYtMTEuMzEyLDEwLjkxOC0yNy4yNS0uNDktNTQuNTE3LS4zOTExMS04MS43Ny0uMDQtNy4wNTMuMDkwMDgtOS4xNS0xLjk3NzA2LTkuMTMxLTkuMTQyMDkuMjM1LTg4LjQzMDkxLjA3NC0xNzYuODYzLjItMjY1LjI5NDkzLjA0LTI4LjIzLDE0Ljc2NC00My4yNDgsNDMuMDk0LTQ0Ljg5MTExLDE3LjI0NS0xLDM0LjA3NC42NTk5MSw1MC41OTYsNi4xMjk4OCw2LjA4LDIuMDEyOTQsOC4zMSw0LjczMSw4LjI2OCwxMS4zNTMtLjMwNSw0OC44MTAwNi0uMTY1LDk3LjYyMy0uMTY1LDE0Ni40MzUwNlptLTUxLjItMTk0LjIzNjA4Yy0zMi4wMTMuMDEyOTQtNTYuMDA3LTIzLjU4NC01Ni4zMjgtNTUuMzk2LS4zMjItMzEuNzcsMjQuNDY0LTU2Ljg2MSw1Ni4xOTQtNTYuODg3LDMxLjk0NC0uMDI2LDU2Ljc3NywyNC41MTQsNTYuOTM0LDU2LjI2Mjk0LjE1OCwzMS44MDAwNS0yNC4zODYsNTYuMDA2MS01Ni44LDU2LjAyWiIgY2xhc3M9ImNscy0xIi8+PHBhdGggZD0iTTE1MjYuMDU2LDgwNy40MjZjLTEuMTUxLTIxOS4wOTQtMTgxLjEwNS0zODUuODczLTM5MC40OC0zODEuNDA4LTIwNy43ODQwNiw0LjQzMS0zODAuMzUyLDE3OC44OTQtMzczLjA1NCwzOTUuNSw2LjY1NSwxOTcuNTQsMTY5LjY5NiwzNzEuNTU3LDM4OC4xNjQsMzY4LjAxMjk0QzEzNjEuMDQ5MDcsMTE4Ni4xMiwxNTI1LjYxMTA4LDEwMTUuNjE1LDE1MjYuMDU2LDgwNy40MjZaIiBjbGFzcz0iY2xzLTIiLz48cGF0aCBkPSJNMTUyNi4wNTYsODA3LjQyNmMtLjQ0NSwyMDguMTg5LTE2NS4wMDcsMzc4LjY5NC0zNzUuMzcsMzgyLjEwNS0yMTguNDY4LDMuNTQzOTQtMzgxLjUwOS0xNzAuNDczLTM4OC4xNjQtMzY4LjAxNC03LjI5OC0yMTYuNjA1LDE2NS4yNy0zOTEuMDY4LDM3My4wNTMtMzk1LjQ5OSwyMDkuMzc2LTQuNDY1LDM4OS4zMywxNjIuMzE0LDM5MC40OCwzODEuNDA4WiIgY2xhc3M9ImNscy0xIi8+PC9zdmc+;fontSize=18;strokeWidth=3;" vertex="1" parent="1">
          <mxGeometry x="478.1700000000002" y="560.01" width="63.14" height="63.99" as="geometry" />
        </mxCell>
        <mxCell id="p3jbJ6K5ewjt9FPkehxN-32" value="Cache" style="text;html=1;align=center;verticalAlign=middle;whiteSpace=wrap;rounded=0;fontSize=18;strokeWidth=3;" vertex="1" parent="1">
          <mxGeometry x="366.2499999999999" y="60" width="60" height="30" as="geometry" />
        </mxCell>
        <mxCell id="p3jbJ6K5ewjt9FPkehxN-40" style="edgeStyle=orthogonalEdgeStyle;rounded=0;orthogonalLoop=1;jettySize=auto;html=1;exitX=0.5;exitY=1;exitDx=0;exitDy=0;strokeWidth=3;curved=1;startArrow=classic;startFill=1;fontSize=18;" edge="1" parent="1" source="p3jbJ6K5ewjt9FPkehxN-35" target="p3jbJ6K5ewjt9FPkehxN-30">
          <mxGeometry relative="1" as="geometry" />
        </mxCell>
        <mxCell id="p3jbJ6K5ewjt9FPkehxN-35" value="&lt;font style=&quot;font-size: 30px;&quot;&gt;&lt;b&gt;Retriever&lt;/b&gt;&lt;/font&gt;" style="rounded=1;whiteSpace=wrap;html=1;fontSize=18;strokeWidth=3;fillColor=#e1d5e7;strokeColor=#9673a6;" vertex="1" parent="1">
          <mxGeometry x="665.64" y="291.3299999999999" width="250" height="130" as="geometry" />
        </mxCell>
        <mxCell id="p3jbJ6K5ewjt9FPkehxN-39" style="edgeStyle=orthogonalEdgeStyle;rounded=0;orthogonalLoop=1;jettySize=auto;html=1;exitX=0.5;exitY=1;exitDx=0;exitDy=0;entryX=0.5;entryY=0;entryDx=0;entryDy=0;entryPerimeter=0;strokeWidth=3;curved=1;startArrow=classic;startFill=1;fontSize=18;" edge="1" parent="1" source="p3jbJ6K5ewjt9FPkehxN-35" target="p3jbJ6K5ewjt9FPkehxN-23">
          <mxGeometry relative="1" as="geometry" />
        </mxCell>
      </root>
    </mxGraphModel>
  </diagram>
  <diagram id="kMuHTmhuSVx-yPHIoJzA" name="resource-upload">
    <mxGraphModel dx="1234" dy="883" grid="1" gridSize="10" guides="1" tooltips="1" connect="1" arrows="1" fold="1" page="1" pageScale="1" pageWidth="1169" pageHeight="827" math="0" shadow="0">
      <root>
        <mxCell id="0" />
        <mxCell id="1" parent="0" />
        <mxCell id="1Gy_Q1dNtSDBWz6dkGcF-1" value="" style="verticalLabelPosition=bottom;verticalAlign=top;html=1;shadow=0;dashed=0;strokeWidth=3;shape=mxgraph.android.phone2;strokeColor=#c0c0c0;fontSize=18;" vertex="1" parent="1">
          <mxGeometry x="85" y="230.31999999999994" width="102.56" height="200" as="geometry" />
        </mxCell>
        <mxCell id="1Gy_Q1dNtSDBWz6dkGcF-2" style="edgeStyle=orthogonalEdgeStyle;rounded=0;orthogonalLoop=1;jettySize=auto;html=1;exitX=1;exitY=0.5;exitDx=0;exitDy=0;entryX=0;entryY=0.5;entryDx=0;entryDy=0;curved=1;strokeWidth=3;fontSize=18;" edge="1" parent="1" source="1Gy_Q1dNtSDBWz6dkGcF-4" target="1Gy_Q1dNtSDBWz6dkGcF-14">
          <mxGeometry relative="1" as="geometry" />
        </mxCell>
        <mxCell id="1Gy_Q1dNtSDBWz6dkGcF-3" style="edgeStyle=orthogonalEdgeStyle;rounded=0;orthogonalLoop=1;jettySize=auto;html=1;exitX=1;exitY=0.5;exitDx=0;exitDy=0;entryX=0;entryY=0.5;entryDx=0;entryDy=0;curved=1;strokeWidth=3;fontSize=18;" edge="1" parent="1" source="1Gy_Q1dNtSDBWz6dkGcF-4" target="1Gy_Q1dNtSDBWz6dkGcF-8">
          <mxGeometry relative="1" as="geometry">
            <Array as="points">
              <mxPoint x="565" y="330.31999999999994" />
              <mxPoint x="565" y="210.31999999999994" />
            </Array>
          </mxGeometry>
        </mxCell>
        <mxCell id="1Gy_Q1dNtSDBWz6dkGcF-4" value="&lt;div&gt;&lt;br&gt;&lt;/div&gt;&lt;div&gt;&lt;br&gt;&lt;/div&gt;&lt;div&gt;&lt;br&gt;&lt;/div&gt;&lt;div&gt;&lt;br&gt;&lt;/div&gt;web_api" style="rounded=1;whiteSpace=wrap;html=1;fontSize=18;strokeWidth=3;" vertex="1" parent="1">
          <mxGeometry x="335" y="270.31999999999994" width="180" height="120" as="geometry" />
        </mxCell>
        <mxCell id="1Gy_Q1dNtSDBWz6dkGcF-5" value="front-end" style="text;html=1;align=center;verticalAlign=middle;resizable=0;points=[];autosize=1;strokeColor=none;fillColor=none;fontSize=18;strokeWidth=3;" vertex="1" parent="1">
          <mxGeometry x="86.27999999999997" y="310.31999999999994" width="100" height="40" as="geometry" />
        </mxCell>
        <mxCell id="1Gy_Q1dNtSDBWz6dkGcF-6" value="" style="shape=image;verticalLabelPosition=bottom;labelBackgroundColor=default;verticalAlign=top;aspect=fixed;imageAspect=0;editableCssRules=.*;image=data:image/svg+xml,PHN2ZyB4bWxucz0iaHR0cDovL3d3dy53My5vcmcvMjAwMC9zdmciIHZpZXdCb3g9IjAgLTAuMTMxNTAyOTg1OTU0Mjg0NjcgMTI4LjAxNDMxMjc0NDE0MDYyIDEyOC4xNDYxNjM5NDA0Mjk3IiB3aWR0aD0iMTI4LjAxNDMxMjc0NDE0MDYyIiBoZWlnaHQ9IjEyOC4xNDYxNjM5NDA0Mjk3Ij48cGF0aCBmaWxsPSIjMDQ5Njg4IiBkPSJNNTYuODEzIDEyNy41ODZjLTEuOTAzLS4yMjctMy44OTktLjUyLTQuNDM0LS42NTJhNDguMDc4IDQ4LjA3OCAwIDAwLTIuMzc1LS41IDM2LjA0MiAzNi4wNDIgMCAwMS0yLjcwMy0uNjMzYy00LjE0NS0xLjE4OC00LjQ0Mi0xLjI4NS03LjU2Ny0yLjU2My0yLjg3NS0xLjE3Mi04LjE3Mi0zLjkxLTkuOTg0LTUuMTU2LS40OTYtLjM0NC0uOTYtLjYyMS0xLjAzMS0uNjIxLS4wNyAwLTEuMjMtLjgxNi0yLjU3OC0xLjgxMy04LjU3LTYuMzQzLTE1LjAwNC0xNC4wNDMtMTkuNjUzLTIzLjUyNy0uOC0xLjYyOS0xLjQ1My0zLjA3NC0xLjQ1My0zLjIxIDAtLjEzNC0uMTQ0LS41MDUtLjMyLS44MTctLjM2My0uNjQ5LS44OC0yLjA0Ny0xLjI5Ny0zLjQ5MmEyMC4wNDcgMjAuMDQ3IDAgMDAtLjYyNS0xLjgxM2MtLjE5NS0uNDYtLjM1Mi0xLjAyLS4zNTItMS4yNDYgMC0uMjI3LS4xOTUtLjk2NS0uNDMzLTEuNjQ1LS4yMzgtLjY3NS0uNDMtMS40NzItLjQzLTEuNzcgMC0uMjk2LS4xODctMS4zMi0uNDE4LTIuMjc2Qy41OTggNzMuNDkyIDAgNjcuMzc5IDAgNjMuOTUzYzAtMy40MjIuNTk4LTkuNTM1IDEuMTYtMTEuODk0LjIzLS45NTcuNDE4LTIgLjQxOC0yLjMyIDAtLjMyMS4xNDUtLjk1LjMyLTEuNC4xOC0uNDQ4LjQxLTEuMjUzLjUxNi0xLjc4OC4xMS0uNTM1LjM2LTEuNDU3LjU2My0yLjA1NWwuNTktMS43MjZjLjQzMy0xLjI5My44MzUtMi4zODcgMS4wMjctMi44MTMuMTEtLjIzOC41MzktMS4yMS45NTctMi4xNi42NzYtMS41MzUgMi4xMjUtNC40MyAyLjk3Mi01Ljk0NS4zMDktLjU1NS40MjYtLjczOSAyLjA5OC0zLjM1MiAyLjY0OS00LjE0OCA3LjE3Ni05LjMwOSAxMS4zOS0xMi45ODggMS40ODUtMS4yOTcgNi40NDYtNS4wNjMgNi42NjktNS4wNjMuMDYyIDAgLjUzLS4yODEgMS4wNDMtLjYyNSAxLjM0Ny0uOTAyIDIuNjY4LTEuNjY4IDQuMzktMi41MzFhNTMuMDYgNTMuMDYgMCAwMDEuODM2LS45NTNjLjI4NS0uMTY0LjgyLS40MSAzLjU2Ny0xLjY0LjYwNS0uMjcgMS4yNTctLjUxNiAzLjEzNi0xLjE3My40MTQtLjE0NCAxLjI0Ni0uNDQ5IDEuODQtLjY3Mi41OTgtLjIyMiAxLjMwMS0uNDA2IDEuNTYzLS40MDYuMjU4IDAgLjkzNy0uMTggMS41MDgtLjQwMi41Ny0uMjIzIDEuNjA1LS40NzcgMi4zMDQtLjU2My42OTYtLjA4MiAxLjYyMS0uMjc3IDIuMDU1LS40My40My0uMTQ4IDEuNjEtLjM0IDIuNjIxLS40MjVhNzIuNTcyIDcyLjU3MiAwIDAwMy45NDEtLjQ2NWMyLjY4OC0uMzk0IDguNTMyLS4zOTQgMTEuMTkyIDBhNzUuMDIgNzUuMDIgMCAwMDMuNzgxLjQ0NWMuOTUzLjA3OSAyLjE2OC4yNzggMi43MDMuNDQyLjUzNS4xNiAxLjQ2MS4zNiAyLjA1NS40MzMuNTk0LjA3OSAxLjU5NC4zMjUgMi4yMjIuNTUxLjYzLjIzIDEuMzQ0LjQxNCAxLjU5LjQxNHMuNzU0LjEzNyAxLjEyNS4zMDljLjM3NS4xNjggMS4xNjguNDQ5IDEuNzY2LjYyNS41OTQuMTggMS42MTMuNTM1IDIuMjcuNzk3LjY1Mi4yNjEgMS41MjcuNjA1IDEuOTQ1Ljc2MS43Ny4yOSA2LjQ2IDMuMTM3IDcuMjM0IDMuNjIyIDYuMjgxIDMuOTE3IDkuNTEyIDYuNDc2IDEzLjg1NiAxMC45NjQgNS4yMzggNS40MTQgOC43MTUgMTAuNTcgMTIuMjU0IDE4LjE2LjI1LjUzNi42MzIgMS4zMjkuODUxIDEuNzU4LjIxNS40MzQuMzk1Ljk0Mi4zOTUgMS4xMyAwIC4xOS4xOC43Ni40MDIgMS4yNjkuNjAyIDEuMzgzIDEuMTE3IDIuOTU3IDEuMzYgNC4xNi4xMi41OS4zNDMgMS4zMi40OTUgMS42MjEuMTUzLjMuMzMyIDEuMDYzLjQwMyAxLjY4OC4wNy42MjQuMjc3IDEuNjQ4LjQ1MyAyLjI2OSAxLjAyIDMuNTMxIDEuNTI3IDEzLjkzNC45MSAxOC41MzUtLjE4MyAxLjM2Ny0uMzkgMy4wMi0uNDYgMy42NzItLjExOCAxLjExNy0uNzA4IDQuMDA0LTEuMjEyIDUuOTQ1bC0uNTIgMi4wNTVjLS45OCAzLjk1Ny0zLjQwMiA5LjU5NC02LjM1OSAxNC44MDktMS4xNzIgMi4wNy01LjEwMSA3LjY2OC01Ljg0MyA4LjMyNC0uMDY3LjA1OC0uMzk5LjQ1LS43MzUuODYzLS4zMzYuNDE4LTEuNDE0IDEuNTg2LTIuMzkgMi41OTQtNC4zMDEgNC40NDEtNy43NyA3LjE4Ny0xMy44NiAxMC45NjktLjcyMi40NDktNi44NDcgMy40NDEtNy45OTIgMy45MDYtLjU5NC4yMzgtMS41ODYuNjQtMi4yMDMuODktLjYxMy4yNDctMS4yOTcuNDU0LTEuNTEyLjQ1OC0uMjE1LjAwMy0uNzgxLjE5NS0xLjI1OC40MjUtLjQ3Ni4yMy0xLjA4Mi40MjItMS4zNTEuNDI2LS4yNjYuMDA0LTEuMDQzLjE5Mi0xLjcyNy40MTgtLjY4My4yMy0xLjYzMy40NzctMi4xMS41NS0uNDc2LjA3NS0xLjQ5NS4yNzgtMi4yNjkuNDUtLjc3My4xNzItMy4xMS41MDgtNS4xODcuNzQ2YTU5LjA2IDU5LjA2IDAgMDEtMTMuOTQ1LS4wMzF6bTQuNzAzLTEyLjVjLjMtLjIzNC42MDktLjcuNjkxLTEuMDI3LjE4LS43MjMgMjkuMjM0LTU4Ljk3IDI5Ljc4MS01OS43LjQ2MS0uNjE3LjUwNC0xLjYwNS4wODItMS45NTMtLjIyMi0uMTg3LTMuMDA0LS4yNDYtMTAuNDMtLjIzNC01LjU3LjAxMi0xMC4yNTMuMDE2LTEwLjQwNi4wMTItLjIyNi0uMDA4LS4yNzMtMy43My0uMjUtMTkuNjcyLjAxNi0xMC44MTctLjAzNS0xOS43NjYtLjExMy0xOS44OS0uMDc4LS4xMjYtLjM4My0uMjI3LS42OC0uMjI3LS40MTggMC0uNjEzLjE4LS44Ny44MDgtLjQ4NSAxLjE2OC0xLjgyNSAzLjgyLTguMzQ4IDE2LjQ4NWEzNTU0LjU2OSAzNTU0LjU2OSAwIDAwLTQuMDU1IDcuODljLTEuMTU2IDIuMjYyLTIuOTggNS44MTMtNC4wNDcgNy44OWE4NzUxLjI0OCA4NzUxLjI0OCAwIDAwLTguNTk4IDE2Ljc1OWMtNC45MzMgOS42MzYtNS41MyAxMC43ODUtNS43NDIgMTEuMDM5LS40MS40OTYtLjYzMyAxLjY0LS40MDIgMi4wNy4yMS4zOTQuNjI5LjQxIDExLjA0My4zOTQgNS45NTMtLjAwNyAxMC44NjMuMDI0IDEwLjkxNC4wNy4xMzcuMTQxLjA4NiAzNy4zMS0uMDU1IDM4LjE5Ni0uMDkzLjU4Mi0uMDMxLjg5LjIzNSAxLjE1Ni40Ni40NjEuNTg2LjQ1NyAxLjI1LS4wNjZ6bTAgMCIvPjwvc3ZnPg==;strokeWidth=3;fontSize=18;" vertex="1" parent="1">
          <mxGeometry x="391.25" y="285.31999999999994" width="70" height="70" as="geometry" />
        </mxCell>
        <mxCell id="1Gy_Q1dNtSDBWz6dkGcF-7" style="edgeStyle=orthogonalEdgeStyle;rounded=0;orthogonalLoop=1;jettySize=auto;html=1;exitX=1.018;exitY=0.5;exitDx=0;exitDy=0;strokeWidth=3;entryX=0;entryY=0.5;entryDx=0;entryDy=0;exitPerimeter=0;curved=1;fontSize=18;" edge="1" parent="1" source="1Gy_Q1dNtSDBWz6dkGcF-1" target="1Gy_Q1dNtSDBWz6dkGcF-4">
          <mxGeometry relative="1" as="geometry">
            <mxPoint x="235" y="320.31999999999994" as="sourcePoint" />
          </mxGeometry>
        </mxCell>
        <mxCell id="1Gy_Q1dNtSDBWz6dkGcF-8" value="embedding&lt;div&gt;extractor&lt;/div&gt;" style="rounded=1;whiteSpace=wrap;html=1;fontSize=18;strokeWidth=3;" vertex="1" parent="1">
          <mxGeometry x="655" y="170.32" width="155" height="80" as="geometry" />
        </mxCell>
        <mxCell id="1Gy_Q1dNtSDBWz6dkGcF-9" value="&lt;div&gt;&lt;span style=&quot;background-color: transparent; color: light-dark(rgb(0, 0, 0), rgb(255, 255, 255));&quot;&gt;&lt;br&gt;&lt;/span&gt;&lt;/div&gt;&lt;div&gt;&lt;span style=&quot;background-color: transparent; color: light-dark(rgb(0, 0, 0), rgb(255, 255, 255));&quot;&gt;&lt;br&gt;&lt;/span&gt;&lt;/div&gt;&lt;div&gt;&lt;span style=&quot;background-color: transparent; color: light-dark(rgb(0, 0, 0), rgb(255, 255, 255));&quot;&gt;&lt;br&gt;&lt;/span&gt;&lt;/div&gt;&lt;div&gt;&lt;span style=&quot;background-color: transparent; color: light-dark(rgb(0, 0, 0), rgb(255, 255, 255));&quot;&gt;&lt;br&gt;&lt;/span&gt;&lt;/div&gt;&lt;div&gt;Object storage&lt;/div&gt;" style="shape=cylinder3;whiteSpace=wrap;html=1;boundedLbl=1;backgroundOutline=1;size=15;fontSize=18;strokeWidth=3;" vertex="1" parent="1">
          <mxGeometry x="945" y="470.31999999999994" width="138.75" height="160" as="geometry" />
        </mxCell>
        <mxCell id="1Gy_Q1dNtSDBWz6dkGcF-10" value="" style="shape=image;verticalLabelPosition=bottom;labelBackgroundColor=default;verticalAlign=top;aspect=fixed;imageAspect=0;image=data:image/png,iVBORw0KGgoAAAANSUhEUgAAAgAAAAIACAYAAAD0eNT6AABAIUlEQVR42uzdeZDc533f+c/TPQeOwQAgbhIgeN83KVKiLuvwyrQOS2A5cda12ViViuPU2rveSly72Qi8vOWtytbWblJbe1S5nKRStX9sCZRlO461sq1IcXRRBynqoMRTPEAAxDWY7v4dz/P97h+/7kGjOQAGM93TPxDvV9XUYA7MgN2c+X6e73NNCAAAXHImeAgAACAAAAAAAgAAACAAAAAAAgAAACAAAAAAAgAAACAAAAAAAgAAACAAAAAAAgAAACAAAAAAAgAAACAAAAAAAgAAACAAAAAAAgAAACAAAABAAAAAAAQAAABAAAAAAAQAAABAAAAAAAQAAABAAAAAAAQAAABAAAAAAAQAAABAAAAAAAQAAABAAAAAAAQAAABAAAAAAAQAAABAAAAAgAAAAAAIAAAAgAAAAAAIAAAAgAAAAAAIAAAAgAAAAAAIAAAAgAAAAAAIAAAAgAAAAAAIAAAAgAAAAAAIAAAAgAAAAAAIAAAAgAAAAAABAAAAEAAAAAAB4GLxxMMTQdKUpLsajcavhRDukXR9CGEHTzWWwyWT++su/4FcP3T3p9z9y5JOfe7zMfEIASAAjLv475uYlvSRoPD7W3dsvfu+++/Tjl07dNnWLVq3cYOUjGcby0gA3jg1d2rv4UOH9x45fPgTr//8df3khz85HkL4l4/va/6LEMLxz30+8j8XAALAmEb9VwSFx7bt3P7Zhz71kPbceK2Ul71f4BIDNazAhtkN2rBxVtfeeJ0UGsrmW5u/8qW/3v/tb37nPw9Bv/X4vuZ/2H8glTxSAAgAq1j8zezGTZs3/eGDv/C+B2+/4zZNz6yXskJSqD4pBJ5lrLAL0PeipDXr1uqXPvWQbr79luu+/jdf//xzzz73e4/va/7R/gOp4MECQABYheLv7ldv2rzpDz/y0EcfvPX+e6Us7472XW5Rbia59X5zA8sTghQaCt0XqSk1gvbeeJ02b908G6R//uNnn2s88fDE/826AAAEgBEzs9m169b+9+//8AcevPWB+6R2JrnJYqaifUz58VdVdo4r5fPysiWFBs82llP9FSbXanLtJk2smdXEus2amtmp5uRaBZdmt23VQ7/yyxuyTvZ7z//0pWclfY3HDAABYHSj/4aZPXDZli1//+bbb5XyQhYz5SdeV+vQs4rt41JjQiEEKQSFiTU801hB2ixVzB9WceqQJFNoTGrtluu0bvuNmggbNLtxk26949arXvjZq7/7+D7/9v4DKeNBA0AAGM3of+PMzMzvfPCjv6A1GzeqPH5QrYPPqPPWS2pMTClMTPPMYrhdgBC6y0qaklztwz9WfuLn2rD7Xk1vv1Y3336bXnrxpQeefuqHH5P0xzxmAAgAI+Du2zfMbvj4dbfcqHjsNZ18+RsqW2+pMUnhxyoFguakrOzo5Cvf0IZyXut336Xrb7zh8u9+84cfIQAAIACMwBP7Jiabk82PX33dNfLU0smXv6HYPqoGo36stkZT7lGn3nhWk9NrtGXrNm3Zuv6mRz/dnnn0Cz7PAwSAADBEZrZz3fT6377r3tvUevm7KlpvUfwxvl5AaMotav7gjzUxfZV27b5yz09++OO7xWJAAASAIY7+H55oKuihnbt2XLX1srU6+L3n1GCBH8YdAhpNlZ2TmgiHtHXb5t0p6RYCAAACwHBH/5vXrV//3370lz+sk698T6ExyTOIWnAFTTdybZjMZ0KjcbPE6cAACADDGv0HSR/ddcWuG7dfvl1vfusvFQKXGaIubYAgK1pa00ya3bRh76Ofnlvz6Bec7YAACAArHmGZz05NT/3Tj3zsw+q8+dPqjH/O9kF9EoBSippZP62tWzft/fncyZskfZ/HBQABYKWj/6APXL77itt3XrlTh7/3danJ6B/1YibNrJvU5o3TV71kupkAAIAAsNLRv/tUs9n87z7ysQ8pO/S8Uj6vRnOKZw/1+v9U0top18x03ByTbuQRAUAAWOnoX7p31+WXP3j53l068vSfKDRZ/Id6Cl5owxpp7fo11z3+mXJy/5NcEwyAALD8X6oh/N57P/Ae5UdfVcznGP2jrv+nKsVSmzZu0M6dW686+OpreyU9z+MCgACwPDdv27H9E9def7WO/+xLjP5Ra2aujbNrtGXT2pt//pLuJAAAIAAsl+t373vg3qZnRxU7J9j7j5oHAGn9OmnLxsnLQqNxl2Sf51EBQAC4QE88PLFr0+ZNv3br7Tdr7pWvKjRY+Y+aCw15bGvz7KQu23bZ7Y/+ytFNj/6xn+CBAUAAuKDRlP2D2++6fWZSbRXzRxWaTbnzpKHOAUAq8lybN23Vzh3bbj9+5K3bxbHAAAgAFzT637Bm7drfvO+B+3Ti9W9LIcip/qg7l5K5Ltu6VpdtbF2ZF7qfAACAAHBhfu2m227atW7aNHfyzWpoRf3HRdIG8HJeO7atn9i2ffODj3765L969At2lMcFAAFgCYoi/tfvee+DOvnas9WxvyHwbOEiqf8NdeaOac/lN+qa667+0FNf/+6Dkv6EBwYAAeA8Ht/X/NBV11x10+bZaR169dVq4E/7HxeRmKI2TLmuumrn5p/+eP0vPfaZ9pcfedI7PDIACADn+uVZpt998IPva84ffk5uURKjf1xsXYCmslNvae/u67V7756//aNnfvKkpC/zwGA59n9Kt6WoB1LSu9y1OzTUsKjEr0Ys/Mpp6GCzoZ9MTOqrj39RT12UAeDxfc1rt2y97AO7r9im4899pzvwZ/SPi++nsTN3RFu3X6+77r1ry5uvv/7ZRz89/71Hv+CsBcB5PfaZxvpY2i+WUe9pBN2/+8ordlyxe/f2y/dcvmV246xCCHJzxkbo/cLR/Mk5vfXWW/OvvPjyG4/8ys+/1Wg0HnvkSXv+ogoA7vYbd7/rvpni5KuKZcHziouWp6TOyUO6+aZ79KNnrvyV7377h38j6X/nkcE5RvoPxlK/sWbNmnuuuePanXv27Nl2+e5dk+s3zGjdunVas26tNMlhaBis/0EqShV5NnP3g/ff8OPvPXPDX33pr+999NP+jx79gn/loggATzw8MdVuxV+/9Y5bm61X/pKRPy7un8nmhNrHXtXsjuv04Ac/sO7QwTcf+WcfP/qD3/8zfZVHBwOF/yOx1G9ee/0199921+1X7r5yd1i/fr3Wrl2rxpppyU0yr9ZCFQyMsHgImFqzRlPr1+v+9z+oDRs23PynT/7pv37008WnH/2Cf6/2AcDM/tb9771nV6M8ppi1WfeHi1xDZd7RycMva89179GH/rMPbfvzL/75P9//ydavP/4n3BEA6dFPh+tj6f/TTbfc+O477r3z8iv3XqmZmRmFqcnqXGl3qYxSaEih2X2t7uCowQOIPi7JpGiaaDZ12313K8/zK7/07770R499Jn74kSftWK0DQJHbP3z3+x6cah/5vswSzycu/lDeaKp15CWtvWyPbnn3Ayry/F1f/vdf/qP9n+r8xuNfJARc0qP+T+ofb9+5/bfuvOeua+64+w6t37BeodGsin5M3YIfJE9SdlgqDkv5W5K1q9/1zP9jofa71FwnTW6UpndKa3cpqKG73vOAThw/fudT3/jO3318X/l/7D+Q8loGgMc+07h/z1V7b5lZ6+HEa8cY/eOd0wUoOpp782faMrNVd77vweDu7/2rv/jLP3rkU53PPvZF/YzH6JIb9d9T5P6/3HHv7fd+5GMfnZnZMKOJqanql7irKvyxJeVvdIv+Ucmi5L0X40HE28W56v+X1ovS1GZp452aWLdd9z5wn37w/Wf/YVEU/0ZSPQNAWdpv3feed83mR1+SxYJ9/3jnRIBGU+0jL2l6/RZt3HuX7nrfg6HZaLz3//v3X/6LR36l/duP/bH+jEfpkhn1//qVV+/9/bvvu+uqG26+Uetm1ldFv1f4W69KrZ9J8UQ18vcoWeo7CC1U0wDAop2AJClJ+WHpyH+QLnuXNu26Whs3bbqhNd/aK505DVCLAPDYZxpbZjZs+OjeKy9vzr3wVzKKP95RgqSgk68/o8n1m7Ru27W6493vChs2zl79xQNf/Lf/w8fn/vX0dPPR/QcStwa+g33uk/on1954zT/5+Kc+sW3ztsvUaDSk3mC+83Np/qdSPClZqdMLoCn4uNDfNb0wkEvHvq6wZka7rtgVDh18874nHtYPPvf5GGsVAFKyX73trts3lXOvKRYdLv3BO/DnMigWuY6//B1NTK3T1OwuXXvTDfrN/+o3Nz39vad/62t//R//9iOfav+LicmJf/m5z8d5HrB3WPH/hP63G2+54bOf/MwnZ2Y3b+y+tyEVR+QnvyeVJ6vR/sLkPhP8GEIY8Khw7JuanZlUo9G8IsbYlFSvABCjfu3WO25bn731lCxFnje8Q38eG8pOHdOh576q7Td8QNMbd2j97AY98IEHp264+cadP/je049+8z9967959NPpjxuNxv+z/0D6ax60i98/+4T+7W133fK3fumTD03Obt7YHfUn+cnvS/MvSl4uPoIDVqwhFSc0qUlJvmHwUp2xB4BHPx1uu3zPFTdMqxXms/nu6J8fArxzQ0B+6pgOP/dVbb/hfZqe3aGmgrZu26oPfvRDU+9+/4Pbf/rjn372h99/9r/4H3/15bmU0vOS2BJzMT7VIXiRx2vueddduz768V9szszOVgP8/KD8+HelOC/OOsFqdAJidlLyM3cA1CIApOh/546779qcHXtZqSw4+heXRidg/pjeeOYvtOXad2vDjmsVGg01Gg2tXbtWd9x9R/P2u25vFnmx5tjRY9vMWPV9kRV+NZoNfeVLf62pNdPhww99RFXxb8hP/Uia+5FkOQMdrNb/kCrzttz9lMKZxXWsAeCJhydClqWPX7ln25r8jZdkKXHtLy4RDcVY6s0ff0Xt469py9X3anLNhoUCEkLQmrVrdPnuy/mBuMj42jX62p9+SWvWrtWHf+nDmt28WTKTn/iONP98d6U2TytWTxldLmVBNQoAKaU7r7nh6m1p/s1q9C9n8I9Lrhsw9+YLOnX4ZW264mZt3nOrmpPrFEIgDF+Mpqf03FPf14njx/WBD79fG7dskcpSfvybUvtV8QsO41CUSXKd1Ol9JzUIANE/dv0N183mJ15Tijntf1y6o0ZLOvrzZ3Ts1R9qZuseze64Tus276pOhsPFkeWaTZ06dER/9aW/1APvfbe27NwhxUx+9G+k7E1G/RjT/5hSUbpcetuik7EFgCcenmjkuT20a/vMjE4UsuSMeHCJa8jdNXf4Fc0deklqNDW1trr6FcNMW9UvxbPtNu5/vw/8PV/4nIFuZZAmJpr66jdf0HU33Knb7rxT8iR/6+sUf4xdGV3untUmAMSYbrnququuDp1DsrI486cLuLQDe3X4i7vKFmcDLZX54rX+jILuvnDirnVP4OtdsmfdjyU7/Wfr+7ibqmlKaeFjPc1m0KtvnNDMlr164H0Panr9Gvnh/yhlb/DEYOy/UMrSJK9RByBF/8T1N1x7Wdl6TV6WfTdcAcDoBv8LoWCg+C8U+74C7/0vkpK/vRsQgtTJog4fK3X/h+/Sxh07pMNf7875i9E/xp4AelMAn/t8rEcAMNc9m2aaM43MFNn7D2Alhf0so//+j7n7GcVdA8U/dW/fTXbm6L+6ldfldnoF1cLOzCA1g/TawTnded99uvbGG6STP5PPv1it9ucYX9RAWZrc1Rp8//gWAQbtsuyolEqO/gUwmgAwMG/fP6rvjfbNfKHQm0uWXNYt8sm7f89OTxtUN5V3v2pDmmvlmlgzq9vuuUdr1pv8tael1JLCJE8M6tAAUBlNLq9PAAiNMN05flBT63o/qIQAAMMp/osFgN5IX30hIPnpAJCSZPIzRv4L3QD1OgGn1wK4pOBBh99q6ZZ7bte2HVulI09J5QkpTPDEoB66a1rkKusTABS8LAuZTy26eOecP/BnfQMAIeDtAaDX/l8o4r3RvHl30d/pDkD/28m6r7vfpNcV6MmyQlPrNurGW2/TdPOwvP366WEXMP7Bv7xM8m5TqzYBYOEf535BUwA+0NJzD32LekgDwCU3wPG3l1tb+P3SK/beFwb65vu7q/1jr9An73YF+qYGFtYFhKqL0J0OCKGhQ4dP6bZ77tP27euk49+VrEPrH7VKAGVh1THAiwyXx7kGYKH4X2gAMElurmhSTFbN5fW27vCUA5fW6P8cHYHTK/h9YNV/3yi/b2RvfQEg2ekOQa97kPz0NsCUoqI3deXV12jt9DH5sSOqyQWrwIIierUAMNQpAGh5AaD3Q1smV5mqxF5EKXZ/cAFc2sW/9wEfmP9fmL/vDwCqCvxCq9/8zNa/m8xC93O7X6fbDWjNzevOu2/T1XtnpRM/kayUGoz+UacOQOguAFSmuk0BuJ8+mGPJAcCqYl9G18mO6+U3c7Vap6oFPAQAgCDgpwcLgx2BM3YB6PR2wNhd3d9b7LdYp6CaPqimAUJoatNa13XXX6sN61vyQ4flLPxD3eq/uscAu+aDQt06AJKbyX3pC2bMqwBQlKYjx0s99dqs7nvPPk4RBnDmwEL964x62wCrEbzJqu1+Vr0vJatem8nMqrfNu1MAqfpzqtKChQllJ17X3ity7b18Ruq8KbcoNaZYlIza6a4BmK9fB0B+xvGa5/uh7nUAyuTKS6ndyXXd9Q/odx79VzzLAJYsSkpRKsuklKLKslRZloplVFEWKotCMUbFFFUWpcpYKsYoN1eYXK+ffe0PtXviB9q0Mcnn3mTbH2qriIsfAzz2ANC/Kve8ib77+TFWLY2sdHVKKcsySVKn0+GZBi650b4v+j7rHtVnZgvrjKqRfTrjJcaq+Pdel2WpoiiUUlp4f+8lpSQzqcjbOvnG07rrNtfkZCYr21JzmicD9Qy71RqATq06AEFB7lX7/7wBwE7PzRVRynJTOzd1clfejMrLpLm5OZ5pgOK/UPj7A4B1W/v9IaC/uBfdEX9/GOh/3fs7pkkdf+XbunyT65orL5PmXpOajP5RU6F3E6DatesA9Fbkni8A9Ip/GavWf2lSVkhZ4conoo4fP6W5kyd5sgECwNuCwGAA6C/o/SP/XhhY7O3q802lNzT35nO6+8ZSm7Y05UePs+8ftVaUJjefU93WAJiWGABMKs2VJ2mu7fr+ix29eTjTwaNSa/oF/fmf/5na81ybClzKxb/3/hDCGVuM+19SSguve92AGOMZfx7sEPSCQ5lcTevo2um3dOWuWQU/KfPAoX+odQugKF0mtWrXAZC6yXwJUwApuspSOtkq9cqpTfrE3/tt5THJmjO6YtcOxbiZ5xq4xINAfwegf+5/cA1AfyegN8Lvjfx7b58x/x+joibVef3b2nOFtGf3ZdLcT6VGkycBda7/KqNJ8nqtAVCo/jlL6gB0L+qI0ZUVUdu2bdev/+Y/5ckFsGgoGCz8vYLfX/T7F/3leb7o67Isled51f4vo06GH+na3R2tmQmyQx2puYYHHLUWk0umtmo3BeBLnwJIpu7Rv5KlWP2Hddtz/XN2vRYfVwwDl2YHoH/+/1yL/3oFvhcCeoW/V/R7CwPzPJd5Q+2jL2pH87iu3rNJ6hxm7h8XRwegTDKpZncBSFVvf0k/5NUPdu+YzoWTvswWfnDNTJ1OZ2ELDwEAuLSKf//7lrL6v1f4F+sE9EJALygU1lDrjR/p9mtb2nnlVfK3XqT9j4tCXppcOhVCjToAp6/jPP8RvgufZ6eP5Ox1AIqi0Ouvv66vfvWryrKM4g9c4qFg8I6RlNLC68FAMDjfPzj3Xx0GZApe6vp1B3XNldvVDC2ZJanB9j/UvQMQFKPLzbPFPjy+/4O7F3H0rtw8X1hwefX53bckLaT0gwcP6siRI/rlX/5lnnDgEu8ADC4APNvCv960Ya/t39/6743+y7JUkZpqH3xa1+9o6obrLpdOPselP7holKVJrpZqdxRw9xxuW9IagN4tXKc/vyxLZVmmLMu0fft23X///TzbALq/N+xt2/v65/V7hb/3O6TT6SjP84W3qyBQqN3pqEwN3XT1Rq2dbcgOzskbUzzAuAg6AN3rgKX5z30+1igA9K7mtL67u8/yqam//d+9o7sXAHprAGKsFgYWRcGTDlyiXYD+uf/efv/+ANA/0h8MAIMvRVEoj9Kpgz/RTntFN15/g9R+Q87Gf1xUHQCXVx0A1SYAmEvRXCm50nk6AMlUfV739q5qQaDO+IEenO8DcGkV/8EDf/rn+wf3+vdCQS8E9AYSvT/HGJUXpbJ2W832y7rpho3adsVlsoPPVhf/sMwIF8UPyRm3AdYnACSvinoRTx8EdLafqdg9BjimbmgwV1GmhR/Y/tO86AAAl/bo/2wdgN6cf/+Wv96f+9+38P7S1T76gi73n+m22z6oRvGWUopc/IOLKgHEZFJ1GVCNAoBJeSlNNM+/CyCm6hKgMkpFqtYD5Hl2Rhuvf14PwKU3+u8PAIMLAAcv+Om1+IuiWJj7z/Nc7Xa7CgJF1PzcUa0vntP9916vrbs2yQ4+zeI/XDRCkBS9t/LPahUASgsqomui1MIUwNl271VhoXsRUOkqk6ndbqvT6SjLsoUQ0Gq11G63eeaBS3D03//n3nbgwbP9B0f7RVEszPn3QkCW5cqyjrI3vqXrNr2qu97z9xTaz8vKOanB6B8Xj1ia3L3QWRrs4wsA0dUpuvP2vtCtWPw/wqU8d3UKqYhBZUqaPzW/UPB7P7ynTp1Sq9XiWQfeoUU/hPC2ADB4/v/gXv/eGoD+m/76D/xZWPjX6aiIUVke1Tn0Y+1p/EgffehTmmrmSidfqOb+gYumAxCqmwBd85JSrQJAHqVW4UrSwul+fpbFtSlVHYBOIXVKU2GmEydP6NSpU5qfr4JAp9PRyZMnCQDAJTT6X8r1v4OH/fQCQP/pf3meK8tzFUVSeewn2pF9Tb/48Q9ozw3XyI4+I5XHGf3j4usARJO7stp1AIootTNXSlUH4FyH9yWrAkNWVC+5mY4fP6YTJ06o1WotdAKOHTvGFABwCRT+wfefLQD02v9nOwK4Nx2Qdff8+9FndEV4Wp/85Ad1073vUmgdlM1x8A8uwg6ApDKZ3H3RQ4DGGgA6hXQqk/JYbek7/cP89s81rw4zyEqpnUu5Jx09elTHjx9Xu93W/Py82u22jh49qk6nwzMPvMMKfwjhnGf/9xf/xaYBBi8OO30HQFQRTUX7uDa1vqU795ruf8/HdM0tt6pRtGRzP5NimwCAizIBFKfPAKhXAGgXrvlMmmj6ovcB9P+sm0tlOj1t0LGow4ePaO5EVfDn5uZ06tQpHTlyhAAAXCIj//MFgP5tgFUQOB0GyphUlFHeOax188/oiuYhffjD9+v+996vyclJBYuy1ovy1ouc+Y+LVncKYF6hZgFgoiGdaPtCAPBu0X/bj7pXUwS9rYDzmdQ205G3jurU3Anlea4Tc/Nqzbd16MhR5RnbAIF3WARYpPD3XttCEFj0HoC+LkAjPyK3qFDOabJ8SxvtkPZsCbr/g/fqtjs+pTXr1qnZbEoK8tar8uPPSKFRDaWAi7ADkBcul7ekUJ8A8Ae/OrHluTdtw5pJ14Zpac2U1AxL/RXQlOuEmj/6A02ruiRoV3BpRmo8+xWt44QuAAO/OVzSjh3b1Ww2tGnzJu3YsU1XX3e/du3epUYIajQaC8nC26/Kjn5DVde0wUOIizYBpKoD0A7jXAT4xMMTQdIuSZ8xs7+7YdPmO/bdvXd61+U7tXXbNm3fuV3T01ND+VEnqwNY/Pdh6L4KCpJCo3HmcMmTrPWS7Pj3JE/8NsFFr0hjXAPwxMMTDUmXmdk/2rR50+/cdOtNm++4+87G9p3bFRoNBfeFH0oAGJt4Sun40/L2z6XQpPjjndAAUJ4nufvcqgeAx/dNTLv7398wu2H/rXfcuv09739QM5s2Vpv6BxI5AKye3r5jl4qTsrmfyjqvdUf9TS76wTvmf/NYdQBW7xyA7qj/6pT0v950242feOiTD2l26xapLLvFP2jhLmB53w8jAIzw92Fxsvp9k+bl+Ql5dlheHu/+TgqM+vGO6wCU0eTS/Kp0AB7f12ymlB7csWvn/3nfu++75Y67btfU+vXVLT5SN2G7vDgpz4/I8xNSnJOXc5KVPGEAVuc3o9TtQLLID+9cZely92zkAeDxfc1GSvaxq6+76v/64Ed/YfdVV18lNRtSjJJMXszJ26/JWq9I5dzpH8TQTd6hybMFAMBQcu7CXQAnRxoAnnh4IsSYHrzyqj3/88c+/rHdO6++WiryquUfT8nmnpedekGyojpUg2IPAMBoOwBxFXYBFEW8bsfO7X/wgQ998Oadu3dLZSHFjuzU87K5n0gpr47S5DhNAABWRazuAugojGgR4GOfaa5LSf/4mhuued/VN15ftfTbR5SOf1eevVldoUnhBwBg9QSpLE1ytcIoOgBP7Gs2YvK/c8vtN/2D937og2pOT8pPvCQ79l15eVJqTPEkAAAwBmV0mTS///Nx+B2AskzXbN+57bPv/9AHNLtjh/zQD6ribxnFHwCAMXYAuosAW2f7lGUHgMf3NSct6VNXX3ftg5dfuUd+7GdKJ56RUoeWPwAAYxajS+7toQeAskzX795z+X95/4PvlnRK8ej3pfKk1JjmUQcAYJzSwkmA5VADwBP7JkIR7d1X7L3yjq27t8he/xspOyI114hzNAEAGJ8QJIsmyV1h8QWAyw4AKaUdW7Zu/sQNN10vtX6udOolKUxxpC8AADWQl0nu6lS9gCEGgDL6zdu27/jo3r1b5G89VRX+BudoAwAw/g5AUKwOAWqHc7TlLzgAPL6v2UgWbt2ydfOGqamWytabUpN5fwAA6iLG7iFAGuIUgJlt3XzZ1vddecWsdOKnHOsLAECdOgCq7uBzO/tNgMsLAMl3z26cfe8V29fJ51+uzvYHAAC1SQBFNJnU0jDXACTTzjWTcffshlLxqNEBAACgdh0Ak8lbQ+sAPL6v2TBvXLVxfZDiEbkY/QMAULcEEKNJrraGtQjQzNev37Duxm3bZqVsrtpsCAAA6lP/u7sAzLwzzHMAZiYnwuXr1wbJA0f+AABQQ9U9AD4XFIa0BiAEyWNQzCRNilP/AACoYQCICxcBDacDEKRoMbbKIuue+Z94lAEAqJOg3kFAQz0HIJp5FmOqBv80AAAAqBfvHQQ07ADg3i5Lq/YZAACAmnUAgorSJfchHgQUVCbzVpkY+gMAUFdlNJnrlIa3BiAkM2UxOh0AAABq2QGQyuhDvwsgunsnJhMJAACAeuquAWiHYZ0DsP9A9Mf3Ndt0AAAAqK/uFEBr/4E4zMuA1GYNAAAANRWC8tLl7nPn+rQLvwzIvR0juwAAAKirdHob4PACgLvy1O0A0AcAAKBuXLGq09lQA4CkmMyl6NXJwKQAAABqoTqx32VVcU5DDQAhqDBzxZgUFOT0AQAAqEsEUFEmmcl0ji2Ay+8AJMUYNdFsiHkAAABq1AEoo+Tu7aF3ACSV7p7HaBMTU00ebQAAaiSW3QWAYcgdgFCtAejE5OvZCQAAQI06AJKKtHAV8JA7AEGlmdoxOvUfAICaJYBYnQHQ1ijWAJhxFgAAALXsAFSnAM4HDX0KIERz78TkCgpiFSAAADUJACEoVhcBjWAKoOoA5DHRAQAAoG5itQYg09CnAIJiMrXKWL3J+B8AgLq0AKQiuqxaBDj0XQCFmbdiSgp0AAAAqJWyTNVFQGH4UwDJzPMy8SADAFCrBsDCQUCjmQIozbwdS1OgBQAAQL06ANHk5u2gMPxFgO7KUvJqAQCLAAAAqEcHwINSMrnUOV+FXs4agDKat8poPNIAANQqAUhFYTLzOUlxuB2AoOjm7RidbYAAANRMdw3AKM4BCDG58mR0AAAAqFsHoExJNoqjgB85ENPj+ya6HQBaAAAA1EmK3rsNcLhrACTJzDtsAwQAoH4dgN5dAI8ciKMIAGqX3cuA2AQAAEB9EkBZusx9/nyfubwA4N5JkdIPAEDdOgCx2qafjSQAuLxM5gz/AQCoEU+u5C65ypEEgKBQmrmq0wAlJwgAADDewX+QYnUKoBR03q16E8v8PkUy9xg9VAsBSAAAAIw5AqgoXGZe6DxnACy/AxAUzaxIyaYnJhrUfwAA6tABSCZJ7ZEFAEnRTFnsBgAAADB+MZnclQWNbgqgNFMnRm1srFnCdwEAACPVCFIsXWZ+3mOAlx0AQlBM5p2YuA8AAIC6KJPLTS2F0U0BFGbWLpNJCnL2AwIAMF4hqChN5t7SeW4CXH4HQKG3BoAHHACAmojJZO6d0a0BCIrJlaXEfUAAANSkAaCYXC51NMJFgIWZtWKkAwAAQF0UpcnMT2l0UwCKZp7FaNUaQJYAAAAw3g6AqpMAZaM8ByD0tgG62AYAAEA9xOgy984odwFEM8+TOWsAAACoQwcgBJXRZa5WUBjROQBSmczbMTrjfwAAatMBMHm1DXCEiwCTt8pkzAAAAFCHDoCkIppsxGsAornylKrVf6wBBABgvDxUawC6HYBRTQGEaO6dmIyDAAAAqEkHIJrJXJ2RBYD9B6I/9plmp0ysAQAAoB4JIKgsXe7q7D8Qz9ucX+4aACXzTuIyIAAAatMBKGOSuc8t5fOXHQBOnwMAAADqkABSktzUGWkAcK9OAnRzVgECADBmZq4ymlyejzQAKCiaVWkjBMkJAQAAjGfwH6QUvVeL01L+zrIDQFAokrmqK4GDaAMAADC2CKAymsxcQSEu5W9MrOC7Fck8xejNZjPQAQAAYIwdgKK7A0BBIw4AQdHNi2S+ttEMjP8BABgTlxSTVRcBLeEY4BUFgCCVqToMaO3UZINHHwCAcXUAJJXJ5b60Y4BX1gGQSkvqxCTOAgAAYJwBoHsMsJm3w+gXAapI7u2UjPoPAMCYVTcBqiWNfg1AacmzmFwhsAsAAIDxdQBC1QFwbymsxhSAeZ6iVbWf+g8AwHh4tQjQXblWZxGg2mXiQkAAAMbbAZDK0mXmLUnlaDsAIRSWrB1L45EHAGDMytJk7qfCyNcAVN2GPJnTAQAAYNwdgORyU1urMgVg3onmcnEQEAAA4+IKiinJXJlGfg5AUHT3PCVnGyAAAGPuAMTo8tXYBRCkPCVvxWgcBAQAwJjF1DsIKKzKGoDqHAAedwAAxtoBKKPJqoOARj4FUJp5ZkYHAACAsQaAbgdgVe4CeORASo/vC1kZXYGDgAAAGB8PvTUA2f4DcbS7ACQpmbdTdE4CAgBgzC2AMprMNL/Uv7KiAGDJ2zEZ9R8AgDFqhO5lQNVJgKsQAOR5NMlp/wMAMDbu3TUA8nxVAoBcRTKXmbMEAACAMYnmSu5yqVidAFDdCKiUquOA6QQAALC6QuiO/qulf2mpf29lASAoT8lVJlO1CYEEAADAKkcAlWWSuSct8SKgFQeAoBDNPJppotmkAwAAwDg6AMkkN3WCwup0AEJQmcyyFG1motnkWQAAYNXH/9XRvGbWWeo9ACsOAJIKM3Vi8plpiRkAAADGIJYmq04BXJ0pAEllqgIApwEDADAmZZTcvBVWbQ1AUJGSZTFZ9zRAWgAAAKymRjUf3+sArNoUQDTzPFlV+Cn/AACsLpeUksnMs1ULAEEqzT1LidIPAMA4hCClJLlrFRcBhpDF5O0YnfsAAAAYk6I6B+BUkMrVCQDVSYB5NOPRBwBgTB2AMrqsughotQ4CUjSrpgDoAAAAMJYIoGQuc63eGgAFlWbqLgIkAQAAMI4OQIxJ7r56awCCVCSzToxWlX/WAgIAsLpcitFltroHAeUpqZ0Sjz8AAGPpAKgKANVBQGGVAkBQmZJ3YjLRAAAAYAwNgFDdBZBW8yCgRw6k8omHQ5GSswQAAICxdACCYnK5e7b/QFy1KQAl8ywZdwEAADCmBKBY7QLoXMhfW3kASN4qy95dAAAAYJXrv8rSZOZzqxoAzLwwYwYAAICxdQCiy93zVQ0ALmVV64ElgAAArDYzVzKXVwcBrV4AUHUcsHpdAGIAAACrNPgPkpnk7goXsANgKAEgSHlKrljaQksAAACsSgRQWSR1d+OVF/I3J4bwvYtk7sk8NEKQkwAAAFi1DkCMkrkKXcApgMPqAJRmXiTz6TARxFIAAABWh0uKZtU9AKs9BSCFPJl3YvLpyQmeDAAAVq0DoOoUQDPvhFXvAAQV1j0MiL2AAACsbgIok2Su9uqvAZCKlDwrI6cBAgCw6h2A6hCgti7gIqDhdACkIplnZsYzAQDAagaAUN0DYO7tVZ8CUFA09+6FQJwEAADAakrJZKa2Vj0ASHmK6qTEEgAAAFa3BSCl7k2AGsdBQNGsHaNVAYAGAAAAq1P/XSpKU0o+r7DqUwChNFdhRuUHAGBVA0CQYqruAQhjOAioSMmy0kxOAwAAgFXjCkpmsvEcBKTCkndScoXAKgAAAFatAyApxuogII1hF0CRzLOUGPsDALDaCaDaBqj2qq8BqM4BUFZ1AHguAABYzQ5AGV1m3g4aw0mAZp4nDgICAGDVE0BKJnd1Vv0kwEeeTPb4vpAn4xwAAABWt/4HRZPMPNt/IF7QXPxQ7u9LyTsxkgAAAFjtDkB1F4C1LvSvDicAmHVicgUP7AMEAGC16r/3rgPWeAKAmQozifoPAMDqcUkpSS7lYwkAqhYCyqy6EpgQAADAiEf/QerVXl3gDoChBYAQlKdkSuYiAQAAsCoRQGUymZt0gYcADbMDkEVzVRcCBTkJAACAkXcAYnSZycIYOwClmZKZN5tNFgIAALAaUnUKYH6hpwAOswNQJrM8JV/XbPKEAAAw8g6AqkOAzCzT2KYAQigsqZOS1gWuBAQAYFXEJJmprbFNAUh51QEwKTRIAAAArEIHIJZJZt4KYUwBQFUAyGL3PgDKPwAAo+XdBXhmnl3oPQDD6wBU/4a82ovIPkAAAFalA5Bc5t7WGLcBFsm8SMaVwAAArJZkLnfPwrgCQJCylLwdEyN/AABWpQPQOwcgjXERoIKKlDynAwAAwCoFAHUvAnJvaXyLAENp5nmiAwAAwKolgGSu5J4HKY0lAAQpS+5Z6l4GBAAARp8AulcBdzTmKYAsRaviAI0AAABG3QBQKl1m3tEYFwEWKVmWUnUNEPUfAIDRcklltGob4BjvAshTUhZNLAIEAGCVOgC9o4CDwnimAB55MpVPPBxK654ECAAARp8AkpncPd9/II6tA6BknqXEIkAAAFan/ofqOuBqDcAFG14ASN6KyUUCAABgFQJA6K4BMD811gBg5qWxDRAAgFWTzGWufKwBwF1ZdSYxTwgAAKPm7rKq7o43AEgqzVy9w4DIAQAAjEYIUjLJqt13cTlfY2KI/5hOSq4Uu6WfBAAAwMiUpSmZS1Ix7g5AHs0VzdUIQU4CAABgNB0ABZXVDoBSyzgGeLgBIKg089zMpxsTHAcMAMAIE4BSdRNgJ4QxB4AgFbG6Enh6gqcGAIBR1n8lk9yUS2NeAyApN/Msmc+yFRAAgNEmgBhNybw99gAQQshS8iwlkwJXAgEAMMoOQKwOAWqFGiwCLJJ5kYzDAAEAGHUCSOZK7rnGvg2wOgeg4EIgAABGXf+DUjK5eUfLuAlwuB2AoCwl66Tk3TuBmQIAAGBUkrnMlEnj7wBkMXknJpdcHAkMAMAIldUiwBqsAQihMFNhRuUHAGDkHYDkMveOxn0OgKSyWgTo1QwAAAAYieocAJeZ55LSWANAkLJkniXWAAIAMOIEEBSTy13tUIOjgHMzzy0xBQAAwMg7ANVdAB1p/EcB5yl5lswUmAMAAGCkCSAmUzKrxRqAorcGgB2AAACMsP57dRmQu7Iw7nMAHnky2eP7wsIuALYBAgAwGi5XMslM2f4DcVkVd6gX9yXzTozcBQAAwEg7AKF3DoC1lvs1hhoAYrLMzLkLAACAESeAlExm6tQiALipSOZyTgIEAGBk3KtdAO6e1yIASCqSSRwGCADA6FgyparYFsv9GkMNACEoS8mVkikEugAAAAxbCFJMLjMphFAud83dsDsAeUqm6jRAbgQEAGDoAUBBKUnm7lrmIUDDDwBBeTJPyazZDEFOCwAAgKHyhQ6A57UJAKF7GJCZrW1ONGkAAAAw9A6AlMxk5lkIdekAKFQXAiWtnZzgSQIAYBQJICaXuTJJsR4dgKDckhecBQAAwOg6ADG5knlLUm22AebRPI/mcrELAACAYfPuPQBmnofarAEIyi1ZnpIpiOOAAQAYfgugOgXQk3cUQl3WAKhISYVzEhAAAKOp/5LMpOTKVZs1AFKW3LPkXp1UQAcAAIChi8nk5q1Ql5MAFUKWkmUpusR9AAAAjCgAuKJ5R/XZBqgyJpXVSYAAAGBUAaB7EVB9pgCsOghIYhEgAABDF+SyahdAJ9TqKODkebQqDVD+AQAYLg9SNCmZMtXoKOAsmeeWnAYAAACj6AB4UIwmc+8o1GURoJQn88yckwABABhNAqi2AZqpXZtdAI88mconHg6lmUmBFgAAAMPnSmZy92L/gZTq0gFQMs+TMQMAAMCoJHOZeWclX2P4ASB5lpIrOKsAAQAYhRhdyXy+VgHAzHPjBCAAAEYiSEpmMlO9OgDuyi25nOE/AABD514tAtQKtgCOJAAoqIzmSkYIAABgqCU2SIWZUnXpXr0CQJBaMZpSqrYCMhsAAMDwWOkyc4UVnAEwqg5AUe1P9OpCQAAAMKQSG3o7AFLtOgCqDgMqk2uyyUYAAACGpjoG2GXumVSzDkBQyKutgDY50WzImQMAAGBoUjJZUh7C8m8CHE0HIKiTzAruAwAAYMgl1iVLrmTermEHQFlK3AcAAMAIBtmK5kruHSnUbBFgbw1AdxsgWwEBABie7iFAeajdNsCgPJnnZi5aAAAADDkAJJeZZwr12wVQmKkwYw0AAADD1t1qn6t+BwGFdkyexeqUIuo/AABDrLIxmZKpFaS8Xh2AoMLMS0+94T8RAACA4XCl5HKv5xRAbuaF+cK/FQAADGWMvTAFUEg1OwcgSFlvEWCobgPgGQMAYCjj/+5JgKZOUP3uAshj8qLaBkj5BwBgmKPslFypnkcBKzPz3MwUiAAAAAyxxrosmcyso7rdBhhCyMy8SFa9zVUAAAAMiS9MAeRBoV6LAPcfiPbYvmbZOwYAAAAMrQWg5JK75/sPpBWV2VHsAlBKypKZQmAKAACA4dV/V4quZGqt9GuNJABUJwF236D+AwAwtAhQ3QXgnXoGALfCzOVG/QcAYFjcJTOX+8oWAI4sAEjVXQBsBAQAYFhj/95NgC6ppgEghNCJqTquMIidAAAADCMBWHKZu0KobwegnZIrcSEQAABDE82VkmrcAaimAMxMjUaDJwwAgCHU1ioAVPcA1LYDkCX3wmVrQvc8QAAAsJIEELoLAD0PK7wJcHQdgKDMkheWtEYhsAgAAICV8moNgLsyKdS2A9CJybOUfNYnqf8AAAxDd4F9W1Je0w5AyFPyInlvGyAJAACAlRVXKVVrAPJQ6zUA5oVZtQ0QAACsuP7LzGWuTKHWBwEpmlXtf6YAAABYGV+4CdALSbGWASAEtaN5ZuaiBQAAwHBaAJYkM7WDlNW1A5CZeWHu3U2AtAAAAFhh/e8dBVzfKYAg5Qs3AlL/AQBYOZfMJHPlUk3PAVBQFs2LZFwHBADAkOp/7yTArM67APLeFAAtAAAAhjC2Dr1dAJ6pxncBZJa8cHMFFgECADCU6mrmclOmUNeTAEPIoqlIbAMEAGA4vHsSYJ2nAIJUuHnhVH4AAIZWXM0kN3X2H4j1PAdg/4Hoj32myRoAAACG2AJwd5l7MYyvNqpFgEqm3FL3HCDqPwAAK2sAuFQmVzK1ax0AzLw0ZxsgAADDGf+fsQugvgHAXXmyql1BBAAAYKV11eXVAXvlML7eyAKAgvJUnVkMAABWVFKrHQCxumMnr3cAkNqpmqvodQQAAMAyE0CyalAdVPMAEKROMndzDw0OAwIAYEWsugjIpFDvXQAKIUvVWQDTXAkMAMCKBtUy7y4AHMJNgKPuABRmimaabjZ48gAAWElRtWoKoAiq+yJAqZOSF5Z8vZqBNQAAACyTu9RdWN9R7dcABLWTe27y6gojAgAAAMtsAAQlT0rVGQC13wWQm3lpxjkAAACslJnLzPMQ6j8FkCdT2bsNkCkAAACWx1VtA3RXLtV/EWBmpqLasxjoAgAAsKIOgGTm9Q8ACmqnZLm5SWoQAAAAWP6gWpZMKakdpE69A0B3CsCM0g8AwEq4S8kllxeq+xqAIOXWDQC9fzwAAFie7jkAuep+DkAIoZPMCpMpcCkwAAArqKnVUcDJPA8Ktd8GmCVT4cYuAAAAVuKMg4BqfxtgUCf1TQEAAIDlS9U5AJ2L4TbA6iAghv4AAKyspgbJXDJXobqvAdh/IMbHH54o3aUQWAMAAMBKuLvcVOx/Mg6loI5yDYBS8jyZswYAAIAVVX8pJldy7wzrS440AFjywlkDAADAymuqLdwGeBEEAKkwp/kPAMCKa2pVT4thfb2RBoCgkCX3at6CGAAAwLIkr24DDBdLAJDUScllyRXoBAAAcOGD6SBZcpm5NKQtgKMPAEEdS1XbInAhIAAAy9Kd/9ewDgEaeQAIUieZR3dNhMATCADAciSXkqkMF00HoLoRMJpVAYCtgAAAXPBguuoA+PAuAhp9AAjK3Lw0tzVN0QIAAGA5CcDM5eaFLp5dAGrFpNxcG1gCAADA8iSTkqkdgtoXRwdAys09UfkBAFj2YFruLnMf2j0Ao+8AhOpK4GTV6J81AAAAXBivFgDKTLkuonMA8mReOpUfAIBls9MdgIsmALQsqaiuBGYRIAAAFywEWZLM1A4hXBx3AaybCp3kKq3bAKAPAADAhUtebQPcMH2RdAC+9lMrPnVvI7p1qz8JAACAC+OSm2v9lPJ/881Uy4OABnv87q4smkqWAAAAsHzWPQnQXbEOASAs4TM6Zl5UiwBJAQAAXHCx7R4EZO4dhZB162l4e59gtAEgXMDH3U1ZTCqTuVxB7AYAAODCVNsAXTEpcz/rXQDhQsPAUgNAWNb7uucAuLMHAACAlYUAFdLCFMC5Cn5YShBYSgAI53g7nON9VkbFMiq5V/94GgAAAFx48XeTylJFmVR062zjLAXeB+qxLycAnK3wD75u9L3d/7Ewn6ts5x7NXGapussYAAAsmVmQuatdeHzqJXNJkwMFvvfaFxn9nzUETCyj+Pe/9Bf/Rt/nNyQ1v/68FffsDaW7y5LLEk8kAAAXFABCtQ3wzZOeDdRuP8dLOF8IWOoUwGDBb/S9PdgB6H9bB0+4NUQAAADgQrmkiSA1g+v5Q96b/5/sfsgGir51X7SUEDBxntF/OMuov/8lSGoOfHzh8/OkMiUpJVdiCgAAgCULkmJyuUlZ6an7rilJaaDoe1/tHXzfoiFgYonFvznw52ZfAGj2fbwxEABmgnQsK8yK2GjwVAIAcGEBoDApLz0phFOSr+0GAOuGgNRX8AfX4qVzhYDzrQEYDAGNvtcTfcW/OdAV6AWCy/KoF47P+9GZtb5tqlmdZgQAAM6v2ZA6hXSi7W+kpNckzS4SAJKq7YH9g/jUrcemJSwCXGzhX1iksDdVzT/0AsBE358HP2/NC0f82ecP+WvbNvq2ienudgaeUwAAzjv8Dya1c+m5g/7sGyf8p5I29o3ue4W/V/z7jwke3BWgwS7A2dYALDbn31/8J/tCwGRfEOjvCExImnjxkJ96+hX77g07dNuay8Jko0EXAACApYz+i1I6fkqtp160b7x6zOclbegW+l7x7592Hyz+/S8LhX+xDsBiQWBwwd/kwMtUXxCY6Ptzo+/jsz94zb523Y5wx4Y14V2za6svTggAAGBxjVBdAXyyJf/OS/bln71p35C0rVvAe8W/HBiwn634+0AH4IwAsNghP/0r+gdH9r0AML1IN6A/DExJWnvwhOzfPW1/NTmhyx64Jlw7My01umcYkQMAADizCEeT5jLpmy/4N//0afuTQ3NKkma6RT91XzcWKf69BYGNgddLOgdg8IS/s4WAqb4iPzUQAqb6AsIaSTMvv+XHn3zKvjLXbti9V4VrdsyqOTlRpZxG4K4AAMClLVXn/auI0qFT6nznZf/Wl35gB9444UckXdYt+k2d2frvPwMg9dXp/uIf9PZzAML5dgH0b+vrXwtwtqmAXgiY7r5vWtLa7uuZnx/1U//vt9M3fvRGY+7OPWH3tdu1adO6ML1h7ZnHCAIAcCkxl07l8hNtP/X8mzr4g9f96R+8Zv+plemEpC2SCp25y26w5d+bFugFgNRXu9NAbT/nNsBBgwsBF9sRMNHXGZjQ2xcLTkhaP5/JvvmC/eQnb+jInssa22bW+rq1U1pHEwAAcInoH7V7qG77LbJSJ1u53nrlqD13sq03u7V2tlv831bA+0b8g/V5cFHgYh2AJV8G1P8FG+d4GTwroDHwjVMvIJzsqHXydWsv8o8lCAAA3qmFX33Fv7eFr5CU9b2UktZ3398b1dvAS9LiJ/MuuZ5OLKHghiV8bLFv2D8nkbr/Ib3When09sEmAQAAcIkFgN6guP/I3obOPMp38AD9xiKj+mXXzQm9/aCApbYuzrXNoFf4e8kl6/ucotsFGGxXUPwBAJdaF6A3SC67L3m3Tvbe7n188PIfO0sNvqAAcL5CP/gNB1sQvZf+RQeDXycOdAEmtPhcBQEAAHApdQH662mp0/v748BLGggEpjPvAeh/8bN8vyUFgMG/PFjwo85cbdg4y+f2f07/CsZzLVRwwgAA4B1Y9MMi9XWwEzA4uE6L1N7yHCFhMAwsqwPQzwZG+b1/QGOR4t9f+Pu3LAz+uXGeQk8AAAC8kwLA2d7fP3If7LJrkRBQLvISBz7PBmp4f+BYNAD4wF/ov1u4/9zhxkCB7n28/2KgsMhIf7H5/kDhBwBcgkHAF3m92Dz/4DTB4JqBcqALkBbpArzte0/0fSAsMuofDABhkeKvRYr/2bYmMNIHAOD8nYFzrb3rnwoYXDAYFwkO570OePCbDx4x2CvW5cDnmc68CXBCZ54eGM4SAFwcAAgAuLTZWepj//RAfzHvH+UvtmiwvwNwtt16Zw0A/cXfBop3Gvi8/vmG3mh/MAD0j/IZ7QMAsLSuwGKdgKS3z/eXevv8fzrH6P9tRwH3TwP4OdJJ/z+mf1Fgb5FfeY4AIIIAAADnLf5nCwCmc+8W6P+cc54TMHGW0X//26YzpwMWSyOLHQu82BY/AACw9DDgSwgCi60TOFvxP+sugMXCQK/Vf7YQ0F/0pbfvEiAEAACwvE7A4HqAwS2DrsW3EbrOvuvgrAFgcCog6O2LEfqLf39AWMq8PyEAAIDzF38N1F8NBIHBAfnZjudf1Pl2ASwWAlxv3yXQf5FB0vkX/RECAAA4d/EffP9gJ6A/GJyv8C/5KODFQsBiH+9fI9D/DyEAAAAwugCw2PuXXPzPFwAGQ8DZvuj5Tvaj6AMAsPIwcL5LfpZU+JcaAPq/QDjL+/wcn0cQAABg5V2ACy3y570eeGIZ/6hwId9gOf8oAAAwlIAwlACw2BcPFHgAAGodCoYWAM71TWnvAwBQw4I/7ADA6B8AgIvQBA8BAAAEAAAAQAAAAAAEAAAAQAAAAAAEAAAAQAAAAAAEAAAAQAAAAAAEAAAAQAAAAAAEAAAAQAAAAAAEAAAAQAAAAAAEAAAAQAAAAAAEAAAACAAAAIAAAAAACAAAAIAAAAAACAAAAIAAAAAACAAAAIAAAAAACAAAAIAAAAAACAAAAIAAAAAACAAAAIAAAAAACAAAAIAAAAAACAAAABAAAAAAAQAAABAAAAAAAQAAABAAAAAAAQAAABAAAAAAAQAAABAAAAAAAQAAABAAAAAAAQAAABAAAAAAAQAAABAAAAAAAQDA/99uHcgAAAAADPK3vsdXFAEIAAAIAAAgAACAAAAALwHBqfPt8gtCjAAAAABJRU5ErkJggg==;strokeWidth=3;fontSize=18;" vertex="1" parent="1">
          <mxGeometry x="983.8800000000001" y="520.3199999999999" width="60.5" height="60.5" as="geometry" />
        </mxCell>
        <mxCell id="1Gy_Q1dNtSDBWz6dkGcF-11" value="&lt;div&gt;&lt;br&gt;&lt;/div&gt;&lt;div&gt;&lt;br&gt;&lt;/div&gt;&lt;div&gt;&lt;br&gt;&lt;/div&gt;&lt;div&gt;&lt;br&gt;&lt;/div&gt;&lt;div&gt;&lt;span style=&quot;background-color: transparent; color: light-dark(rgb(0, 0, 0), rgb(255, 255, 255));&quot;&gt;Embedding DB&lt;/span&gt;&lt;/div&gt;" style="shape=cylinder3;whiteSpace=wrap;html=1;boundedLbl=1;backgroundOutline=1;size=15;fontSize=18;strokeWidth=3;" vertex="1" parent="1">
          <mxGeometry x="945" y="20" width="135" height="164" as="geometry" />
        </mxCell>
        <mxCell id="1Gy_Q1dNtSDBWz6dkGcF-12" value="" style="shape=image;verticalLabelPosition=bottom;labelBackgroundColor=default;verticalAlign=top;aspect=fixed;imageAspect=0;editableCssRules=.*;image=data:image/svg+xml,PHN2ZyB4bWxucz0iaHR0cDovL3d3dy53My5vcmcvMjAwMC9zdmciIHZpZXdCb3g9IjQ3LjI4ODcwMDEwMzc1OTc2NiA0NS44Njg5MDAyOTkwNzIyNjYgMjI4NC45MDg0NDcyNjU2MjUgMjMxNS4zMjgxMjUiIGRhdGEtbmFtZT0iTGF5ZXIgMSIgaWQ9IkxheWVyXzEiIHdpZHRoPSIyMjg0LjkwODQ0NzI2NTYyNSIgaGVpZ2h0PSIyMzE1LjMyODEyNSI+PGRlZnM+PHN0eWxlPi5jbHMtMXtmaWxsOiMzM2I1ZjE7fS5jbHMtMntmaWxsOiNmZWZlZmU7fTwvc3R5bGU+PC9kZWZzPjx0aXRsZT5taWx2dXMtaG9yaXpvbnRhbC1jb2xvcjwvdGl0bGU+PHBhdGggZD0iTTExMTMuNjk1LDQ1Ljg3YzIwNi44ODI5MywzLjI4MiwzODguMDE0LDcxLjk0Myw1MzkuMTIxOTQsMjE0LjgzNywxMjEuMDY0OTUsMTE0LjQ4NCwxOTUuNjgzLDI1NC41ODUsMjI1LjM3Niw0MTguNDk5QTY4MS44MzI5Myw2ODEuODMyOTMsMCwwLDEsMTg4OS4yNiw4MTQuNDVjLTMuNjg4LDE4NC4zMTMtNjQuMzYsMzQ3LjQzLTE4NS40OTgsNDg2LjgxNS0xMTcuNDE0MDYsMTM1LjEwMS0yNjQuODM4LDIyMC44NTUtNDQwLjU3NTkyLDI1My4xNDItMjM3LjAxMiw0My41NDUtNDUyLjA0NC05LjM2MjA2LTY0Mi4zNzgtMTU4LjQzNy0zOS41MzgtMzAuOTY3LTczLjg0NS02Ny42NDctMTA5LjU5Ny0xMDIuNzEycS0xMTUuNDUxOTQtMTEzLjIzMi0yMzAuNjMxLTIyNi43NDQtMTA0LjQ4Mi0xMDIuNjc2LTIwOS4wMS0yMDUuMzA0Yy0zMi4zNTctMzEuODkzLTMyLjM4LTc2LjE0NC0uMDQtMTA4LjAzNHExMDcuMzUyLTEwNS44NiwyMTUuMDc0LTIxMS4zNDRjNjcuNDI1LTY2LjE5NiwxMzQuNTE1LTEzMi43NDEsMjAyLjQ2Mi0xOTguMzk4LDQ1LjExLTQzLjU4OSw4Ny43OTktODkuNzcxLDEzNy4yNzktMTI4Ljc1N3ExNDcuODgzOTUtMTE2LjUyLDMzMi40MDEtMTUzLjM0NGE3ODQuMzg2Nyw3ODQuMzg2NywwLDAsMSwxNTQuOTQ5LTE1LjQ2NFptNTk3Ljk5Niw3NjEuOTEzYy0uNzk1LTMzLjA5Mi0zLjUxLTY1LjU1Ny05LjY0LTk3LjY5NS0zMC4xNjEtMTU4LjEtMTEzLjIyNC0yODEuNTgzLTI0Ny41NTYtMzY4LjkyMy0xMjkuNTYwMDYtODQuMjM3LTI3MS45NTMtMTEwLjQxNi00MjMuODE5LTgxLjY2My0xMDkuMjY2LDIwLjY4OC0yMDQuNTMyLDY5Ljc4My0yODQuOTcsMTQ2LjYxMi01My4xODgsNTAuODAyLTEwNS4zMjMsMTAyLjcwOC0xNTcuODQzLDE1NC4yMDhxLTEwNS42MSwxMDMuNTYtMjExLjAzNywyMDcuMzA1Yy0yNC4yNzcsMjMuOTM3LTI0LjE3Myw1NS4yMTYtLjA4Miw3OS4wNDUsMzQuNDksMzQuMTE0LDY5LjIyNCw2Ny45ODEsMTAzLjgxNywxMDEuOTkxcTEyNi41MDgsMTI0LjM3NDk1LDI1My4wMTQsMjQ4Ljc1MSwxODMuNDMyLDE3OS42NzExNCw0NDAuMDkyLDE2Ny45MzRjOTAuNTAzMDUtNC4xNzg5NSwxNzUuODQtMjguMzE2LDI1My42MDgtNzQuNjI2LDE4Mi44MDQtMTA4Ljg1OSwyNzYuMTc3LTI3MS4xMjIwNywyODQuNDE2LTQ4Mi45MzlaTTQzOS41ODcsMjA5Ny4xNTVjLTI4LjEyOCw1Ni4zNDMtNTMuNzEsMTEwLjc4LTc3LjYxLDE2NS45ODgtMy43MjIsOC41OTUtNy44MiwxMi42MTAxLTE3Ljk3NiwxMi4wMjgwNy0xOC42NTItMS4wNzAwNy0zNy40Mi0uNjYwODktNTYuMTE3LS4xMjIwNy03LjA2Ni4yMDI4OC0xMC40NTQtMS44NzQtMTMuMzE3LTguNTMzOTNxLTM0LjcwNy04MC43NTYxMi03NC40NTgtMTU5LjE3NmMtMS4xMDYtMi4xODk5NC0yLjQyNi00LjI3LTQuODI2LTguNDYtLjkyMywxMi42ODk5NC0xLjg3MSwyMy4xNTgtMi40MTYsMzMuNjQ3LTIuNzk0LDUzLjc3NzEtNS40MzIsMTA3LjU2My04LjI0LDE2MS4zNDAwOS0uODksMTcuMDc0OTUtMi4zNDMsMzQuMTIzLTMuMDg3LDUxLjIwMjg4LS4yMjMsNS4xMjMwNS0xLjQwNyw3LjI5NTktNi45OSw3LjI1NzA4cS00Ni4xNDctLjMyNTkyLTkyLjI5Ny4wMDFjLTYuMDM1LjA0Mzk0LTcuNDMtMi4xMTg5LTcuMDk2LTcuODQwMDksNC40OS03Ni44NDAwOSw4LjcxLTE1My42OTQwOSwxMy4xNDgtMjMwLjUzNTg5LDIuNzc1LTQ4LjA2MDA2LDUuMTMtOTYuMTU4OTMsOC45NzEtMTQ0LjEzNiwyLjI0NC0yOC4wMjQ5MSwxOC41OTMtNDMuNTUwMDUsNDYuNDM0LTQ2LjU5NjkzLDIzLjA1My0yLjUyMiw0NS41MTQtLjA0Miw2Ni42MjksMTAuNjk4YTMzLjkyMTE2LDMzLjkyMTE2LDAsMCwxLDE2LjIwNCwxNi4yOWMyOS4yNjEsNjAuNDI3LDU2LjgzNSwxMjEuNjc4LDg4LjExNSwxODEuMTIxMDksMS4zMTYsMi41MDIsMi43MTcsNC45NTgsNC43MjgsOC42MTUsNi40NjYtMTMuMDgwMDgsMTIuMzkzLTI1LjI1MSwxOC40NzYtMzcuMzQ0LDIyLjA2NC00My44NTY5Myw0NC4yNDktODcuNjc2LDY0LjEzMi0xMzIuNTYwMDYsMTguMTE1LTQwLjg5MzA3LDQ0LjcxNi01MS4zNjgsODkuMzg5LTQ2LjQyOTkzLDEzLjMyOCwxLjQ3NDEyLDI1LjY5LDYuNTQzOTQsMzcuOTQ2LDExLjg0OTEyLDUuMDYsMi4xODk5NCw3LjA4NSw1LjM0Miw3LjM2LDEwLjc3NTg4cTIuODEsNTUuNTIyLDYuMDQzLDExMS4wMjM5Miw2LjIyNSwxMDcuNjc5OTUsMTIuNjE2LDIxNS4zNTAxYzEuNDEsMjQuMDMzLDIuNjg4LDQ4LjA3NCw0LjMsNzIuMDkzLjM4Niw1Ljc0NjA5LTEuMjEyLDcuNzEtNy4yNDUsNy42NTQwNS0zMC4xMy0uMjgzOTMtNjAuMjYzLS4yNC05MC4zOTMtLjAzNTg5LTUuOTQuMDQtOC4zMDYtMS42Mjk4OC04LjYzLTguMDAxOTVxLTQuNjY2LTkyLjA1ODExLTkuOTAzLTE4NC4wODc4OWMtMS4xMTYtMjAuMTU4LTIuNDc4LTQwLjMwMi0zLjg5LTYzLjA3M1pNMjA4OC43MDI4OCw4MDcuMjk2Yy4xMTAxMS04My4xNjUtOC4xMzMwNi0xNjUuNTE3LTI2LjQ4MjkxLTI0Ni43NDZhNzUuOTg3LDc1Ljk4NywwLDAsMS0xLjMwMi03LjQ4N2MtLjkzMzExLTcuNjE0LDEuNjg5OTQtMTMuNjUzLDguMjUyOTMtMTcuNzg3LDYuODMyLTQuMzA0LDEzLjc5LTQuNTAyLDIwLjQ3LjEzOWE1OS4xNTIsNTkuMTUyLDAsMCwxLDcuNjk1MDcsNy4wMjhxMTA0LjU4NTgxLDEwNC41NDIsMjA5LjEzNzk0LDIwOS4xMmMzNC4zNTQsMzQuMzYsMzQuMjksNzguMTA4LS4xNDYsMTEyLjU0NXEtMTA0LjIyNjE5LDEwNC4yMzAwNS0yMDguNDU2LDIwOC40NTdjLTEuNzkzLDEuNzkzLTMuNTQsMy42MzctNS40MDIxLDUuMzU1LTYuODY2OTUsNi4zMzUtMTQuNjg4LDcuNjI4MDYtMjIuNjcwOSwyLjg1LTcuNDI3LTQuNDQ0OTUtMTAuNzE0MTEtMTEuMTItOC43NDYxLTIwLjE3MSw3LjMyNzg5LTMzLjcwMiwxMy42MTAxMS02Ny41ODUsMTguMTE0LTEwMS44MDYsNS4zMzQtNDAuNTM1LDguODcwMTItODEuMTg1LDkuNTEyOTQtMTIyLjA3LjE1NDA1LTkuODA2LjAyMy0xOS42MTguMDIzLTI5LjQyN1pNMjAwMS45MjQ4LDIzNjAuNTA0ODhhMzU5LjA3NDgsMzU5LjA3NDgsMCwwLDEtMTE5LjQwNy0xOS4zNTRjLTEyLjk2LTQuMzc1LTI0LjkxNy0xMC44NDItMzYuNzA0LTE3Ljc1LTUuMTc2LTMuMDM0OTEtNS4zMDUtNS41OTItMi41NDUtMTAuNDYxOTJxMTQuOTg0MDctMjYuNDQ3LDI5LjE4LTUzLjMzNzg5YzIuNDMwMDYtNC41NzEsNC4wOTU5NS01LjEwMTA3LDkuMDg2MDYtMi41ODUsNDUuOTA3LDIzLjE0MjA5LDk0LjU2NCwzMS4zNTYsMTQ1LjU5NzksMjUuMzgzMDZhNDYuNTU0LDQ2LjU1NCwwLDAsMCwxMS4wMDM5MS0yLjgxMDA2YzcuMzE0LTIuNzgzOTMsMTIuNDI5OTMtNy40OSwxMi40NjQxMS0xNi4wOTEwNi4wMzM5NC04LjY2MjExLTQuMDQtMTQuMzkxMTItMTIuMDcwMDctMTcuNDEzMDktMTUuODkyMDktNS45ODEtMzIuNjQ5OS03LjQ1MTktNDkuMzEzLTkuMjMxOTMtMjQuMjgtMi41OTMtNDguMzk4LTYuMDgzLTcxLjY4NTA2LTEzLjYyOTg5LTQxLjAxNS0xMy4yOTItNjUuNTQ4LTQxLjk0MzExLTY3LjQ0Ni03OC4xMzk4OS0yLjY4OTk0LTUxLjI3ODA3LDE2LjI0LTg1LjE5NTA3LDU4LjA2Mi0xMDQuNDQzMTEsMjQuODk3LTExLjQ1OSw1MS4yMzM4OS0xNi4yODcxMSw3OC4zNzQtMTYuNzk4MSw0MC45OTgtLjc3Miw4MS43ODEuNjU1LDEyMC40NywxNi43MjUxYTg1LjYyNjE4LDg1LjYyNjE4LDAsMCwxLDExLjA2Njg5LDUuNDI5OTNjMTQuNDY0MTEsOC42Mzc5NCwyNC40ODE5MywyMC4wNDIsMjMuMjczLDM4LjI5LTEuMTc2LDE3Ljc0OS0xMS40Mzk5NCwyOS41NjgxMS0yNS4xMjg5MSwzOS4zMzc4OS00LjEwMywyLjkyOC02LjkwMDg4LjQ5MjkyLTEwLjI1MTk1LTEuMzQyLTQxLjU0Mi0yMi43NDYwOS04Ni4wNTY4OC0yOC4zMzY5Mi0xMzIuNDM5OTQtMjIuNDc2MDhhMjguNDU0MSwyOC40NTQxLDAsMCwwLTE2Ljg3MDEyLDguMDUyYy05LjgzNyw5LjgxMy03LjQwMjk1LDIzLjA3NTkyLDUuNDk1MTIsMjguMjk0OTIsMTQuNTUyLDUuODg3OTQsMzAuMTQ0LDcuMDA2MSw0NS40NTUwOCw5LjMzMTA1LDI3LjIwNDEsNC4xMzIwOCw1NC42OTgsNi42NTgsODEuMTM0LDE0Ljk3NTEsMzUuNTkyLDExLjE5Nyw2MS41MDgwNiwzMi4zNjY5NCw2Ni45NzgsNzEuMDE4MDcsNS43MTUwOSw0MC4zNzIwNy00Ljg1NzkxLDc1LjYyNC0zOS42NjIxMSwxMDAuNDU2LTI5LjI1MiwyMC44NzExLTYyLjk1MTkxLDI3LjEwNi05Ny45NDcsMjguNTQtNS4zODIwOC4yMi0xMC43OC4wMy0xNi4xNjk5My4wM1ptLTIzNC4yOC0yMTguNDQ1MDdjLS43OTgsMjUuNjkzMTIuMzIyLDU3LjM3MjA3LS43MzQsODkuMDgwMDgtMS45MzIsNTcuOTgzODktMzcuNjAzLDEwNi4zNDItMTAyLjAzOCwxMjIuNDAzMDgtNDcuMDA0LDExLjcxNy05My44MTAwNiwxMC43NzItMTM4LjgzNS04LjM1NjkzLTQ3LjgwMy0yMC4zMDgxMS03NC4xOTEtNTcuMzMwMDgtNzcuNDI3LTEwOS4xNjk5My0zLjI3OTA1LTUyLjU0MS0xLjE3OC0xMDUuMjIxOTItMS4wNDgtMTU3LjgzNS4wNzQtMjkuOTI4LDE1LjY2LTQ0LjMxMDA2LDQ1LjY1OC00NS4zMTAwNiwxNS45OC0uNTMzOTMsMzEuNTIyLDEuMTAxMDgsNDYuODgsNS45Mzk5NSw2Ljc5MiwyLjEzOTg5LDkuMzQsNC45MDk5MSw5LjI4NSwxMi4zNDY5Mi0uMzY1LDUwLjQxOC0uMjExMDYsMTAwLjg0MDA5LS4xNiwxNTEuMjZhMTA4LjQ2MjIsMTA4LjQ2MjIsMCwwLDAsLjc0LDE2LjEzMjA4YzYuNzg1LDQ0LjY0NSw1Ny45Nyw2NS41NzAwNyw5NC43MTUsMzguNjI1LDE2LjA0LTExLjc2Mjk0LDIwLjcxLTI5LjI3MSwyMC45MjYtNDcuODMwMDguNDk2LTQyLjgwMzk1LjE4MS04NS42MTY5NC4xOTktMTI4LjQyNy4wMTI5NC0zMi40NzksMTUuMDIzLTQ3LjM1NSw0Ny43NDQtNDguMTA0YTEzNy44MjQyNywxMzcuODI0MjcsMCwwLDEsNDUuODQ5LDYuMzc0YzYuMDQzLDEuOTM5OTQsOC41MTgsNC41MjgwNyw4LjQyMDA1LDExLjI2MzkxLS40MTEsMjguNTMzOTQtLjE3NCw1Ny4wNzc4OS0uMTc0LDkxLjYwNzkxWm0tNTYzLjM4Nzk0LDk0LjQ2MTkyYzE0Ljc1Mi0zNi4zMzAwOCwyOC41ODItNzAuNjQ3LDQyLjYyMTk0LTEwNC44Nzk4OCw5LjQ4My0yMy4xMjAxMiwxNy42Ny00Ni44LDI4LjgyOS02OS4yMDE5MSwxMC4xODgtMjAuNDU1MDgsMjYuODc2LTI5Ljc2NDg5LDQ5LjkxLTI5Ljc3MmExMTcuOTQ2MzksMTE3Ljk0NjM5LDAsMCwxLDUxLjMxMDA2LDExLjY0N2M3LjczLDMuNjQzMDcsOS42OTk5NSw3LjkyOTkzLDYuNTk1OTQsMTYuMjAyODgtMTIuOTA5LDM0LjQwOC0yNy42Niw2OC4wMy00Mi43NjYsMTAxLjQ4OS0yNy43NDUsNjEuNDUyODgtNTYuNTYyLDEyMi4zOTYtODgsMTgyLjA3NjktMy4yMzYsNi4xNDQtNi44MzQsOC40NTUwOC0xMy44Nyw4LjMyNS0yNS4zNS0uNDY3LTUwLjcxNTk0LS4yOC03Ni4wNzQtLjEwMy01LjIxNy4wMzU4OS04LjY4NC0xLjEwMi0xMS40MzctNi4xODMxLTQzLTc5LjM2Ni04My43NDUtMTU5LjgtMTE2LjYxMS0yNDQuMDAxLTMuOTI2LTEwLjA1ODEtNi43OTMtMjAuNDY0MTEtNS4zOTUtMzEuNDM5OTQsMi42NjYtMjAuOTIzMSwxNi4wMTI5NC0zNS4wODY5MSwzNi44NzQtMzcuMTYzMDksMTcuNjQ5LTEuNzU3MDgsMzUuMzg5LTEuNjUyMDksNTIuNDksNS4wNjQ5NSw1LjUxLDIuMTY1LDguNTM4OTQsNS4wMTI5NCwxMC41MywxMC43MjE5MnEzMS43NTY5MSw5MS4wMTU4Nyw3MS4wMzUsMTc5LjA2OTA5Yy44OCwxLjk4NjA5LDEuODk0LDMuOTEyMTEsMy45NTcsOC4xNDdabS0yNDAuOTU4LTExMC40MzhjMCw3MS45NTgtLjEzMzA2LDE0My45MTcuMTg2LDIxNS44NzMwNS4wMzYsOC4wNDkwNy0yLjI5Mzk0LDEwLjAyMzkyLTEwLjA4OSw5Ljg4OTg5LTI3LjU2OTk0LS40NjgtNTUuMTU2LS4zNjYtODIuNzMxLS4wNDgxLTYuNTQ4LjA3NTkzLTguNjQtMS43NTgtOC42MzEtOC40ODcwNnEuMjctMjA0LjQ2MTc5LjIxNS00MDguOTI1MDVjLjAzNC0yNy41MzQsMTQuMTktNDEuMDQzLDQ0LjMyNi00My43MTQsMTguMDI5LTEuNTk4LDM1LjIxOCwyLjM4Miw1Mi4yNzksNy42MTY5NCw1Ljg0NywxLjc5NSw0LjQsNi4xNzYsNC40MDQsMTAuMDE3OTRxLjA4OTkxLDgxLjc4NTE2LjA0LDE2My41NzAwN2wuMDAxLDU0LjIwNjA2Wm0tMjAwLjQ5NSw3MC44NzRjMCw0OC4xNzgtLjI0OCw5Ni4zNTc5MS4yMiwxNDQuNTMyLjA5LDkuMDkzLTIuODUsMTEuMDcwMDYtMTEuMzEyLDEwLjkxOC0yNy4yNS0uNDktNTQuNTE3LS4zOTExMS04MS43Ny0uMDQtNy4wNTMuMDkwMDgtOS4xNS0xLjk3NzA2LTkuMTMxLTkuMTQyMDkuMjM1LTg4LjQzMDkxLjA3NC0xNzYuODYzLjItMjY1LjI5NDkzLjA0LTI4LjIzLDE0Ljc2NC00My4yNDgsNDMuMDk0LTQ0Ljg5MTExLDE3LjI0NS0xLDM0LjA3NC42NTk5MSw1MC41OTYsNi4xMjk4OCw2LjA4LDIuMDEyOTQsOC4zMSw0LjczMSw4LjI2OCwxMS4zNTMtLjMwNSw0OC44MTAwNi0uMTY1LDk3LjYyMy0uMTY1LDE0Ni40MzUwNlptLTUxLjItMTk0LjIzNjA4Yy0zMi4wMTMuMDEyOTQtNTYuMDA3LTIzLjU4NC01Ni4zMjgtNTUuMzk2LS4zMjItMzEuNzcsMjQuNDY0LTU2Ljg2MSw1Ni4xOTQtNTYuODg3LDMxLjk0NC0uMDI2LDU2Ljc3NywyNC41MTQsNTYuOTM0LDU2LjI2Mjk0LjE1OCwzMS44MDAwNS0yNC4zODYsNTYuMDA2MS01Ni44LDU2LjAyWiIgY2xhc3M9ImNscy0xIi8+PHBhdGggZD0iTTE1MjYuMDU2LDgwNy40MjZjLTEuMTUxLTIxOS4wOTQtMTgxLjEwNS0zODUuODczLTM5MC40OC0zODEuNDA4LTIwNy43ODQwNiw0LjQzMS0zODAuMzUyLDE3OC44OTQtMzczLjA1NCwzOTUuNSw2LjY1NSwxOTcuNTQsMTY5LjY5NiwzNzEuNTU3LDM4OC4xNjQsMzY4LjAxMjk0QzEzNjEuMDQ5MDcsMTE4Ni4xMiwxNTI1LjYxMTA4LDEwMTUuNjE1LDE1MjYuMDU2LDgwNy40MjZaIiBjbGFzcz0iY2xzLTIiLz48cGF0aCBkPSJNMTUyNi4wNTYsODA3LjQyNmMtLjQ0NSwyMDguMTg5LTE2NS4wMDcsMzc4LjY5NC0zNzUuMzcsMzgyLjEwNS0yMTguNDY4LDMuNTQzOTQtMzgxLjUwOS0xNzAuNDczLTM4OC4xNjQtMzY4LjAxNC03LjI5OC0yMTYuNjA1LDE2NS4yNy0zOTEuMDY4LDM3My4wNTMtMzk1LjQ5OSwyMDkuMzc2LTQuNDY1LDM4OS4zMywxNjIuMzE0LDM5MC40OCwzODEuNDA4WiIgY2xhc3M9ImNscy0xIi8+PC9zdmc+;fontSize=18;strokeWidth=3;" vertex="1" parent="1">
          <mxGeometry x="980.9300000000001" y="70" width="63.14" height="63.99" as="geometry" />
        </mxCell>
        <mxCell id="1Gy_Q1dNtSDBWz6dkGcF-13" value="&lt;div&gt;&lt;br&gt;&lt;/div&gt;&lt;div&gt;&lt;br&gt;&lt;/div&gt;&lt;div&gt;&lt;br&gt;&lt;/div&gt;&lt;div&gt;&lt;br&gt;&lt;/div&gt;Metadata DB" style="shape=cylinder3;whiteSpace=wrap;html=1;boundedLbl=1;backgroundOutline=1;size=15;fontSize=18;strokeWidth=3;" vertex="1" parent="1">
          <mxGeometry x="945" y="248.31999999999994" width="135" height="164" as="geometry" />
        </mxCell>
        <mxCell id="1Gy_Q1dNtSDBWz6dkGcF-14" value="LLM" style="rounded=1;whiteSpace=wrap;html=1;fontSize=18;strokeWidth=3;" vertex="1" parent="1">
          <mxGeometry x="655" y="290.31999999999994" width="155" height="80" as="geometry" />
        </mxCell>
        <mxCell id="1Gy_Q1dNtSDBWz6dkGcF-15" style="edgeStyle=orthogonalEdgeStyle;rounded=0;orthogonalLoop=1;jettySize=auto;html=1;exitX=1;exitY=0.5;exitDx=0;exitDy=0;entryX=0;entryY=0.5;entryDx=0;entryDy=0;entryPerimeter=0;curved=1;strokeWidth=3;fontSize=18;" edge="1" parent="1" source="1Gy_Q1dNtSDBWz6dkGcF-14" target="1Gy_Q1dNtSDBWz6dkGcF-13">
          <mxGeometry relative="1" as="geometry" />
        </mxCell>
        <mxCell id="1Gy_Q1dNtSDBWz6dkGcF-16" style="edgeStyle=orthogonalEdgeStyle;rounded=0;orthogonalLoop=1;jettySize=auto;html=1;exitX=1;exitY=0.5;exitDx=0;exitDy=0;entryX=0;entryY=0.5;entryDx=0;entryDy=0;entryPerimeter=0;curved=1;strokeWidth=3;fontSize=18;" edge="1" parent="1" source="1Gy_Q1dNtSDBWz6dkGcF-4" target="1Gy_Q1dNtSDBWz6dkGcF-9">
          <mxGeometry relative="1" as="geometry">
            <Array as="points">
              <mxPoint x="575" y="330.31999999999994" />
              <mxPoint x="575" y="550.3199999999999" />
            </Array>
          </mxGeometry>
        </mxCell>
        <mxCell id="1Gy_Q1dNtSDBWz6dkGcF-17" style="edgeStyle=orthogonalEdgeStyle;rounded=0;orthogonalLoop=1;jettySize=auto;html=1;exitX=1;exitY=0.5;exitDx=0;exitDy=0;entryX=0;entryY=0.5;entryDx=0;entryDy=0;entryPerimeter=0;curved=1;strokeWidth=3;fontSize=18;" edge="1" parent="1" source="1Gy_Q1dNtSDBWz6dkGcF-8" target="1Gy_Q1dNtSDBWz6dkGcF-11">
          <mxGeometry relative="1" as="geometry" />
        </mxCell>
        <mxCell id="1Gy_Q1dNtSDBWz6dkGcF-18" value="" style="shape=image;verticalLabelPosition=bottom;labelBackgroundColor=default;verticalAlign=top;aspect=fixed;imageAspect=0;editableCssRules=.*;image=data:image/svg+xml,PHN2ZyB4bWxucz0iaHR0cDovL3d3dy53My5vcmcvMjAwMC9zdmciIHByZXNlcnZlQXNwZWN0UmF0aW89InhNaW5ZTWluIG1lZXQiIHZpZXdCb3g9IjAuMjk3MjU0NTYyMzc3OTI5NyAwLjM2NDQ3MDMwMzA1ODYyNDI3IDI1NS4zODY2MTE5Mzg0NzY1NiAyNjMuMjk4NTIyOTQ5MjE4NzUiIGhlaWdodD0iNzk3Ljg3NDMxMTk2NzMyOTUiIHdpZHRoPSI3NzMuODk4ODI0MDU1OTg5NSI+PHBhdGggZD0iTTI1NS4wMDggMTU4LjA4NmMtMS41MzUtNC42NDktNS41NTYtNy44ODctMTAuNzU2LTguNjY0LTIuNDUyLS4zNjYtNS4yNi0uMjEtOC41ODMuNDc1LTUuNzkyIDEuMTk1LTEwLjA4OSAxLjY1LTEzLjIyNSAxLjczOCAxMS44MzctMTkuOTg1IDIxLjQ2Mi00Mi43NzUgMjcuMDAzLTY0LjIyOCA4Ljk2LTM0LjY4OSA0LjE3Mi01MC40OTItMS40MjMtNTcuNjRDMjMzLjIxNyAxMC44NDcgMjExLjYxNC42ODMgMTg1LjU1Mi4zNzJjLTEzLjkwMy0uMTctMjYuMTA4IDIuNTc1LTMyLjQ3NSA0LjU0OS01LjkyOC0xLjA0Ni0xMi4zMDItMS42My0xOC45OS0xLjczOC0xMi41MzctLjItMjMuNjE0IDIuNTMzLTMzLjA3OSA4LjE1LTUuMjQtMS43NzItMTMuNjUtNC4yNy0yMy4zNjItNS44NjQtMjIuODQyLTMuNzUtNDEuMjUyLS44MjgtNTQuNzE4IDguNjg1QzYuNjIyIDI1LjY3Mi0uOTM3IDQ1LjY4NC40NjEgNzMuNjM0Yy40NDQgOC44NzQgNS40MDggMzUuODc0IDEzLjIyNCA2MS40OCA0LjQ5MiAxNC43MTggOS4yODIgMjYuOTQgMTQuMjM3IDM2LjMzIDcuMDI3IDEzLjMxNSAxNC41NDYgMjEuMTU2IDIyLjk4NyAyMy45NzIgNC43MzEgMS41NzYgMTMuMzI3IDIuNjggMjIuMzY4LTQuODUgMS4xNDYgMS4zODggMi42NzUgMi43NjcgNC43MDQgNC4wNDggMi41NzcgMS42MjUgNS43MjggMi45NTMgOC44NzUgMy43NCAxMS4zNDEgMi44MzUgMjEuOTY0IDIuMTI2IDMxLjAyNy0xLjg0OC4wNTYgMS42MTIuMDk5IDMuMTUyLjEzNSA0LjQ4Mi4wNiAyLjE1Ny4xMiA0LjI3Mi4xOTkgNi4yNS41MzcgMTMuMzc0IDEuNDQ3IDIzLjc3MyA0LjE0MyAzMS4wNDkuMTQ4LjQuMzQ3IDEuMDEuNTU3IDEuNjU3IDEuMzQ1IDQuMTE4IDMuNTk0IDExLjAxMiA5LjMxNiAxNi40MTEgNS45MjUgNS41OTMgMTMuMDkyIDcuMzA4IDE5LjY1NiA3LjMwOCAzLjI5MiAwIDYuNDMzLS40MzIgOS4xODgtMS4wMjIgOS44Mi0yLjEwNSAyMC45NzMtNS4zMTEgMjkuMDQxLTE2Ljc5OSA3LjYyOC0xMC44NiAxMS4zMzYtMjcuMjE3IDEyLjAwNy01Mi45OS4wODctLjcyOS4xNjctMS40MjUuMjQ0LTIuMDg4bC4xNi0xLjM2MiAxLjc5Ny4xNTguNDYzLjAzMWMxMC4wMDIuNDU2IDIyLjIzMi0xLjY2NSAyOS43NDMtNS4xNTQgNS45MzUtMi43NTQgMjQuOTU0LTEyLjc5NSAyMC40NzYtMjYuMzUxIi8+PHBhdGggZmlsbD0iIzMzNjc5MSIgZD0iTTIzNy45MDYgMTYwLjcyMmMtMjkuNzQgNi4xMzUtMzEuNzg1LTMuOTM0LTMxLjc4NS0zLjkzNCAzMS40LTQ2LjU5MyA0NC41MjctMTA1LjczNiAzMy4yLTEyMC4yMTEtMzAuOTA0LTM5LjQ4NS04NC4zOTktMjAuODExLTg1LjI5Mi0yMC4zMjdsLS4yODcuMDUyYy01Ljg3Ni0xLjIyLTEyLjQ1MS0xLjk0Ni0xOS44NDItMi4wNjctMTMuNDU2LS4yMi0yMy42NjQgMy41MjgtMzEuNDEgOS40MDIgMCAwLTk1LjQzLTM5LjMxNC05MC45OTEgNDkuNDQ0Ljk0NCAxOC44ODIgMjcuMDY0IDE0Mi44NzMgNTguMjE4IDEwNS40MjIgMTEuMzg3LTEzLjY5NSAyMi4zOS0yNS4yNzQgMjIuMzktMjUuMjc0IDUuNDY0IDMuNjMgMTIuMDA2IDUuNDgyIDE4Ljg2NCA0LjgxN2wuNTMzLS40NTJjLS4xNjYgMS43LS4wOSAzLjM2My4yMTMgNS4zMzItOC4wMjYgOC45NjctNS42NjcgMTAuNTQxLTIxLjcxMSAxMy44NDQtMTYuMjM1IDMuMzQ2LTYuNjk4IDkuMzAyLS40NzEgMTAuODYgNy41NDkgMS44ODcgMjUuMDEzIDQuNTYxIDM2LjgxMy0xMS45NThsLS40NyAxLjg4NWMzLjE0NCAyLjUxOSA1LjM1MiAxNi4zODMgNC45ODIgMjguOTUyLS4zNyAxMi41NjgtLjYxNyAyMS4xOTcgMS44NiAyNy45MzcgMi40NzkgNi43NCA0Ljk0OCAyMS45MDUgMjYuMDQgMTcuMzg2IDE3LjYyMy0zLjc3NyAyNi43NTYtMTMuNTY0IDI4LjAyNy0yOS44OS45MDEtMTEuNjA2IDIuOTQyLTkuODkgMy4wNy0yMC4yNjdsMS42MzctNC45MTJjMS44ODctMTUuNzMzLjMtMjAuODA5IDExLjE1Ny0xOC40NDhsMi42NC4yMzJjNy45OS4zNjMgMTguNDUtMS4yODYgMjQuNTg5LTQuMTM5IDEzLjIxOC02LjEzNCAyMS4wNTgtMTYuMzc3IDguMDI0LTEzLjY4NmguMDAyIi8+PHBhdGggZmlsbD0iI0ZGRiIgZD0iTTEwOC4wNzYgODEuNTI1Yy0yLjY4LS4zNzMtNS4xMDctLjAyOC02LjMzNS45MDItLjY5LjUyMy0uOTA0IDEuMTI5LS45NjIgMS41NDYtLjE1NCAxLjEwNS42MiAyLjMyNyAxLjA5NiAyLjk1NyAxLjM0NiAxLjc4NCAzLjMxMiAzLjAxIDUuMjU4IDMuMjguMjgyLjA0LjU2My4wNTguODQyLjA1OCAzLjI0NSAwIDYuMTk2LTIuNTI3IDYuNDU2LTQuMzkyLjMyNS0yLjMzNi0zLjA2Ni0zLjg5My02LjM1NS00LjM1TTE5Ni44NiA4MS41OTljLS4yNTYtMS44MzEtMy41MTQtMi4zNTMtNi42MDYtMS45MjMtMy4wODguNDMtNi4wODIgMS44MjQtNS44MzIgMy42NTkuMiAxLjQyNyAyLjc3NyAzLjg2MyA1LjgyNyAzLjg2My4yNTggMCAuNTE4LS4wMTcuNzgtLjA1NCAyLjAzNi0uMjgyIDMuNTMtMS41NzUgNC4yNC0yLjMyIDEuMDgtMS4xMzYgMS43MDYtMi40MDIgMS41OTEtMy4yMjUiLz48cGF0aCBmaWxsPSIjRkZGIiBkPSJNMjQ3LjgwMiAxNjAuMDI1Yy0xLjEzNC0zLjQyOS00Ljc4NC00LjUzMi0xMC44NDgtMy4yOC0xOC4wMDUgMy43MTYtMjQuNDUzIDEuMTQyLTI2LjU3LS40MTcgMTMuOTk1LTIxLjMyIDI1LjUwOC00Ny4wOTIgMzEuNzE5LTcxLjEzNyAyLjk0Mi0xMS4zOSA0LjU2Ny0yMS45NjggNC43LTMwLjU5LjE0Ny05LjQ2My0xLjQ2NS0xNi40MTctNC43ODktMjAuNjY1LTEzLjQwMi0xNy4xMjUtMzMuMDcyLTI2LjMxMS01Ni44ODItMjYuNTYzLTE2LjM2OS0uMTg0LTMwLjE5OSA0LjAwNS0zMi44OCA1LjE4My01LjY0Ni0xLjQwNC0xMS44MDEtMi4yNjYtMTguNTAyLTIuMzc2LTEyLjI4OC0uMTk5LTIyLjkxIDIuNzQzLTMxLjcwNCA4Ljc0LTMuODItMS40MjItMTMuNjkyLTQuODExLTI1Ljc2NS02Ljc1Ni0yMC44NzItMy4zNi0zNy40NTgtLjgxNC00OS4yOTQgNy41NzEtMTQuMTIzIDEwLjAwNi0yMC42NDMgMjcuODkyLTE5LjM4IDUzLjE2LjQyNSA4LjUwMSA1LjI2OSAzNC42NTMgMTIuOTEzIDU5LjY5OCAxMC4wNjIgMzIuOTY0IDIxIDUxLjYyNSAzMi41MDggNTUuNDY0IDEuMzQ3LjQ0OSAyLjkuNzYzIDQuNjEzLjc2MyA0LjE5OCAwIDkuMzQ1LTEuODkyIDE0LjctOC4zM2E1MjkuODMyIDUyOS44MzIgMCAwIDEgMjAuMjYxLTIyLjkyNmM0LjUyNCAyLjQyOCA5LjQ5NCAzLjc4NCAxNC41NzcgMy45Mi4wMS4xMzMuMDIzLjI2Ni4wMzUuMzk4YTExNy42NiAxMTcuNjYgMCAwIDAtMi41NyAzLjE3NWMtMy41MjIgNC40NzEtNC4yNTUgNS40MDItMTUuNTkyIDcuNzM2LTMuMjI1LjY2Ni0xMS43OSAyLjQzMS0xMS45MTYgOC40MzUtLjEzNiA2LjU2IDEwLjEyNSA5LjMxNSAxMS4yOTQgOS42MDcgNC4wNzQgMS4wMiA3Ljk5OSAxLjUyMyAxMS43NDIgMS41MjMgOS4xMDMgMCAxNy4xMTQtMi45OTIgMjMuNTE2LTguNzgxLS4xOTcgMjMuMzg2Ljc3OCA0Ni40MyAzLjU4NiA1My40NTEgMi4zIDUuNzQ4IDcuOTE4IDE5Ljc5NSAyNS42NjQgMTkuNzk0IDIuNjA0IDAgNS40Ny0uMzAzIDguNjIzLS45NzkgMTguNTIxLTMuOTcgMjYuNTY0LTEyLjE1NiAyOS42NzUtMzAuMjAzIDEuNjY1LTkuNjQ1IDQuNTIyLTMyLjY3NiA1Ljg2Ni00NS4wMyAyLjgzNi44ODUgNi40ODcgMS4yOSAxMC40MzQgMS4yODkgOC4yMzIgMCAxNy43MzEtMS43NDkgMjMuNjg4LTQuNTE0IDYuNjkyLTMuMTA4IDE4Ljc2OC0xMC43MzQgMTYuNTc4LTE3LjM2em0tNDQuMTA2LTgzLjQ4Yy0uMDYxIDMuNjQ3LS41NjMgNi45NTgtMS4wOTUgMTAuNDE0LS41NzMgMy43MTctMS4xNjUgNy41Ni0xLjMxNCAxMi4yMjUtLjE0NyA0LjU0LjQyIDkuMjYuOTY4IDEzLjgyNSAxLjEwOCA5LjIyIDIuMjQ1IDE4LjcxMi0yLjE1NiAyOC4wNzhhMzYuNTA4IDM2LjUwOCAwIDAgMS0xLjk1LTQuMDA5Yy0uNTQ3LTEuMzI2LTEuNzM1LTMuNDU2LTMuMzgtNi40MDQtNi4zOTktMTEuNDc2LTIxLjM4NC0zOC4zNS0xMy43MTMtNDkuMzE2IDIuMjg1LTMuMjY0IDguMDg0LTYuNjIgMjIuNjQtNC44MTN6bS0xNy42NDQtNjEuNzg3YzIxLjMzNC40NzEgMzguMjEgOC40NTIgNTAuMTU4IDIzLjcyIDkuMTY0IDExLjcxMS0uOTI3IDY0Ljk5OC0zMC4xNCAxMTAuOTY5YTE3MS4zMyAxNzEuMzMgMCAwIDAtLjg4Ni0xLjExN2wtLjM3LS40NjJjNy41NDktMTIuNDY3IDYuMDczLTI0LjgwMiA0Ljc1OS0zNS43MzgtLjU0LTQuNDg4LTEuMDUtOC43MjctLjkyLTEyLjcwOS4xMzQtNC4yMi42OTItNy44NCAxLjIzMi0xMS4zNC42NjMtNC4zMTMgMS4zMzgtOC43NzYgMS4xNTItMTQuMDM3LjEzOS0uNTUyLjE5NS0xLjIwNC4xMjItMS45NzgtLjQ3NS01LjA0NS02LjIzNS0yMC4xNDQtMTcuOTc1LTMzLjgxLTYuNDIyLTcuNDc1LTE1Ljc4Ny0xNS44NC0yOC41NzQtMjEuNDgyIDUuNS0xLjE0IDEzLjAyMS0yLjIwMyAyMS40NDItMi4wMTZ6TTY2LjY3NCAxNzUuNzc4Yy01LjkgNy4wOTQtOS45NzQgNS43MzQtMTEuMzE0IDUuMjg4LTguNzMtMi45MTItMTguODYtMjEuMzY0LTI3Ljc5MS01MC42MjQtNy43MjgtMjUuMzE4LTEyLjI0NC01MC43NzctMTIuNjAyLTU3LjkxNi0xLjEyOC0yMi41NzggNC4zNDUtMzguMzEzIDE2LjI2OC00Ni43NjkgMTkuNDA0LTEzLjc2IDUxLjMwNi01LjUyNCA2NC4xMjUtMS4zNDctLjE4NC4xODItLjM3Ni4zNTItLjU1OC41MzctMjEuMDM2IDIxLjI0NC0yMC41MzcgNTcuNTQtMjAuNDg1IDU5Ljc1OS0uMDAyLjg1Ni4wNyAyLjA2OC4xNjggMy43MzUuMzYyIDYuMTA1IDEuMDM2IDE3LjQ2Ny0uNzY0IDMwLjMzNC0xLjY3MiAxMS45NTcgMi4wMTQgMjMuNjYgMTAuMTExIDMyLjEwOWEzNi4yNzUgMzYuMjc1IDAgMCAwIDIuNjE3IDIuNDY4Yy0zLjYwNCAzLjg2LTExLjQzNyAxMi4zOTYtMTkuNzc1IDIyLjQyNnptMjIuNDc5LTI5Ljk5M2MtNi41MjYtNi44MS05LjQ5LTE2LjI4Mi04LjEzMy0yNS45OSAxLjktMTMuNTkyIDEuMTk5LTI1LjQzLjgyMi0zMS43OS0uMDUzLS44OS0uMS0xLjY3LS4xMjctMi4yODUgMy4wNzMtMi43MjUgMTcuMzE0LTEwLjM1NSAyNy40Ny04LjAyOCA0LjYzNCAxLjA2MSA3LjQ1OCA0LjIxNyA4LjYzMiA5LjY0NSA2LjA3NiAyOC4xMDMuODA0IDM5LjgxNi0zLjQzMiA0OS4yMjktLjg3MyAxLjkzOS0xLjY5OCAzLjc3Mi0yLjQwMiA1LjY2OGwtLjU0NiAxLjQ2NmMtMS4zODIgMy43MDYtMi42NjggNy4xNTItMy40NjUgMTAuNDI0LTYuOTM4LS4wMi0xMy42ODctMi45ODQtMTguODE5LTguMzR6bTEuMDY1IDM3LjljLTIuMDI2LS41MDYtMy44NDgtMS4zODUtNC45MTctMi4xMTQuODkzLS40MiAyLjQ4Mi0uOTkyIDUuMjM4LTEuNTYgMTMuMzM3LTIuNzQ1IDE1LjM5Ny00LjY4MyAxOS44OTUtMTAuMzk0IDEuMDMxLTEuMzEgMi4yLTIuNzk0IDMuODE5LTQuNjAybC4wMDItLjAwMmMyLjQxMS0yLjcgMy41MTQtMi4yNDIgNS41MTQtMS40MTIgMS42MjEuNjcgMy4yIDIuNzAyIDMuODQgNC45MzguMzAzIDEuMDU2LjY0MyAzLjA2LS40NyA0LjYyLTkuMzk2IDEzLjE1Ni0yMy4wODggMTIuOTg3LTMyLjkyMSAxMC41MjZ6bTY5Ljc5OSA2NC45NTJjLTE2LjMxNiAzLjQ5Ni0yMi4wOTMtNC44MjktMjUuOS0xNC4zNDYtMi40NTctNi4xNDQtMy42NjUtMzMuODUtMi44MDgtNjQuNDQ3LjAxMS0uNDA3LS4wNDctLjgtLjE1OS0xLjE3YTE1LjQ0NCAxNS40NDQgMCAwIDAtLjQ1Ni0yLjE2MmMtMS4yNzQtNC40NTItNC4zNzktOC4xNzYtOC4xMDQtOS43Mi0xLjQ4LS42MTMtNC4xOTYtMS43MzgtNy40Ni0uOTAzLjY5Ni0yLjg2OCAxLjkwMy02LjEwNyAzLjIxMi05LjYxNGwuNTQ5LTEuNDc1Yy42MTgtMS42NjMgMS4zOTQtMy4zODYgMi4yMTQtNS4yMSA0LjQzMy05Ljg0OCAxMC41MDQtMjMuMzM3IDMuOTE1LTUzLjgxLTIuNDY4LTExLjQxNC0xMC43MS0xNi45ODgtMjMuMjA0LTE1LjY5My03LjQ5Ljc3NS0xNC4zNDMgMy43OTctMTcuNzYxIDUuNTMtLjczNS4zNzItMS40MDcuNzMyLTIuMDM1IDEuMDgyLjk1NC0xMS41IDQuNTU4LTMyLjk5MiAxOC4wNC00Ni41OSA4LjQ4OS04LjU2IDE5Ljc5NC0xMi43ODggMzMuNTY4LTEyLjU2IDI3LjE0LjQ0NCA0NC41NDQgMTQuMzcyIDU0LjM2NiAyNS45NzkgOC40NjQgMTAuMDAxIDEzLjA0NyAyMC4wNzYgMTQuODc2IDI1LjUxLTEzLjc1NS0xLjM5OS0yMy4xMSAxLjMxNi0yNy44NTIgOC4wOTYtMTAuMzE3IDE0Ljc0OCA1LjY0NCA0My4zNzIgMTMuMzE1IDU3LjEyOSAxLjQwNyAyLjUyMSAyLjYyMSA0LjcgMy4wMDMgNS42MjYgMi40OTggNi4wNTQgNS43MzIgMTAuMDk2IDguMDkzIDEzLjA0Ni43MjQuOTA0IDEuNDI2IDEuNzgxIDEuOTYgMi41NDctNC4xNjYgMS4yMDEtMTEuNjQ5IDMuOTc2LTEwLjk2NyAxNy44NDctLjU1IDYuOTYtNC40NjEgMzkuNTQ2LTYuNDQ4IDUxLjA1OS0yLjYyMyAxNS4yMS04LjIyIDIwLjg3NS0yMy45NTcgMjQuMjV6bTY4LjEwNC03Ny45MzZjLTQuMjYgMS45NzctMTEuMzg5IDMuNDYtMTguMTYxIDMuNzc5LTcuNDguMzUtMTEuMjg4LS44MzgtMTIuMTg0LTEuNTY5LS40Mi04LjY0NCAyLjc5Ny05LjU0NyA2LjIwMi0xMC41MDMuNTM1LS4xNSAxLjA1Ny0uMjk3IDEuNTYxLS40NzMuMzEzLjI1NS42NTYuNTA4IDEuMDMyLjc1NiA2LjAxMiAzLjk2OCAxNi43MzUgNC4zOTYgMzEuODc0IDEuMjcxbC4xNjYtLjAzM2MtMi4wNDIgMS45MDktNS41MzYgNC40NzEtMTAuNDkgNi43NzJ6Ii8+PC9zdmc+;strokeWidth=3;fontSize=18;" vertex="1" parent="1">
          <mxGeometry x="981.47" y="298.31999999999994" width="62.07" height="64" as="geometry" />
        </mxCell>
        <mxCell id="1Gy_Q1dNtSDBWz6dkGcF-19" style="edgeStyle=orthogonalEdgeStyle;rounded=0;orthogonalLoop=1;jettySize=auto;html=1;exitX=1;exitY=0.5;exitDx=0;exitDy=0;entryX=0;entryY=0.5;entryDx=0;entryDy=0;entryPerimeter=0;curved=1;strokeWidth=3;fontSize=18;" edge="1" parent="1" source="1Gy_Q1dNtSDBWz6dkGcF-4" target="1Gy_Q1dNtSDBWz6dkGcF-13">
          <mxGeometry relative="1" as="geometry">
            <Array as="points">
              <mxPoint x="585" y="330.31999999999994" />
              <mxPoint x="585" y="460.31999999999994" />
              <mxPoint x="875" y="460.31999999999994" />
              <mxPoint x="875" y="330.31999999999994" />
            </Array>
          </mxGeometry>
        </mxCell>
        <mxCell id="xAp3PzmT-x3Nqru01akW-1" value="&lt;h1 style=&quot;margin-top: 0px;&quot;&gt;Resource upload&lt;/h1&gt;" style="text;html=1;whiteSpace=wrap;overflow=hidden;rounded=0;fontSize=18;strokeWidth=3;" vertex="1" parent="1">
          <mxGeometry width="493.72" height="120" as="geometry" />
        </mxCell>
      </root>
    </mxGraphModel>
  </diagram>
  <diagram name="db-schema" id="iTsrZ7cjIqfAz-Kj3sgD">
    <mxGraphModel dx="1234" dy="883" grid="1" gridSize="10" guides="1" tooltips="1" connect="1" arrows="1" fold="1" page="1" pageScale="1" pageWidth="1169" pageHeight="827" math="0" shadow="0">
      <root>
        <mxCell id="0" />
        <mxCell id="1" parent="0" />
        <mxCell id="7CQG_b0OcHRryonq4kR9-1" value="" style="edgeStyle=entityRelationEdgeStyle;endArrow=ERzeroToMany;startArrow=ERone;endFill=1;startFill=0;" parent="1" source="7CQG_b0OcHRryonq4kR9-24" target="7CQG_b0OcHRryonq4kR9-7" edge="1">
          <mxGeometry width="100" height="100" relative="1" as="geometry">
            <mxPoint x="260" y="650" as="sourcePoint" />
            <mxPoint x="360" y="550" as="targetPoint" />
          </mxGeometry>
        </mxCell>
        <mxCell id="7CQG_b0OcHRryonq4kR9-3" value="resource" style="shape=table;startSize=30;container=1;collapsible=1;childLayout=tableLayout;fixedRows=1;rowLines=0;fontStyle=1;align=center;resizeLast=1;" parent="1" vertex="1">
          <mxGeometry x="370" y="51" width="250" height="190" as="geometry" />
        </mxCell>
        <mxCell id="7CQG_b0OcHRryonq4kR9-4" value="" style="shape=partialRectangle;collapsible=0;dropTarget=0;pointerEvents=0;fillColor=none;points=[[0,0.5],[1,0.5]];portConstraint=eastwest;top=0;left=0;right=0;bottom=1;" parent="7CQG_b0OcHRryonq4kR9-3" vertex="1">
          <mxGeometry y="30" width="250" height="30" as="geometry" />
        </mxCell>
        <mxCell id="7CQG_b0OcHRryonq4kR9-5" value="PK" style="shape=partialRectangle;overflow=hidden;connectable=0;fillColor=none;top=0;left=0;bottom=0;right=0;fontStyle=1;" parent="7CQG_b0OcHRryonq4kR9-4" vertex="1">
          <mxGeometry width="30" height="30" as="geometry">
            <mxRectangle width="30" height="30" as="alternateBounds" />
          </mxGeometry>
        </mxCell>
        <mxCell id="7CQG_b0OcHRryonq4kR9-6" value="resource_id int NOT NULL " style="shape=partialRectangle;overflow=hidden;connectable=0;fillColor=none;top=0;left=0;bottom=0;right=0;align=left;spacingLeft=6;fontStyle=5;" parent="7CQG_b0OcHRryonq4kR9-4" vertex="1">
          <mxGeometry x="30" width="220" height="30" as="geometry">
            <mxRectangle width="220" height="30" as="alternateBounds" />
          </mxGeometry>
        </mxCell>
        <mxCell id="7CQG_b0OcHRryonq4kR9-7" value="" style="shape=partialRectangle;collapsible=0;dropTarget=0;pointerEvents=0;fillColor=none;points=[[0,0.5],[1,0.5]];portConstraint=eastwest;top=0;left=0;right=0;bottom=0;" parent="7CQG_b0OcHRryonq4kR9-3" vertex="1">
          <mxGeometry y="60" width="250" height="30" as="geometry" />
        </mxCell>
        <mxCell id="7CQG_b0OcHRryonq4kR9-8" value="FK1" style="shape=partialRectangle;overflow=hidden;connectable=0;fillColor=none;top=0;left=0;bottom=0;right=0;" parent="7CQG_b0OcHRryonq4kR9-7" vertex="1">
          <mxGeometry width="30" height="30" as="geometry">
            <mxRectangle width="30" height="30" as="alternateBounds" />
          </mxGeometry>
        </mxCell>
        <mxCell id="7CQG_b0OcHRryonq4kR9-9" value="item_type int NOT NULL" style="shape=partialRectangle;overflow=hidden;connectable=0;fillColor=none;top=0;left=0;bottom=0;right=0;align=left;spacingLeft=6;" parent="7CQG_b0OcHRryonq4kR9-7" vertex="1">
          <mxGeometry x="30" width="220" height="30" as="geometry">
            <mxRectangle width="220" height="30" as="alternateBounds" />
          </mxGeometry>
        </mxCell>
        <mxCell id="7CQG_b0OcHRryonq4kR9-10" value="" style="shape=partialRectangle;collapsible=0;dropTarget=0;pointerEvents=0;fillColor=none;points=[[0,0.5],[1,0.5]];portConstraint=eastwest;top=0;left=0;right=0;bottom=0;" parent="7CQG_b0OcHRryonq4kR9-3" vertex="1">
          <mxGeometry y="90" width="250" height="30" as="geometry" />
        </mxCell>
        <mxCell id="7CQG_b0OcHRryonq4kR9-11" value="" style="shape=partialRectangle;overflow=hidden;connectable=0;fillColor=none;top=0;left=0;bottom=0;right=0;" parent="7CQG_b0OcHRryonq4kR9-10" vertex="1">
          <mxGeometry width="30" height="30" as="geometry">
            <mxRectangle width="30" height="30" as="alternateBounds" />
          </mxGeometry>
        </mxCell>
        <mxCell id="7CQG_b0OcHRryonq4kR9-12" value="name text NOT NULL" style="shape=partialRectangle;overflow=hidden;connectable=0;fillColor=none;top=0;left=0;bottom=0;right=0;align=left;spacingLeft=6;" parent="7CQG_b0OcHRryonq4kR9-10" vertex="1">
          <mxGeometry x="30" width="220" height="30" as="geometry">
            <mxRectangle width="220" height="30" as="alternateBounds" />
          </mxGeometry>
        </mxCell>
        <mxCell id="7CQG_b0OcHRryonq4kR9-30" value="" style="shape=partialRectangle;collapsible=0;dropTarget=0;pointerEvents=0;fillColor=none;points=[[0,0.5],[1,0.5]];portConstraint=eastwest;top=0;left=0;right=0;bottom=0;" parent="7CQG_b0OcHRryonq4kR9-3" vertex="1">
          <mxGeometry y="120" width="250" height="30" as="geometry" />
        </mxCell>
        <mxCell id="7CQG_b0OcHRryonq4kR9-31" value="" style="shape=partialRectangle;overflow=hidden;connectable=0;fillColor=none;top=0;left=0;bottom=0;right=0;" parent="7CQG_b0OcHRryonq4kR9-30" vertex="1">
          <mxGeometry width="30" height="30" as="geometry">
            <mxRectangle width="30" height="30" as="alternateBounds" />
          </mxGeometry>
        </mxCell>
        <mxCell id="7CQG_b0OcHRryonq4kR9-32" value="date_added date NOT NULL" style="shape=partialRectangle;overflow=hidden;connectable=0;fillColor=none;top=0;left=0;bottom=0;right=0;align=left;spacingLeft=6;" parent="7CQG_b0OcHRryonq4kR9-30" vertex="1">
          <mxGeometry x="30" width="220" height="30" as="geometry">
            <mxRectangle width="220" height="30" as="alternateBounds" />
          </mxGeometry>
        </mxCell>
        <mxCell id="XgS2Th9MaDeJwT-jlhH--14" value="" style="shape=partialRectangle;collapsible=0;dropTarget=0;pointerEvents=0;fillColor=none;points=[[0,0.5],[1,0.5]];portConstraint=eastwest;top=0;left=0;right=0;bottom=0;" parent="7CQG_b0OcHRryonq4kR9-3" vertex="1">
          <mxGeometry y="150" width="250" height="30" as="geometry" />
        </mxCell>
        <mxCell id="XgS2Th9MaDeJwT-jlhH--15" value="" style="shape=partialRectangle;overflow=hidden;connectable=0;fillColor=none;top=0;left=0;bottom=0;right=0;" parent="XgS2Th9MaDeJwT-jlhH--14" vertex="1">
          <mxGeometry width="30" height="30" as="geometry">
            <mxRectangle width="30" height="30" as="alternateBounds" />
          </mxGeometry>
        </mxCell>
        <mxCell id="XgS2Th9MaDeJwT-jlhH--16" value="embd_id bigint NOT NULL" style="shape=partialRectangle;overflow=hidden;connectable=0;fillColor=none;top=0;left=0;bottom=0;right=0;align=left;spacingLeft=6;" parent="XgS2Th9MaDeJwT-jlhH--14" vertex="1">
          <mxGeometry x="30" width="220" height="30" as="geometry">
            <mxRectangle width="220" height="30" as="alternateBounds" />
          </mxGeometry>
        </mxCell>
        <mxCell id="7CQG_b0OcHRryonq4kR9-23" value="dim_resource_types" style="shape=table;startSize=30;container=1;collapsible=1;childLayout=tableLayout;fixedRows=1;rowLines=0;fontStyle=1;align=center;resizeLast=1;" parent="1" vertex="1">
          <mxGeometry x="40" y="50" width="250" height="100" as="geometry" />
        </mxCell>
        <mxCell id="7CQG_b0OcHRryonq4kR9-24" value="" style="shape=partialRectangle;collapsible=0;dropTarget=0;pointerEvents=0;fillColor=none;points=[[0,0.5],[1,0.5]];portConstraint=eastwest;top=0;left=0;right=0;bottom=1;" parent="7CQG_b0OcHRryonq4kR9-23" vertex="1">
          <mxGeometry y="30" width="250" height="30" as="geometry" />
        </mxCell>
        <mxCell id="7CQG_b0OcHRryonq4kR9-25" value="PK" style="shape=partialRectangle;overflow=hidden;connectable=0;fillColor=none;top=0;left=0;bottom=0;right=0;fontStyle=1;" parent="7CQG_b0OcHRryonq4kR9-24" vertex="1">
          <mxGeometry width="30" height="30" as="geometry">
            <mxRectangle width="30" height="30" as="alternateBounds" />
          </mxGeometry>
        </mxCell>
        <mxCell id="7CQG_b0OcHRryonq4kR9-26" value="item_type: int NOT NULL " style="shape=partialRectangle;overflow=hidden;connectable=0;fillColor=none;top=0;left=0;bottom=0;right=0;align=left;spacingLeft=6;fontStyle=5;" parent="7CQG_b0OcHRryonq4kR9-24" vertex="1">
          <mxGeometry x="30" width="220" height="30" as="geometry">
            <mxRectangle width="220" height="30" as="alternateBounds" />
          </mxGeometry>
        </mxCell>
        <mxCell id="7CQG_b0OcHRryonq4kR9-27" value="" style="shape=partialRectangle;collapsible=0;dropTarget=0;pointerEvents=0;fillColor=none;points=[[0,0.5],[1,0.5]];portConstraint=eastwest;top=0;left=0;right=0;bottom=0;" parent="7CQG_b0OcHRryonq4kR9-23" vertex="1">
          <mxGeometry y="60" width="250" height="30" as="geometry" />
        </mxCell>
        <mxCell id="7CQG_b0OcHRryonq4kR9-28" value="" style="shape=partialRectangle;overflow=hidden;connectable=0;fillColor=none;top=0;left=0;bottom=0;right=0;" parent="7CQG_b0OcHRryonq4kR9-27" vertex="1">
          <mxGeometry width="30" height="30" as="geometry">
            <mxRectangle width="30" height="30" as="alternateBounds" />
          </mxGeometry>
        </mxCell>
        <mxCell id="7CQG_b0OcHRryonq4kR9-29" value="item_type: char(50) NOT NULL" style="shape=partialRectangle;overflow=hidden;connectable=0;fillColor=none;top=0;left=0;bottom=0;right=0;align=left;spacingLeft=6;" parent="7CQG_b0OcHRryonq4kR9-27" vertex="1">
          <mxGeometry x="30" width="220" height="30" as="geometry">
            <mxRectangle width="220" height="30" as="alternateBounds" />
          </mxGeometry>
        </mxCell>
        <mxCell id="XgS2Th9MaDeJwT-jlhH--1" value="embd" style="shape=table;startSize=30;container=1;collapsible=1;childLayout=tableLayout;fixedRows=1;rowLines=0;fontStyle=1;align=center;resizeLast=1;strokeColor=#FF0080;" parent="1" vertex="1">
          <mxGeometry x="770" y="50" width="250" height="100" as="geometry" />
        </mxCell>
        <mxCell id="XgS2Th9MaDeJwT-jlhH--2" value="" style="shape=partialRectangle;collapsible=0;dropTarget=0;pointerEvents=0;fillColor=none;points=[[0,0.5],[1,0.5]];portConstraint=eastwest;top=0;left=0;right=0;bottom=1;" parent="XgS2Th9MaDeJwT-jlhH--1" vertex="1">
          <mxGeometry y="30" width="250" height="30" as="geometry" />
        </mxCell>
        <mxCell id="XgS2Th9MaDeJwT-jlhH--3" value="PK" style="shape=partialRectangle;overflow=hidden;connectable=0;fillColor=none;top=0;left=0;bottom=0;right=0;fontStyle=1;" parent="XgS2Th9MaDeJwT-jlhH--2" vertex="1">
          <mxGeometry width="35" height="30" as="geometry">
            <mxRectangle width="35" height="30" as="alternateBounds" />
          </mxGeometry>
        </mxCell>
        <mxCell id="XgS2Th9MaDeJwT-jlhH--4" value="id int NOT NULL " style="shape=partialRectangle;overflow=hidden;connectable=0;fillColor=none;top=0;left=0;bottom=0;right=0;align=left;spacingLeft=6;fontStyle=5;" parent="XgS2Th9MaDeJwT-jlhH--2" vertex="1">
          <mxGeometry x="35" width="215" height="30" as="geometry">
            <mxRectangle width="215" height="30" as="alternateBounds" />
          </mxGeometry>
        </mxCell>
        <mxCell id="XgS2Th9MaDeJwT-jlhH--5" value="" style="shape=partialRectangle;collapsible=0;dropTarget=0;pointerEvents=0;fillColor=none;points=[[0,0.5],[1,0.5]];portConstraint=eastwest;top=0;left=0;right=0;bottom=0;" parent="XgS2Th9MaDeJwT-jlhH--1" vertex="1">
          <mxGeometry y="60" width="250" height="30" as="geometry" />
        </mxCell>
        <mxCell id="XgS2Th9MaDeJwT-jlhH--6" value="FK1" style="shape=partialRectangle;overflow=hidden;connectable=0;fillColor=none;top=0;left=0;bottom=0;right=0;" parent="XgS2Th9MaDeJwT-jlhH--5" vertex="1">
          <mxGeometry width="35" height="30" as="geometry">
            <mxRectangle width="35" height="30" as="alternateBounds" />
          </mxGeometry>
        </mxCell>
        <mxCell id="XgS2Th9MaDeJwT-jlhH--7" value="embd FLOAT16_VECTOR NOT NULL" style="shape=partialRectangle;overflow=hidden;connectable=0;fillColor=none;top=0;left=0;bottom=0;right=0;align=left;spacingLeft=6;" parent="XgS2Th9MaDeJwT-jlhH--5" vertex="1">
          <mxGeometry x="35" width="215" height="30" as="geometry">
            <mxRectangle width="215" height="30" as="alternateBounds" />
          </mxGeometry>
        </mxCell>
        <mxCell id="XgS2Th9MaDeJwT-jlhH--17" style="edgeStyle=entityRelationEdgeStyle;rounded=1;orthogonalLoop=1;jettySize=auto;html=1;exitX=1;exitY=0.5;exitDx=0;exitDy=0;entryX=0;entryY=0.5;entryDx=0;entryDy=0;curved=0;startArrow=ERone;startFill=0;endArrow=ERone;endFill=0;" parent="1" source="XgS2Th9MaDeJwT-jlhH--14" target="XgS2Th9MaDeJwT-jlhH--2" edge="1">
          <mxGeometry relative="1" as="geometry">
            <mxPoint x="760" y="290" as="targetPoint" />
          </mxGeometry>
        </mxCell>
      </root>
    </mxGraphModel>
  </diagram>
</mxfile>
